G75*
%MOIN*%
%OFA0B0*%
%FSLAX24Y24*%
%IPPOS*%
%LPD*%
%AMOC8*
5,1,8,0,0,1.08239X$1,22.5*
%
%ADD10C,0.0700*%
%ADD11C,0.0867*%
%ADD12R,0.0720X0.0720*%
%ADD13OC8,0.0720*%
%ADD14R,0.0635X0.0635*%
%ADD15C,0.0635*%
D10*
X006196Y003200D03*
X007196Y003200D03*
X008196Y003200D03*
X009196Y003200D03*
X010196Y003200D03*
X011196Y003200D03*
X012196Y003200D03*
X013196Y003200D03*
X014196Y003200D03*
X015196Y003200D03*
X016196Y003200D03*
X017196Y003200D03*
X018196Y003200D03*
X019196Y003200D03*
X019196Y009200D03*
X018196Y009200D03*
X017196Y009200D03*
X016196Y009200D03*
X015196Y009200D03*
X014196Y009200D03*
X013196Y009200D03*
X012196Y009200D03*
X011196Y009200D03*
X010196Y009200D03*
X009196Y009200D03*
X008196Y009200D03*
X007196Y009200D03*
X006196Y009200D03*
X006196Y008200D03*
X006196Y007200D03*
X006196Y006200D03*
X006196Y005200D03*
X006196Y004200D03*
D11*
X003346Y000950D03*
X019346Y000950D03*
X019346Y011450D03*
X003346Y011450D03*
D12*
X017196Y010700D03*
D13*
X016196Y010700D03*
X015196Y010700D03*
X014196Y010700D03*
X013196Y010700D03*
X012196Y010700D03*
X011196Y010700D03*
X010196Y010700D03*
X009196Y010700D03*
X008196Y010700D03*
X007196Y010700D03*
X006196Y010700D03*
X006196Y001700D03*
X007196Y001700D03*
X008196Y001700D03*
X009196Y001700D03*
X010196Y001700D03*
X011196Y001700D03*
X012196Y001700D03*
X013196Y001700D03*
X014196Y001700D03*
X015196Y001700D03*
X016196Y001700D03*
X017196Y001700D03*
D14*
X016796Y007281D03*
X003496Y007519D03*
X003496Y002519D03*
D15*
X003496Y003306D03*
X003496Y004094D03*
X003496Y004881D03*
X003496Y008306D03*
X003496Y009094D03*
X003496Y009881D03*
X016796Y006494D03*
X016796Y005706D03*
X016796Y004919D03*
M02*
