G75*
%MOIN*%
%OFA0B0*%
%FSLAX24Y24*%
%IPPOS*%
%LPD*%
%AMOC8*
5,1,8,0,0,1.08239X$1,22.5*
%
%ADD10C,0.0080*%
%ADD11C,0.0050*%
%ADD12C,0.0060*%
%ADD13C,0.0100*%
%ADD14C,0.0000*%
%ADD15C,0.0040*%
%ADD16R,0.0050X0.0010*%
%ADD17R,0.0070X0.0010*%
%ADD18R,0.0090X0.0010*%
%ADD19R,0.0110X0.0010*%
%ADD20R,0.0130X0.0010*%
%ADD21R,0.0150X0.0010*%
%ADD22R,0.0170X0.0010*%
%ADD23R,0.0190X0.0010*%
%ADD24R,0.0210X0.0010*%
%ADD25R,0.0230X0.0010*%
%ADD26R,0.0240X0.0010*%
%ADD27R,0.0260X0.0010*%
%ADD28R,0.0270X0.0010*%
%ADD29R,0.0280X0.0010*%
%ADD30R,0.0140X0.0010*%
%ADD31R,0.0250X0.0010*%
%ADD32R,0.0160X0.0010*%
%ADD33R,0.0180X0.0010*%
%ADD34R,0.0200X0.0010*%
%ADD35R,0.0220X0.0010*%
%ADD36R,0.0020X0.0010*%
%ADD37R,0.0290X0.0010*%
%ADD38R,0.0300X0.0010*%
%ADD39R,0.0310X0.0010*%
%ADD40R,0.0320X0.0010*%
%ADD41R,0.0330X0.0010*%
%ADD42R,0.0040X0.0010*%
%ADD43R,0.0060X0.0010*%
%ADD44R,0.0080X0.0010*%
%ADD45R,0.0100X0.0010*%
%ADD46R,0.0120X0.0010*%
%ADD47R,0.0030X0.0010*%
%ADD48R,0.0350X0.0010*%
%ADD49R,0.0380X0.0010*%
%ADD50R,0.0420X0.0010*%
%ADD51R,0.0450X0.0010*%
%ADD52R,0.0340X0.0010*%
%ADD53R,0.0480X0.0010*%
%ADD54R,0.0390X0.0010*%
%ADD55R,0.0410X0.0010*%
%ADD56R,0.0430X0.0010*%
%ADD57R,0.0460X0.0010*%
%ADD58R,0.0470X0.0010*%
%ADD59R,0.0400X0.0010*%
%ADD60R,0.0490X0.0010*%
%ADD61R,0.0510X0.0010*%
%ADD62R,0.0370X0.0010*%
%ADD63R,0.0590X0.0010*%
%ADD64R,0.0500X0.0010*%
%ADD65R,0.0580X0.0010*%
%ADD66R,0.0570X0.0010*%
%ADD67R,0.0530X0.0010*%
%ADD68R,0.0520X0.0010*%
%ADD69R,0.0360X0.0010*%
%ADD70R,0.0010X0.0010*%
D10*
X004686Y003160D02*
X004767Y003080D01*
X004686Y003160D02*
X004686Y003321D01*
X004767Y003401D01*
X005087Y003401D01*
X005167Y003321D01*
X005167Y003160D01*
X005087Y003080D01*
X005696Y002700D02*
X005696Y009700D01*
X019696Y009700D01*
X019696Y006700D01*
X019196Y006700D01*
X019196Y005700D01*
X019696Y005700D01*
X019696Y002700D01*
X005696Y002700D01*
X005087Y003596D02*
X005007Y003596D01*
X004686Y003916D01*
X004686Y003596D01*
X005087Y003596D02*
X005167Y003676D01*
X005167Y003836D01*
X005087Y003916D01*
X005167Y004100D02*
X005167Y004260D01*
X005167Y004180D02*
X004686Y004180D01*
X004686Y004260D02*
X004686Y004100D01*
X005167Y007693D02*
X005167Y008013D01*
X005167Y007853D02*
X004686Y007853D01*
X004686Y008208D02*
X004847Y008369D01*
X004847Y008289D02*
X004847Y008529D01*
X004686Y008529D02*
X005167Y008529D01*
X005167Y008289D01*
X005087Y008208D01*
X004927Y008208D01*
X004847Y008289D01*
X004927Y008724D02*
X004927Y009044D01*
X005007Y009044D02*
X005167Y008884D01*
X005007Y008724D01*
X004686Y008724D01*
X004686Y009044D02*
X005007Y009044D01*
X005167Y009240D02*
X004767Y009240D01*
X004686Y009320D01*
X004686Y009480D01*
X004767Y009560D01*
X005167Y009560D01*
X015526Y007458D02*
X015526Y007298D01*
X015606Y007218D01*
X015926Y007218D01*
X016006Y007298D01*
X016006Y007458D01*
X015926Y007538D01*
X015766Y007538D01*
X015766Y007378D01*
X015606Y007538D02*
X015526Y007458D01*
X015606Y007023D02*
X015526Y006943D01*
X015526Y006783D01*
X015606Y006703D01*
X015926Y006703D01*
X016006Y006783D01*
X016006Y006943D01*
X015926Y007023D01*
X015606Y007023D01*
X016006Y006507D02*
X016006Y006187D01*
X015526Y006187D01*
X015686Y005992D02*
X016006Y005992D01*
X015766Y005992D02*
X015766Y005671D01*
X015686Y005671D02*
X015526Y005831D01*
X015686Y005992D01*
X015686Y005671D02*
X016006Y005671D01*
X016006Y005476D02*
X015526Y005476D01*
X015526Y005156D02*
X016006Y005476D01*
X016006Y005156D02*
X015526Y005156D01*
X015686Y004960D02*
X016006Y004960D01*
X015766Y004960D02*
X015766Y004640D01*
X015686Y004640D02*
X015526Y004800D01*
X015686Y004960D01*
X015686Y004640D02*
X016006Y004640D01*
D11*
X002597Y001339D02*
X002595Y001377D01*
X002589Y001414D01*
X002579Y001451D01*
X002566Y001486D01*
X002549Y001520D01*
X002528Y001551D01*
X002504Y001581D01*
X002478Y001607D01*
X002448Y001631D01*
X002417Y001652D01*
X002383Y001669D01*
X002348Y001682D01*
X002311Y001692D01*
X002274Y001698D01*
X002236Y001700D01*
X000596Y001700D01*
X000596Y010700D01*
X002172Y010700D01*
X002211Y010702D01*
X002250Y010707D01*
X002288Y010716D01*
X002325Y010729D01*
X002361Y010744D01*
X002395Y010764D01*
X002428Y010786D01*
X002458Y010811D01*
X002485Y010838D01*
X002510Y010868D01*
X002532Y010901D01*
X002552Y010935D01*
X002567Y010971D01*
X002580Y011008D01*
X002589Y011046D01*
X002594Y011085D01*
X002596Y011124D01*
X002596Y011500D01*
X002598Y011550D01*
X002603Y011600D01*
X002612Y011649D01*
X002624Y011697D01*
X002640Y011745D01*
X002659Y011791D01*
X002682Y011835D01*
X002707Y011878D01*
X002736Y011919D01*
X002767Y011958D01*
X002801Y011995D01*
X002838Y012029D01*
X002877Y012060D01*
X002918Y012089D01*
X002961Y012114D01*
X003005Y012137D01*
X003051Y012156D01*
X003099Y012172D01*
X003147Y012184D01*
X003196Y012193D01*
X003246Y012198D01*
X003296Y012200D01*
X019396Y012200D01*
X019446Y012198D01*
X019496Y012193D01*
X019545Y012184D01*
X019593Y012172D01*
X019641Y012156D01*
X019687Y012137D01*
X019731Y012114D01*
X019774Y012089D01*
X019815Y012060D01*
X019854Y012029D01*
X019891Y011995D01*
X019925Y011958D01*
X019956Y011919D01*
X019985Y011878D01*
X020010Y011835D01*
X020033Y011791D01*
X020052Y011745D01*
X020068Y011697D01*
X020080Y011649D01*
X020089Y011600D01*
X020094Y011550D01*
X020096Y011500D01*
X020096Y000900D01*
X020094Y000850D01*
X020089Y000800D01*
X020080Y000751D01*
X020068Y000703D01*
X020052Y000655D01*
X020033Y000609D01*
X020010Y000565D01*
X019985Y000522D01*
X019956Y000481D01*
X019925Y000442D01*
X019891Y000405D01*
X019854Y000371D01*
X019815Y000340D01*
X019774Y000311D01*
X019731Y000286D01*
X019687Y000263D01*
X019641Y000244D01*
X019593Y000228D01*
X019545Y000216D01*
X019496Y000207D01*
X019446Y000202D01*
X019396Y000200D01*
X002596Y000200D01*
X002596Y001339D01*
X003103Y001731D02*
X003890Y001731D01*
X006001Y001049D02*
X006001Y000914D01*
X006271Y000914D01*
X006271Y001049D01*
X006226Y001094D01*
X006046Y001094D01*
X006001Y001049D01*
X006001Y000800D02*
X006271Y000800D01*
X006001Y000620D01*
X006271Y000620D01*
X006226Y000505D02*
X006136Y000505D01*
X006136Y000415D01*
X006046Y000325D02*
X006226Y000325D01*
X006271Y000370D01*
X006271Y000460D01*
X006226Y000505D01*
X006046Y000505D02*
X006001Y000460D01*
X006001Y000370D01*
X006046Y000325D01*
X007101Y000325D02*
X007236Y000325D01*
X007191Y000415D01*
X007191Y000460D01*
X007236Y000505D01*
X007326Y000505D01*
X007371Y000460D01*
X007371Y000370D01*
X007326Y000325D01*
X007101Y000325D02*
X007101Y000505D01*
X007101Y000620D02*
X007281Y000620D01*
X007371Y000710D01*
X007281Y000800D01*
X007101Y000800D01*
X007146Y000914D02*
X007101Y000959D01*
X007101Y001049D01*
X007146Y001094D01*
X007326Y000914D01*
X007371Y000959D01*
X007371Y001049D01*
X007326Y001094D01*
X007146Y001094D01*
X007146Y000914D02*
X007326Y000914D01*
X007901Y000959D02*
X007901Y001049D01*
X007946Y001094D01*
X007991Y001094D01*
X008036Y001049D01*
X008036Y000959D01*
X007991Y000914D01*
X007946Y000914D01*
X007901Y000959D01*
X008036Y000959D02*
X008081Y000914D01*
X008126Y000914D01*
X008171Y000959D01*
X008171Y001049D01*
X008126Y001094D01*
X008081Y001094D01*
X008036Y001049D01*
X008301Y001004D02*
X008391Y001094D01*
X008571Y001094D01*
X008436Y001094D02*
X008436Y000914D01*
X008391Y000914D02*
X008301Y001004D01*
X008391Y000914D02*
X008571Y000914D01*
X008526Y000800D02*
X008346Y000800D01*
X008301Y000755D01*
X008301Y000620D01*
X008571Y000620D01*
X008571Y000755D01*
X008526Y000800D01*
X008801Y000710D02*
X009071Y000710D01*
X009071Y000620D02*
X009071Y000800D01*
X009026Y000914D02*
X009071Y000959D01*
X009071Y001049D01*
X009026Y001094D01*
X008846Y001094D01*
X008801Y001049D01*
X008801Y000959D01*
X008846Y000914D01*
X008891Y000914D01*
X008936Y000959D01*
X008936Y001094D01*
X009201Y000914D02*
X009471Y000914D01*
X009471Y001094D01*
X009426Y000800D02*
X009471Y000755D01*
X009471Y000665D01*
X009426Y000620D01*
X009246Y000620D01*
X009201Y000665D01*
X009201Y000755D01*
X009246Y000800D01*
X009246Y000505D02*
X009201Y000460D01*
X009201Y000370D01*
X009246Y000325D01*
X009291Y000325D01*
X009336Y000370D01*
X009336Y000460D01*
X009381Y000505D01*
X009426Y000505D01*
X009471Y000460D01*
X009471Y000370D01*
X009426Y000325D01*
X009071Y000325D02*
X009071Y000460D01*
X009026Y000505D01*
X008846Y000505D01*
X008801Y000460D01*
X008801Y000325D01*
X009071Y000325D01*
X008891Y000620D02*
X008801Y000710D01*
X008571Y000460D02*
X008526Y000505D01*
X008481Y000505D01*
X008436Y000460D01*
X008436Y000370D01*
X008391Y000325D01*
X008346Y000325D01*
X008301Y000370D01*
X008301Y000460D01*
X008346Y000505D01*
X008171Y000460D02*
X008126Y000505D01*
X007946Y000505D01*
X007901Y000460D01*
X007901Y000325D01*
X008171Y000325D01*
X008171Y000460D01*
X008171Y000620D02*
X008171Y000800D01*
X008171Y000710D02*
X007901Y000710D01*
X007991Y000620D01*
X008571Y000460D02*
X008571Y000370D01*
X008526Y000325D01*
X009801Y000325D02*
X009801Y000460D01*
X009846Y000505D01*
X010026Y000505D01*
X010071Y000460D01*
X010071Y000325D01*
X009801Y000325D01*
X009891Y000620D02*
X009801Y000710D01*
X010071Y000710D01*
X010071Y000620D02*
X010071Y000800D01*
X010201Y000800D02*
X010471Y000620D01*
X010471Y000800D02*
X010201Y000620D01*
X010201Y000505D02*
X010201Y000325D01*
X010201Y000415D02*
X010471Y000415D01*
X010801Y000460D02*
X010801Y000325D01*
X011071Y000325D01*
X011071Y000460D01*
X011026Y000505D01*
X010846Y000505D01*
X010801Y000460D01*
X010846Y000620D02*
X010801Y000665D01*
X010801Y000755D01*
X010846Y000800D01*
X011026Y000620D01*
X011071Y000665D01*
X011071Y000755D01*
X011026Y000800D01*
X010846Y000800D01*
X010846Y000620D02*
X011026Y000620D01*
X011201Y000620D02*
X011471Y000800D01*
X011426Y000914D02*
X011246Y000914D01*
X011201Y000959D01*
X011201Y001049D01*
X011246Y001094D01*
X011426Y000914D01*
X011471Y000959D01*
X011471Y001049D01*
X011426Y001094D01*
X011246Y001094D01*
X011201Y000800D02*
X011471Y000620D01*
X011471Y000505D02*
X011381Y000415D01*
X011381Y000460D02*
X011381Y000325D01*
X011471Y000325D02*
X011201Y000325D01*
X011201Y000460D01*
X011246Y000505D01*
X011336Y000505D01*
X011381Y000460D01*
X011801Y000460D02*
X011801Y000325D01*
X012071Y000325D01*
X012071Y000460D01*
X012026Y000505D01*
X011846Y000505D01*
X011801Y000460D01*
X011891Y000620D02*
X011801Y000710D01*
X012071Y000710D01*
X012071Y000620D02*
X012071Y000800D01*
X012026Y000914D02*
X011936Y000914D01*
X011936Y001049D01*
X011981Y001094D01*
X012026Y001094D01*
X012071Y001049D01*
X012071Y000959D01*
X012026Y000914D01*
X011936Y000914D02*
X011846Y001004D01*
X011801Y001094D01*
X012201Y001049D02*
X012201Y000959D01*
X012246Y000914D01*
X012291Y000914D01*
X012336Y000959D01*
X012336Y001049D01*
X012381Y001094D01*
X012426Y001094D01*
X012471Y001049D01*
X012471Y000959D01*
X012426Y000914D01*
X012201Y000800D02*
X012201Y000620D01*
X012201Y000710D02*
X012471Y000710D01*
X012426Y000505D02*
X012471Y000460D01*
X012471Y000370D01*
X012426Y000325D01*
X012246Y000325D01*
X012201Y000370D01*
X012201Y000460D01*
X012246Y000505D01*
X012901Y000460D02*
X012901Y000325D01*
X013171Y000325D01*
X013171Y000460D01*
X013126Y000505D01*
X012946Y000505D01*
X012901Y000460D01*
X012946Y000620D02*
X012901Y000665D01*
X012901Y000755D01*
X012946Y000800D01*
X012991Y000800D01*
X013171Y000620D01*
X013171Y000800D01*
X013126Y000914D02*
X012946Y000914D01*
X012901Y000959D01*
X012901Y001049D01*
X012946Y001094D01*
X013126Y000914D01*
X013171Y000959D01*
X013171Y001049D01*
X013126Y001094D01*
X012946Y001094D01*
X013301Y001049D02*
X013301Y000959D01*
X013346Y000914D01*
X013391Y000914D01*
X013436Y000959D01*
X013436Y001049D01*
X013481Y001094D01*
X013526Y001094D01*
X013571Y001049D01*
X013571Y000959D01*
X013526Y000914D01*
X013301Y000800D02*
X013301Y000620D01*
X013301Y000710D02*
X013571Y000710D01*
X013571Y000505D02*
X013481Y000415D01*
X013481Y000460D02*
X013481Y000325D01*
X013571Y000325D02*
X013301Y000325D01*
X013301Y000460D01*
X013346Y000505D01*
X013436Y000505D01*
X013481Y000460D01*
X013801Y000460D02*
X013801Y000325D01*
X014071Y000325D01*
X014071Y000460D01*
X014026Y000505D01*
X013846Y000505D01*
X013801Y000460D01*
X013891Y000620D02*
X013801Y000710D01*
X014071Y000710D01*
X014071Y000620D02*
X014071Y000800D01*
X014071Y000914D02*
X014026Y000914D01*
X013846Y001094D01*
X013801Y001094D01*
X013801Y000914D01*
X014201Y000914D02*
X014201Y001049D01*
X014246Y001094D01*
X014336Y001094D01*
X014381Y001049D01*
X014381Y000914D01*
X014381Y001004D02*
X014471Y001094D01*
X014471Y000914D02*
X014201Y000914D01*
X014201Y000800D02*
X014201Y000620D01*
X014201Y000710D02*
X014471Y000710D01*
X014426Y000505D02*
X014246Y000505D01*
X014201Y000460D01*
X014201Y000325D01*
X014471Y000325D01*
X014471Y000460D01*
X014426Y000505D01*
X014801Y000460D02*
X014801Y000325D01*
X015071Y000325D01*
X015071Y000460D01*
X015026Y000505D01*
X014846Y000505D01*
X014801Y000460D01*
X014846Y000620D02*
X014801Y000665D01*
X014801Y000755D01*
X014846Y000800D01*
X014891Y000800D01*
X015071Y000620D01*
X015071Y000800D01*
X015071Y000914D02*
X015071Y001094D01*
X015071Y001004D02*
X014801Y001004D01*
X014891Y000914D01*
X015201Y000914D02*
X015201Y001049D01*
X015246Y001094D01*
X015336Y001094D01*
X015381Y001049D01*
X015381Y000914D01*
X015381Y001004D02*
X015471Y001094D01*
X015471Y000914D02*
X015201Y000914D01*
X015246Y000800D02*
X015201Y000755D01*
X015201Y000665D01*
X015246Y000620D01*
X015291Y000620D01*
X015336Y000665D01*
X015336Y000755D01*
X015381Y000800D01*
X015426Y000800D01*
X015471Y000755D01*
X015471Y000665D01*
X015426Y000620D01*
X015426Y000505D02*
X015246Y000505D01*
X015201Y000460D01*
X015201Y000325D01*
X015471Y000325D01*
X015471Y000460D01*
X015426Y000505D01*
X015901Y000460D02*
X015901Y000325D01*
X016171Y000325D01*
X016171Y000460D01*
X016126Y000505D01*
X015946Y000505D01*
X015901Y000460D01*
X015946Y000620D02*
X015901Y000665D01*
X015901Y000755D01*
X015946Y000800D01*
X015991Y000800D01*
X016171Y000620D01*
X016171Y000800D01*
X016171Y000914D02*
X015991Y001094D01*
X015946Y001094D01*
X015901Y001049D01*
X015901Y000959D01*
X015946Y000914D01*
X016171Y000914D02*
X016171Y001094D01*
X016301Y001049D02*
X016301Y000914D01*
X016571Y000914D01*
X016571Y001049D01*
X016526Y001094D01*
X016346Y001094D01*
X016301Y001049D01*
X016346Y000800D02*
X016301Y000755D01*
X016301Y000665D01*
X016346Y000620D01*
X016526Y000620D01*
X016571Y000665D01*
X016571Y000755D01*
X016526Y000800D01*
X016526Y000505D02*
X016346Y000505D01*
X016301Y000460D01*
X016301Y000325D01*
X016571Y000325D01*
X016571Y000460D01*
X016526Y000505D01*
X016901Y000460D02*
X016901Y000325D01*
X017171Y000325D01*
X017171Y000460D01*
X017126Y000505D01*
X016946Y000505D01*
X016901Y000460D01*
X016946Y000620D02*
X016901Y000665D01*
X016901Y000755D01*
X016946Y000800D01*
X016991Y000800D01*
X017171Y000620D01*
X017171Y000800D01*
X017126Y000914D02*
X017171Y000959D01*
X017171Y001049D01*
X017126Y001094D01*
X017081Y001094D01*
X017036Y001049D01*
X017036Y001004D01*
X017036Y001049D02*
X016991Y001094D01*
X016946Y001094D01*
X016901Y001049D01*
X016901Y000959D01*
X016946Y000914D01*
X017301Y000710D02*
X017301Y000620D01*
X017301Y000665D02*
X017571Y000665D01*
X017571Y000620D02*
X017571Y000710D01*
X017571Y000505D02*
X017481Y000415D01*
X017481Y000460D02*
X017481Y000325D01*
X017571Y000325D02*
X017301Y000325D01*
X017301Y000460D01*
X017346Y000505D01*
X017436Y000505D01*
X017481Y000460D01*
X017766Y001425D02*
X017812Y001425D01*
X017857Y001470D01*
X017857Y001695D01*
X017812Y001695D02*
X017902Y001695D01*
X018016Y001560D02*
X018196Y001560D01*
X018151Y001425D02*
X018151Y001695D01*
X018016Y001560D01*
X017766Y001425D02*
X017721Y001470D01*
X013346Y001094D02*
X013301Y001049D01*
X012246Y001094D02*
X012201Y001049D01*
X010471Y001049D02*
X010471Y000959D01*
X010426Y000914D01*
X010246Y001094D01*
X010426Y001094D01*
X010471Y001049D01*
X010426Y000914D02*
X010246Y000914D01*
X010201Y000959D01*
X010201Y001049D01*
X010246Y001094D01*
X018601Y004725D02*
X018601Y004905D01*
X018601Y004815D02*
X018871Y004815D01*
X018826Y005020D02*
X018736Y005020D01*
X018691Y005065D01*
X018691Y005155D01*
X018736Y005200D01*
X018781Y005200D01*
X018781Y005020D01*
X018826Y005020D02*
X018871Y005065D01*
X018871Y005155D01*
X018826Y005314D02*
X018736Y005314D01*
X018691Y005359D01*
X018691Y005449D01*
X018736Y005494D01*
X018781Y005494D01*
X018781Y005314D01*
X018826Y005314D02*
X018871Y005359D01*
X018871Y005449D01*
X018871Y005609D02*
X018691Y005609D01*
X018691Y005744D01*
X018736Y005789D01*
X018871Y005789D01*
X018871Y005904D02*
X018871Y006039D01*
X018826Y006084D01*
X018781Y006039D01*
X018781Y005949D01*
X018736Y005904D01*
X018691Y005949D01*
X018691Y006084D01*
X018691Y006198D02*
X018826Y006198D01*
X018871Y006243D01*
X018871Y006378D01*
X018916Y006378D02*
X018691Y006378D01*
X018916Y006378D02*
X018962Y006333D01*
X018962Y006288D01*
X018826Y006788D02*
X018871Y006833D01*
X018871Y006923D01*
X018826Y006968D01*
X018781Y006968D01*
X018736Y006923D01*
X018736Y006878D01*
X018736Y006923D02*
X018691Y006968D01*
X018646Y006968D01*
X018601Y006923D01*
X018601Y006833D01*
X018646Y006788D01*
X018826Y007082D02*
X018826Y007127D01*
X018871Y007127D01*
X018871Y007082D01*
X018826Y007082D01*
X018871Y007230D02*
X018601Y007410D01*
X018601Y007230D02*
X018871Y007410D01*
X017190Y008069D02*
X016403Y008069D01*
X017866Y010425D02*
X017821Y010470D01*
X017866Y010425D02*
X017912Y010425D01*
X017957Y010470D01*
X017957Y010695D01*
X017912Y010695D02*
X018002Y010695D01*
X018116Y010695D02*
X018116Y010560D01*
X018206Y010605D01*
X018251Y010605D01*
X018296Y010560D01*
X018296Y010470D01*
X018251Y010425D01*
X018161Y010425D01*
X018116Y010470D01*
X018116Y010695D02*
X018296Y010695D01*
X017491Y011339D02*
X017491Y011429D01*
X017491Y011384D02*
X017221Y011384D01*
X017221Y011339D02*
X017221Y011429D01*
X017266Y011536D02*
X017221Y011581D01*
X017221Y011671D01*
X017266Y011716D01*
X017446Y011716D01*
X017491Y011671D01*
X017491Y011581D01*
X017446Y011536D01*
X017266Y011536D01*
X017091Y011536D02*
X017091Y011671D01*
X017046Y011716D01*
X016866Y011716D01*
X016821Y011671D01*
X016821Y011536D01*
X017091Y011536D01*
X017091Y011830D02*
X016911Y012011D01*
X016866Y012011D01*
X016821Y011965D01*
X016821Y011875D01*
X016866Y011830D01*
X017091Y011830D02*
X017091Y012011D01*
X017221Y011965D02*
X017221Y011875D01*
X017266Y011830D01*
X017221Y011965D02*
X017266Y012011D01*
X017311Y012011D01*
X017491Y011830D01*
X017491Y012011D01*
X016491Y012011D02*
X016491Y011830D01*
X016491Y011920D02*
X016221Y011920D01*
X016311Y011830D01*
X016266Y011716D02*
X016221Y011671D01*
X016221Y011581D01*
X016266Y011536D01*
X016446Y011536D01*
X016491Y011581D01*
X016491Y011671D01*
X016446Y011716D01*
X016266Y011716D01*
X016091Y011671D02*
X016046Y011716D01*
X015866Y011716D01*
X015821Y011671D01*
X015821Y011536D01*
X016091Y011536D01*
X016091Y011671D01*
X016046Y011830D02*
X016091Y011875D01*
X016091Y011965D01*
X016046Y012011D01*
X016001Y012011D01*
X015956Y011965D01*
X015956Y011920D01*
X015956Y011965D02*
X015911Y012011D01*
X015866Y012011D01*
X015821Y011965D01*
X015821Y011875D01*
X015866Y011830D01*
X015491Y011830D02*
X015311Y012011D01*
X015266Y012011D01*
X015221Y011965D01*
X015221Y011875D01*
X015266Y011830D01*
X015266Y011716D02*
X015221Y011671D01*
X015221Y011581D01*
X015266Y011536D01*
X015311Y011536D01*
X015356Y011581D01*
X015356Y011671D01*
X015401Y011716D01*
X015446Y011716D01*
X015491Y011671D01*
X015491Y011581D01*
X015446Y011536D01*
X015446Y011421D02*
X015491Y011376D01*
X015491Y011286D01*
X015446Y011241D01*
X015356Y011286D02*
X015356Y011376D01*
X015401Y011421D01*
X015446Y011421D01*
X015266Y011421D02*
X015221Y011376D01*
X015221Y011286D01*
X015266Y011241D01*
X015311Y011241D01*
X015356Y011286D01*
X015091Y011536D02*
X014821Y011536D01*
X014821Y011671D01*
X014866Y011716D01*
X015046Y011716D01*
X015091Y011671D01*
X015091Y011536D01*
X014956Y011830D02*
X014956Y012011D01*
X014821Y011965D02*
X014956Y011830D01*
X015091Y011965D02*
X014821Y011965D01*
X014491Y011920D02*
X014221Y011920D01*
X014311Y011830D01*
X014266Y011716D02*
X014221Y011671D01*
X014221Y011581D01*
X014266Y011536D01*
X014311Y011536D01*
X014356Y011581D01*
X014356Y011671D01*
X014401Y011716D01*
X014446Y011716D01*
X014491Y011671D01*
X014491Y011581D01*
X014446Y011536D01*
X014446Y011421D02*
X014491Y011376D01*
X014491Y011286D01*
X014446Y011241D01*
X014356Y011286D02*
X014356Y011376D01*
X014401Y011421D01*
X014446Y011421D01*
X014266Y011421D02*
X014221Y011376D01*
X014221Y011286D01*
X014266Y011241D01*
X014311Y011241D01*
X014356Y011286D01*
X014091Y011536D02*
X013821Y011536D01*
X013821Y011671D01*
X013866Y011716D01*
X014046Y011716D01*
X014091Y011671D01*
X014091Y011536D01*
X014046Y011830D02*
X014091Y011875D01*
X014091Y011965D01*
X014046Y012011D01*
X013956Y012011D01*
X013911Y011965D01*
X013911Y011920D01*
X013956Y011830D01*
X013821Y011830D01*
X013821Y012011D01*
X013491Y012011D02*
X013401Y011920D01*
X013446Y011830D02*
X013266Y011830D01*
X013221Y011875D01*
X013221Y011965D01*
X013266Y012011D01*
X013446Y012011D01*
X013491Y011965D01*
X013491Y011875D01*
X013446Y011830D01*
X013491Y011716D02*
X013401Y011626D01*
X013401Y011671D02*
X013356Y011716D01*
X013266Y011716D01*
X013221Y011671D01*
X013221Y011536D01*
X013491Y011536D01*
X013401Y011536D02*
X013401Y011671D01*
X013491Y011429D02*
X013491Y011339D01*
X013491Y011384D02*
X013221Y011384D01*
X013221Y011339D02*
X013221Y011429D01*
X013091Y011376D02*
X013046Y011421D01*
X012866Y011421D01*
X012821Y011376D01*
X012821Y011241D01*
X013091Y011241D01*
X013091Y011376D01*
X013091Y011536D02*
X013091Y011716D01*
X013091Y011626D02*
X012821Y011626D01*
X012911Y011536D01*
X012491Y011626D02*
X012221Y011626D01*
X012221Y011536D02*
X012221Y011716D01*
X012221Y011830D02*
X012491Y012011D01*
X012221Y012011D01*
X012091Y011965D02*
X012091Y011875D01*
X012046Y011830D01*
X011956Y011830D01*
X011956Y011965D01*
X012001Y012011D01*
X012046Y012011D01*
X012091Y011965D01*
X012221Y011830D02*
X012491Y011830D01*
X012821Y011830D02*
X012956Y011830D01*
X012911Y011920D01*
X012911Y011965D01*
X012956Y012011D01*
X013046Y012011D01*
X013091Y011965D01*
X013091Y011875D01*
X013046Y011830D01*
X012821Y011830D02*
X012821Y012011D01*
X012491Y011421D02*
X012311Y011421D01*
X012221Y011331D01*
X012311Y011241D01*
X012491Y011241D01*
X012356Y011241D02*
X012356Y011421D01*
X012091Y011536D02*
X012091Y011671D01*
X012046Y011716D01*
X011866Y011716D01*
X011821Y011671D01*
X011821Y011536D01*
X012091Y011536D01*
X011591Y011581D02*
X011591Y011671D01*
X011546Y011716D01*
X011546Y011830D02*
X011591Y011875D01*
X011591Y011965D01*
X011546Y012011D01*
X011501Y012011D01*
X011456Y011965D01*
X011456Y011875D01*
X011411Y011830D01*
X011366Y011830D01*
X011321Y011875D01*
X011321Y011965D01*
X011366Y012011D01*
X011221Y012100D02*
X011221Y011511D01*
X011321Y011581D02*
X011366Y011536D01*
X011546Y011536D01*
X011591Y011581D01*
X011366Y011716D02*
X011321Y011671D01*
X011321Y011581D01*
X011091Y011626D02*
X010821Y011626D01*
X010911Y011536D01*
X010866Y011421D02*
X010821Y011376D01*
X010821Y011241D01*
X011091Y011241D01*
X011091Y011376D01*
X011046Y011421D01*
X010866Y011421D01*
X011091Y011536D02*
X011091Y011716D01*
X011046Y011830D02*
X010866Y011830D01*
X010821Y011875D01*
X010821Y011965D01*
X010866Y012011D01*
X011046Y011830D01*
X011091Y011875D01*
X011091Y011965D01*
X011046Y012011D01*
X010866Y012011D01*
X010491Y012011D02*
X010356Y011875D01*
X010401Y011830D02*
X010221Y012011D01*
X010091Y011965D02*
X010091Y011875D01*
X010046Y011830D01*
X010091Y011716D02*
X010091Y011536D01*
X010091Y011626D02*
X009821Y011626D01*
X009911Y011536D01*
X009866Y011421D02*
X009821Y011376D01*
X009821Y011241D01*
X010091Y011241D01*
X010091Y011376D01*
X010046Y011421D01*
X009866Y011421D01*
X010221Y011376D02*
X010221Y011286D01*
X010266Y011241D01*
X010311Y011241D01*
X010356Y011286D01*
X010356Y011376D01*
X010401Y011421D01*
X010446Y011421D01*
X010491Y011376D01*
X010491Y011286D01*
X010446Y011241D01*
X010266Y011421D02*
X010221Y011376D01*
X010266Y011536D02*
X010446Y011536D01*
X010491Y011581D01*
X010491Y011671D01*
X010446Y011716D01*
X010491Y011830D02*
X010221Y011830D01*
X010266Y011716D02*
X010221Y011671D01*
X010221Y011581D01*
X010266Y011536D01*
X009866Y011830D02*
X009821Y011875D01*
X009821Y011965D01*
X009866Y012011D01*
X009911Y012011D01*
X009956Y011965D01*
X010001Y012011D01*
X010046Y012011D01*
X010091Y011965D01*
X009956Y011965D02*
X009956Y011920D01*
X009491Y011875D02*
X009446Y011830D01*
X009491Y011875D02*
X009491Y011965D01*
X009446Y012011D01*
X009401Y012011D01*
X009356Y011965D01*
X009356Y011875D01*
X009311Y011830D01*
X009266Y011830D01*
X009221Y011875D01*
X009221Y011965D01*
X009266Y012011D01*
X009091Y012011D02*
X009091Y011830D01*
X009091Y011920D02*
X008821Y011920D01*
X008911Y011830D01*
X009091Y011716D02*
X009091Y011536D01*
X009091Y011626D02*
X008821Y011626D01*
X008911Y011536D01*
X008866Y011421D02*
X008821Y011376D01*
X008821Y011241D01*
X009091Y011241D01*
X009091Y011376D01*
X009046Y011421D01*
X008866Y011421D01*
X009221Y011339D02*
X009311Y011429D01*
X009221Y011519D01*
X009491Y011519D01*
X009491Y011634D02*
X009491Y011724D01*
X009491Y011679D02*
X009221Y011679D01*
X009221Y011634D02*
X009221Y011724D01*
X009221Y011339D02*
X009491Y011339D01*
X008491Y011421D02*
X008221Y011421D01*
X008311Y011331D01*
X008221Y011241D01*
X008491Y011241D01*
X008446Y011536D02*
X008266Y011536D01*
X008221Y011581D01*
X008221Y011671D01*
X008266Y011716D01*
X008446Y011716D01*
X008491Y011671D01*
X008491Y011581D01*
X008446Y011536D01*
X008091Y011536D02*
X008091Y011716D01*
X008091Y011626D02*
X007821Y011626D01*
X007911Y011536D01*
X007866Y011421D02*
X007821Y011376D01*
X007821Y011241D01*
X008091Y011241D01*
X008091Y011376D01*
X008046Y011421D01*
X007866Y011421D01*
X007866Y011830D02*
X007821Y011875D01*
X007821Y011965D01*
X007866Y012011D01*
X007911Y012011D01*
X008091Y011830D01*
X008091Y012011D01*
X008221Y011965D02*
X008221Y011875D01*
X008266Y011830D01*
X008311Y011830D01*
X008356Y011875D01*
X008356Y011965D01*
X008401Y012011D01*
X008446Y012011D01*
X008491Y011965D01*
X008491Y011875D01*
X008446Y011830D01*
X008266Y012011D02*
X008221Y011965D01*
X007291Y011965D02*
X007291Y011875D01*
X007246Y011830D01*
X007201Y011716D02*
X007021Y011716D01*
X007066Y011830D02*
X007021Y011875D01*
X007021Y011965D01*
X007066Y012011D01*
X007111Y012011D01*
X007156Y011965D01*
X007201Y012011D01*
X007246Y012011D01*
X007291Y011965D01*
X007156Y011965D02*
X007156Y011920D01*
X007201Y011716D02*
X007291Y011626D01*
X007201Y011536D01*
X007021Y011536D01*
X007066Y011421D02*
X007111Y011421D01*
X007156Y011376D01*
X007201Y011421D01*
X007246Y011421D01*
X007291Y011376D01*
X007291Y011286D01*
X007246Y011241D01*
X007156Y011331D02*
X007156Y011376D01*
X007066Y011421D02*
X007021Y011376D01*
X007021Y011286D01*
X007066Y011241D01*
X006291Y011286D02*
X006291Y011376D01*
X006246Y011421D01*
X006156Y011421D01*
X006156Y011331D01*
X006066Y011241D02*
X006246Y011241D01*
X006291Y011286D01*
X006066Y011241D02*
X006021Y011286D01*
X006021Y011376D01*
X006066Y011421D01*
X006021Y011536D02*
X006291Y011716D01*
X006021Y011716D01*
X006021Y011830D02*
X006021Y011965D01*
X006066Y012011D01*
X006246Y012011D01*
X006291Y011965D01*
X006291Y011830D01*
X006021Y011830D01*
X006021Y011536D02*
X006291Y011536D01*
X011821Y012011D02*
X011866Y011920D01*
X011956Y011830D01*
X014491Y011830D02*
X014491Y012011D01*
X015491Y012011D02*
X015491Y011830D01*
X016221Y011429D02*
X016221Y011339D01*
X016221Y011384D02*
X016491Y011384D01*
X016491Y011339D02*
X016491Y011429D01*
X003890Y006731D02*
X003103Y006731D01*
D12*
X009926Y005570D02*
X010153Y005570D01*
X010040Y005570D02*
X010040Y005230D01*
X010295Y005287D02*
X010351Y005230D01*
X010465Y005230D01*
X010522Y005287D01*
X010522Y005343D01*
X010465Y005400D01*
X010351Y005400D01*
X010295Y005457D01*
X010295Y005514D01*
X010351Y005570D01*
X010465Y005570D01*
X010522Y005514D01*
X010663Y005514D02*
X010663Y005287D01*
X010720Y005230D01*
X010833Y005230D01*
X010890Y005287D01*
X010890Y005514D01*
X010833Y005570D01*
X010720Y005570D01*
X010663Y005514D01*
X011031Y005514D02*
X011031Y005287D01*
X011088Y005230D01*
X011202Y005230D01*
X011258Y005287D01*
X011400Y005173D02*
X011627Y005173D01*
X011881Y005230D02*
X011881Y005570D01*
X011768Y005570D02*
X011995Y005570D01*
X012136Y005570D02*
X012136Y005230D01*
X012363Y005230D01*
X012505Y005230D02*
X012732Y005230D01*
X012873Y005230D02*
X012873Y005570D01*
X013100Y005230D01*
X013100Y005570D01*
X013241Y005514D02*
X013241Y005457D01*
X013298Y005400D01*
X013411Y005400D01*
X013468Y005343D01*
X013468Y005287D01*
X013411Y005230D01*
X013298Y005230D01*
X013241Y005287D01*
X013241Y005514D02*
X013298Y005570D01*
X013411Y005570D01*
X013468Y005514D01*
X013610Y005514D02*
X013723Y005400D01*
X013723Y005230D01*
X013723Y005400D02*
X013836Y005514D01*
X013836Y005570D01*
X013978Y005514D02*
X014035Y005570D01*
X014148Y005570D01*
X014205Y005514D01*
X014205Y005457D01*
X014148Y005400D01*
X014205Y005343D01*
X014205Y005287D01*
X014148Y005230D01*
X014035Y005230D01*
X013978Y005287D01*
X014091Y005400D02*
X014148Y005400D01*
X014346Y005457D02*
X014573Y005230D01*
X014346Y005230D02*
X014573Y005457D01*
X013610Y005514D02*
X013610Y005570D01*
X012732Y005570D02*
X012505Y005570D01*
X012505Y005230D01*
X012505Y005400D02*
X012618Y005400D01*
X012363Y005570D02*
X012136Y005570D01*
X012136Y005400D02*
X012250Y005400D01*
X011258Y005514D02*
X011202Y005570D01*
X011088Y005570D01*
X011031Y005514D01*
D13*
X016206Y004131D02*
X016206Y008069D01*
X017426Y008069D01*
X017426Y004131D01*
X020104Y004131D01*
X020104Y004998D01*
X019710Y004998D01*
X019710Y007202D01*
X020104Y007202D01*
X020104Y008069D01*
X017426Y008069D01*
X017696Y010300D02*
X017696Y011100D01*
X005696Y011100D01*
X005696Y010300D01*
X017696Y010300D01*
X017426Y004131D02*
X016206Y004131D01*
X017596Y002100D02*
X005796Y002100D01*
X005796Y001300D01*
X017596Y001300D01*
X017596Y002100D01*
X004087Y001731D02*
X004087Y005669D01*
X002867Y005669D01*
X002867Y001731D01*
X004087Y001731D01*
X002867Y001731D02*
X000189Y001731D01*
X000189Y002598D01*
X000583Y002598D01*
X000583Y004802D01*
X000189Y004802D01*
X000189Y005669D01*
X002867Y005669D01*
X002867Y006731D02*
X002867Y010669D01*
X000189Y010669D01*
X000189Y009802D01*
X000583Y009802D01*
X000583Y007598D01*
X000189Y007598D01*
X000189Y006731D01*
X002867Y006731D01*
X004087Y006731D01*
X004087Y010669D01*
X002867Y010669D01*
D14*
X002952Y011450D02*
X002954Y011489D01*
X002960Y011528D01*
X002970Y011566D01*
X002983Y011603D01*
X003000Y011638D01*
X003020Y011672D01*
X003044Y011703D01*
X003071Y011732D01*
X003100Y011758D01*
X003132Y011781D01*
X003166Y011801D01*
X003202Y011817D01*
X003239Y011829D01*
X003278Y011838D01*
X003317Y011843D01*
X003356Y011844D01*
X003395Y011841D01*
X003434Y011834D01*
X003471Y011823D01*
X003508Y011809D01*
X003543Y011791D01*
X003576Y011770D01*
X003607Y011745D01*
X003635Y011718D01*
X003660Y011688D01*
X003682Y011655D01*
X003701Y011621D01*
X003716Y011585D01*
X003728Y011547D01*
X003736Y011509D01*
X003740Y011470D01*
X003740Y011430D01*
X003736Y011391D01*
X003728Y011353D01*
X003716Y011315D01*
X003701Y011279D01*
X003682Y011245D01*
X003660Y011212D01*
X003635Y011182D01*
X003607Y011155D01*
X003576Y011130D01*
X003543Y011109D01*
X003508Y011091D01*
X003471Y011077D01*
X003434Y011066D01*
X003395Y011059D01*
X003356Y011056D01*
X003317Y011057D01*
X003278Y011062D01*
X003239Y011071D01*
X003202Y011083D01*
X003166Y011099D01*
X003132Y011119D01*
X003100Y011142D01*
X003071Y011168D01*
X003044Y011197D01*
X003020Y011228D01*
X003000Y011262D01*
X002983Y011297D01*
X002970Y011334D01*
X002960Y011372D01*
X002954Y011411D01*
X002952Y011450D01*
X018952Y011450D02*
X018954Y011489D01*
X018960Y011528D01*
X018970Y011566D01*
X018983Y011603D01*
X019000Y011638D01*
X019020Y011672D01*
X019044Y011703D01*
X019071Y011732D01*
X019100Y011758D01*
X019132Y011781D01*
X019166Y011801D01*
X019202Y011817D01*
X019239Y011829D01*
X019278Y011838D01*
X019317Y011843D01*
X019356Y011844D01*
X019395Y011841D01*
X019434Y011834D01*
X019471Y011823D01*
X019508Y011809D01*
X019543Y011791D01*
X019576Y011770D01*
X019607Y011745D01*
X019635Y011718D01*
X019660Y011688D01*
X019682Y011655D01*
X019701Y011621D01*
X019716Y011585D01*
X019728Y011547D01*
X019736Y011509D01*
X019740Y011470D01*
X019740Y011430D01*
X019736Y011391D01*
X019728Y011353D01*
X019716Y011315D01*
X019701Y011279D01*
X019682Y011245D01*
X019660Y011212D01*
X019635Y011182D01*
X019607Y011155D01*
X019576Y011130D01*
X019543Y011109D01*
X019508Y011091D01*
X019471Y011077D01*
X019434Y011066D01*
X019395Y011059D01*
X019356Y011056D01*
X019317Y011057D01*
X019278Y011062D01*
X019239Y011071D01*
X019202Y011083D01*
X019166Y011099D01*
X019132Y011119D01*
X019100Y011142D01*
X019071Y011168D01*
X019044Y011197D01*
X019020Y011228D01*
X019000Y011262D01*
X018983Y011297D01*
X018970Y011334D01*
X018960Y011372D01*
X018954Y011411D01*
X018952Y011450D01*
X018952Y000950D02*
X018954Y000989D01*
X018960Y001028D01*
X018970Y001066D01*
X018983Y001103D01*
X019000Y001138D01*
X019020Y001172D01*
X019044Y001203D01*
X019071Y001232D01*
X019100Y001258D01*
X019132Y001281D01*
X019166Y001301D01*
X019202Y001317D01*
X019239Y001329D01*
X019278Y001338D01*
X019317Y001343D01*
X019356Y001344D01*
X019395Y001341D01*
X019434Y001334D01*
X019471Y001323D01*
X019508Y001309D01*
X019543Y001291D01*
X019576Y001270D01*
X019607Y001245D01*
X019635Y001218D01*
X019660Y001188D01*
X019682Y001155D01*
X019701Y001121D01*
X019716Y001085D01*
X019728Y001047D01*
X019736Y001009D01*
X019740Y000970D01*
X019740Y000930D01*
X019736Y000891D01*
X019728Y000853D01*
X019716Y000815D01*
X019701Y000779D01*
X019682Y000745D01*
X019660Y000712D01*
X019635Y000682D01*
X019607Y000655D01*
X019576Y000630D01*
X019543Y000609D01*
X019508Y000591D01*
X019471Y000577D01*
X019434Y000566D01*
X019395Y000559D01*
X019356Y000556D01*
X019317Y000557D01*
X019278Y000562D01*
X019239Y000571D01*
X019202Y000583D01*
X019166Y000599D01*
X019132Y000619D01*
X019100Y000642D01*
X019071Y000668D01*
X019044Y000697D01*
X019020Y000728D01*
X019000Y000762D01*
X018983Y000797D01*
X018970Y000834D01*
X018960Y000872D01*
X018954Y000911D01*
X018952Y000950D01*
X002952Y000950D02*
X002954Y000989D01*
X002960Y001028D01*
X002970Y001066D01*
X002983Y001103D01*
X003000Y001138D01*
X003020Y001172D01*
X003044Y001203D01*
X003071Y001232D01*
X003100Y001258D01*
X003132Y001281D01*
X003166Y001301D01*
X003202Y001317D01*
X003239Y001329D01*
X003278Y001338D01*
X003317Y001343D01*
X003356Y001344D01*
X003395Y001341D01*
X003434Y001334D01*
X003471Y001323D01*
X003508Y001309D01*
X003543Y001291D01*
X003576Y001270D01*
X003607Y001245D01*
X003635Y001218D01*
X003660Y001188D01*
X003682Y001155D01*
X003701Y001121D01*
X003716Y001085D01*
X003728Y001047D01*
X003736Y001009D01*
X003740Y000970D01*
X003740Y000930D01*
X003736Y000891D01*
X003728Y000853D01*
X003716Y000815D01*
X003701Y000779D01*
X003682Y000745D01*
X003660Y000712D01*
X003635Y000682D01*
X003607Y000655D01*
X003576Y000630D01*
X003543Y000609D01*
X003508Y000591D01*
X003471Y000577D01*
X003434Y000566D01*
X003395Y000559D01*
X003356Y000556D01*
X003317Y000557D01*
X003278Y000562D01*
X003239Y000571D01*
X003202Y000583D01*
X003166Y000599D01*
X003132Y000619D01*
X003100Y000642D01*
X003071Y000668D01*
X003044Y000697D01*
X003020Y000728D01*
X003000Y000762D01*
X002983Y000797D01*
X002970Y000834D01*
X002960Y000872D01*
X002954Y000911D01*
X002952Y000950D01*
D15*
X002920Y005820D02*
X002972Y005872D01*
X002972Y006130D01*
X003023Y006130D02*
X002920Y006130D01*
X003139Y006027D02*
X003242Y006130D01*
X003242Y005820D01*
X003139Y005820D02*
X003346Y005820D01*
X002920Y005820D02*
X002868Y005820D01*
X002816Y005872D01*
X003616Y006272D02*
X003668Y006220D01*
X003720Y006220D01*
X003772Y006272D01*
X003772Y006530D01*
X003823Y006530D02*
X003720Y006530D01*
X003939Y006479D02*
X003990Y006530D01*
X004094Y006530D01*
X004146Y006479D01*
X004146Y006427D01*
X003939Y006220D01*
X004146Y006220D01*
X016566Y008322D02*
X016618Y008270D01*
X016670Y008270D01*
X016722Y008322D01*
X016722Y008580D01*
X016773Y008580D02*
X016670Y008580D01*
X016889Y008529D02*
X016940Y008580D01*
X017044Y008580D01*
X017096Y008529D01*
X017096Y008477D01*
X017044Y008425D01*
X017096Y008373D01*
X017096Y008322D01*
X017044Y008270D01*
X016940Y008270D01*
X016889Y008322D01*
X016992Y008425D02*
X017044Y008425D01*
D16*
X009096Y004420D03*
X008846Y004670D03*
X008596Y004920D03*
X008256Y005780D03*
X008846Y005930D03*
X008506Y006790D03*
X008566Y007120D03*
X008016Y007280D03*
X008566Y007880D03*
D17*
X008566Y007870D03*
X008016Y007270D03*
X008566Y007130D03*
X008506Y006780D03*
X008846Y005920D03*
X008256Y005790D03*
X008596Y004930D03*
X008846Y004680D03*
X009096Y004430D03*
X011966Y006300D03*
X011206Y006710D03*
X010076Y007010D03*
D18*
X010316Y006710D03*
X009616Y006800D03*
X009616Y006810D03*
X008896Y006250D03*
X008846Y005910D03*
X008256Y005800D03*
X008216Y005450D03*
X008216Y005150D03*
X008596Y004940D03*
X008846Y004690D03*
X009096Y004440D03*
X011946Y006260D03*
X011956Y006280D03*
X011446Y006710D03*
X008566Y007140D03*
X008506Y006770D03*
X008016Y007260D03*
X008176Y007650D03*
X008566Y007860D03*
X014506Y006730D03*
X014506Y006720D03*
X014506Y006710D03*
X014506Y006700D03*
X014506Y006340D03*
X014506Y006330D03*
X014506Y006320D03*
X014506Y006310D03*
X014506Y006300D03*
D19*
X014496Y006240D03*
X014496Y006230D03*
X014496Y006220D03*
X014496Y006210D03*
X014496Y006200D03*
X014496Y006800D03*
X014496Y006810D03*
X014496Y006820D03*
X014496Y006830D03*
X012956Y006820D03*
X012956Y006810D03*
X012956Y006800D03*
X012956Y006790D03*
X012956Y006780D03*
X012956Y006770D03*
X012526Y006280D03*
X012526Y006270D03*
X012526Y006260D03*
X012526Y006250D03*
X012526Y006240D03*
X012526Y006230D03*
X012526Y006220D03*
X012526Y006210D03*
X011946Y006240D03*
X010806Y006690D03*
X009606Y006760D03*
X009606Y006770D03*
X009656Y006090D03*
X008846Y005900D03*
X008596Y005650D03*
X008256Y005810D03*
X008506Y006060D03*
X008506Y006760D03*
X008566Y007150D03*
X008016Y007250D03*
X008566Y007850D03*
X008596Y004950D03*
X008846Y004700D03*
X009096Y004450D03*
D20*
X009096Y004460D03*
X008846Y004710D03*
X008596Y004960D03*
X008216Y005160D03*
X008216Y005440D03*
X008596Y005640D03*
X008846Y005890D03*
X008506Y006070D03*
X008256Y005820D03*
X009596Y006720D03*
X009596Y006730D03*
X010046Y006990D03*
X011176Y006690D03*
X011886Y006100D03*
X011896Y006110D03*
X012236Y005930D03*
X013456Y006090D03*
X013466Y006710D03*
X012946Y006840D03*
X014486Y006180D03*
X008016Y007240D03*
D21*
X008016Y007230D03*
X009586Y006600D03*
X009586Y006590D03*
X009586Y006580D03*
X009586Y006570D03*
X009586Y006560D03*
X009586Y006550D03*
X009586Y006540D03*
X009586Y006530D03*
X009586Y006520D03*
X009586Y006510D03*
X009586Y006500D03*
X009586Y006490D03*
X009586Y006480D03*
X009586Y006470D03*
X009586Y006460D03*
X009586Y006450D03*
X009586Y006440D03*
X009586Y006430D03*
X009586Y006420D03*
X009586Y006410D03*
X009586Y006400D03*
X009586Y006390D03*
X009586Y006380D03*
X009586Y006370D03*
X009586Y006360D03*
X009586Y006350D03*
X009586Y006340D03*
X009586Y006330D03*
X009586Y006320D03*
X009586Y006310D03*
X009586Y006300D03*
X009586Y006290D03*
X009586Y006280D03*
X009586Y006270D03*
X009586Y006260D03*
X009586Y006250D03*
X009586Y006240D03*
X010036Y006240D03*
X010036Y006250D03*
X010036Y006260D03*
X010036Y006270D03*
X010036Y006280D03*
X010036Y006290D03*
X010036Y006300D03*
X010036Y006310D03*
X010036Y006320D03*
X010036Y006330D03*
X010036Y006340D03*
X010036Y006350D03*
X010036Y006360D03*
X010036Y006370D03*
X010036Y006380D03*
X010036Y006390D03*
X010036Y006400D03*
X010036Y006410D03*
X010036Y006420D03*
X010036Y006430D03*
X010036Y006440D03*
X010036Y006450D03*
X010036Y006460D03*
X010036Y006470D03*
X010036Y006480D03*
X010036Y006490D03*
X010036Y006500D03*
X010036Y006510D03*
X010036Y006520D03*
X010036Y006530D03*
X010036Y006540D03*
X010036Y006550D03*
X010036Y006560D03*
X010036Y006570D03*
X010036Y006580D03*
X010036Y006650D03*
X010036Y006660D03*
X010036Y006670D03*
X010036Y006680D03*
X010036Y006690D03*
X010036Y006700D03*
X010036Y006710D03*
X010036Y006720D03*
X010036Y006730D03*
X010036Y006740D03*
X010036Y006750D03*
X010036Y006760D03*
X010036Y006770D03*
X010036Y006780D03*
X010036Y006790D03*
X010036Y006800D03*
X010036Y006810D03*
X010036Y006820D03*
X010036Y006830D03*
X010036Y006840D03*
X010036Y006850D03*
X010036Y006860D03*
X010036Y006870D03*
X010036Y006880D03*
X010036Y006890D03*
X010036Y006900D03*
X010316Y006700D03*
X010406Y006520D03*
X010406Y006510D03*
X010406Y006500D03*
X010406Y006490D03*
X010406Y006480D03*
X010406Y006470D03*
X010406Y006460D03*
X010406Y006450D03*
X010406Y006440D03*
X010406Y006430D03*
X010406Y006420D03*
X010406Y006410D03*
X010406Y006400D03*
X010406Y006390D03*
X010406Y006380D03*
X010406Y006370D03*
X010406Y006360D03*
X010406Y006350D03*
X010406Y006340D03*
X010406Y006330D03*
X010406Y006320D03*
X010406Y006310D03*
X010406Y006300D03*
X010406Y006290D03*
X010406Y006280D03*
X010406Y006270D03*
X010406Y006260D03*
X010406Y006250D03*
X010406Y006240D03*
X010406Y006230D03*
X010406Y006220D03*
X010406Y006210D03*
X010406Y006200D03*
X010406Y006190D03*
X010406Y006180D03*
X010406Y006170D03*
X010036Y006170D03*
X010036Y006180D03*
X010036Y006190D03*
X010036Y006200D03*
X010036Y006210D03*
X010036Y006220D03*
X010036Y006230D03*
X010786Y006230D03*
X010786Y006240D03*
X010786Y006250D03*
X010786Y006260D03*
X010786Y006270D03*
X010786Y006280D03*
X010786Y006290D03*
X010786Y006300D03*
X010786Y006310D03*
X010786Y006320D03*
X010786Y006330D03*
X010786Y006340D03*
X010786Y006350D03*
X010786Y006360D03*
X010786Y006370D03*
X010786Y006380D03*
X010786Y006390D03*
X010786Y006400D03*
X010786Y006410D03*
X010786Y006420D03*
X010786Y006430D03*
X010786Y006440D03*
X010786Y006450D03*
X010786Y006460D03*
X010786Y006470D03*
X010786Y006480D03*
X010786Y006490D03*
X010786Y006500D03*
X010786Y006510D03*
X010786Y006520D03*
X010786Y006530D03*
X010786Y006540D03*
X010786Y006550D03*
X010786Y006560D03*
X010786Y006570D03*
X010786Y006580D03*
X010786Y006590D03*
X010786Y006600D03*
X011166Y006580D03*
X011166Y006570D03*
X011166Y006560D03*
X011166Y006550D03*
X011166Y006540D03*
X011166Y006530D03*
X011166Y006520D03*
X011166Y006510D03*
X011166Y006500D03*
X011166Y006490D03*
X011166Y006480D03*
X011166Y006470D03*
X011166Y006460D03*
X011166Y006450D03*
X011166Y006440D03*
X011166Y006430D03*
X011166Y006420D03*
X011166Y006410D03*
X011166Y006400D03*
X011166Y006390D03*
X011166Y006380D03*
X011166Y006370D03*
X011166Y006360D03*
X011166Y006350D03*
X011166Y006340D03*
X011166Y006330D03*
X011166Y006320D03*
X011166Y006310D03*
X011166Y006300D03*
X011166Y006290D03*
X011166Y006280D03*
X011166Y006270D03*
X011166Y006260D03*
X011166Y006250D03*
X011166Y006240D03*
X011166Y006230D03*
X011166Y006220D03*
X011166Y006210D03*
X011166Y006200D03*
X011166Y006190D03*
X011166Y006180D03*
X011166Y006170D03*
X011536Y006170D03*
X011536Y006180D03*
X011536Y006190D03*
X011536Y006200D03*
X011536Y006210D03*
X011536Y006220D03*
X011536Y006230D03*
X011536Y006240D03*
X011536Y006250D03*
X011536Y006260D03*
X011536Y006270D03*
X011536Y006280D03*
X011536Y006290D03*
X011536Y006300D03*
X011536Y006310D03*
X011536Y006320D03*
X011536Y006330D03*
X011536Y006340D03*
X011536Y006350D03*
X011536Y006360D03*
X011536Y006370D03*
X011536Y006380D03*
X011536Y006390D03*
X011536Y006400D03*
X011536Y006410D03*
X011536Y006420D03*
X011536Y006430D03*
X011536Y006440D03*
X011536Y006450D03*
X011536Y006460D03*
X011536Y006470D03*
X011536Y006480D03*
X011536Y006490D03*
X011536Y006500D03*
X011536Y006510D03*
X011536Y006520D03*
X011446Y006700D03*
X011876Y006560D03*
X011876Y006550D03*
X011886Y006580D03*
X011886Y006590D03*
X011896Y006610D03*
X011906Y006620D03*
X012196Y006600D03*
X012206Y006580D03*
X012206Y006570D03*
X012216Y006550D03*
X012216Y006540D03*
X012216Y006530D03*
X012216Y006520D03*
X012216Y006510D03*
X012216Y006500D03*
X012216Y006490D03*
X012216Y006480D03*
X012216Y006470D03*
X012206Y006460D03*
X012206Y006450D03*
X012206Y006440D03*
X012196Y006420D03*
X012186Y006400D03*
X012176Y006390D03*
X012166Y006380D03*
X011956Y006220D03*
X011856Y006060D03*
X011856Y006050D03*
X011846Y006030D03*
X011846Y006020D03*
X011846Y006010D03*
X011846Y006000D03*
X011846Y005990D03*
X012276Y006010D03*
X012276Y006020D03*
X012276Y006030D03*
X012706Y006090D03*
X012926Y006230D03*
X013286Y006590D03*
X012596Y006810D03*
X012586Y006800D03*
X012586Y006790D03*
X012576Y006770D03*
X012576Y006760D03*
X012576Y006750D03*
X010786Y006220D03*
X010786Y006210D03*
X010786Y006200D03*
X010786Y006190D03*
X010786Y006180D03*
X010786Y006170D03*
X008506Y006080D03*
X009096Y004470D03*
X014306Y006090D03*
X014306Y006940D03*
D22*
X014016Y006740D03*
X014006Y006720D03*
X013996Y006700D03*
X013986Y006670D03*
X013976Y006640D03*
X013966Y006590D03*
X013676Y006500D03*
X013676Y006490D03*
X013676Y006480D03*
X013686Y006460D03*
X013686Y006450D03*
X013686Y006440D03*
X013686Y006430D03*
X013686Y006420D03*
X013686Y006410D03*
X013686Y006400D03*
X013686Y006390D03*
X013686Y006380D03*
X013686Y006370D03*
X013686Y006360D03*
X013686Y006350D03*
X013686Y006340D03*
X013676Y006320D03*
X013676Y006310D03*
X013676Y006300D03*
X013666Y006270D03*
X013976Y006390D03*
X013986Y006360D03*
X013996Y006330D03*
X014006Y006310D03*
X013966Y006440D03*
X013666Y006530D03*
X013256Y006530D03*
X013246Y006500D03*
X013246Y006490D03*
X013246Y006480D03*
X013236Y006460D03*
X013236Y006450D03*
X013236Y006440D03*
X013236Y006430D03*
X013236Y006420D03*
X013236Y006410D03*
X013236Y006400D03*
X013236Y006390D03*
X013236Y006380D03*
X013236Y006370D03*
X013236Y006360D03*
X013236Y006350D03*
X013236Y006340D03*
X013246Y006320D03*
X013246Y006310D03*
X013246Y006300D03*
X013256Y006270D03*
X013266Y006240D03*
X013316Y006170D03*
X012946Y006290D03*
X012946Y006300D03*
X012946Y006310D03*
X012906Y006200D03*
X012896Y006190D03*
X012266Y006060D03*
X011866Y005940D03*
X011536Y006160D03*
X011166Y006160D03*
X010786Y006160D03*
X010406Y006160D03*
X010036Y006160D03*
X009596Y006200D03*
X009596Y006210D03*
X010046Y006590D03*
X010386Y006580D03*
X010396Y006560D03*
X010776Y006670D03*
X011176Y006590D03*
X011516Y006580D03*
X011526Y006570D03*
X011526Y006560D03*
X011876Y006460D03*
X011916Y006380D03*
X011936Y006650D03*
X012576Y006690D03*
X012576Y006700D03*
X012636Y006850D03*
X012926Y006860D03*
X009096Y004480D03*
X008216Y005170D03*
X008216Y005430D03*
X008506Y006090D03*
X008896Y006270D03*
X008806Y006940D03*
X008266Y006970D03*
X008016Y007220D03*
X008176Y007630D03*
D23*
X008016Y007210D03*
X008266Y006960D03*
X008516Y006710D03*
X008806Y006950D03*
X010016Y006970D03*
X010376Y006590D03*
X011146Y006670D03*
X011506Y006590D03*
X012256Y006070D03*
X012936Y006350D03*
X012596Y006650D03*
X012586Y006660D03*
X012586Y006670D03*
X014086Y006820D03*
X014096Y006830D03*
X014046Y006250D03*
X014066Y006230D03*
X014076Y006220D03*
X014086Y006210D03*
X009666Y006100D03*
X009096Y004490D03*
X008806Y008050D03*
D24*
X008806Y008040D03*
X008556Y007790D03*
X008626Y007610D03*
X008626Y007600D03*
X008626Y007590D03*
X008626Y007580D03*
X008626Y007570D03*
X008636Y007550D03*
X008636Y007540D03*
X008636Y007530D03*
X008636Y007520D03*
X008636Y007510D03*
X008636Y007500D03*
X008636Y007490D03*
X008636Y007480D03*
X008636Y007470D03*
X008636Y007460D03*
X008636Y007450D03*
X008626Y007430D03*
X008626Y007420D03*
X008626Y007410D03*
X008626Y007400D03*
X008626Y007390D03*
X008556Y007210D03*
X008806Y006960D03*
X008956Y007290D03*
X008966Y007310D03*
X008966Y007320D03*
X008966Y007330D03*
X008966Y007340D03*
X008976Y007360D03*
X008976Y007370D03*
X008976Y007380D03*
X008976Y007390D03*
X008976Y007400D03*
X008986Y007420D03*
X008986Y007430D03*
X008986Y007440D03*
X008986Y007450D03*
X008986Y007460D03*
X008986Y007470D03*
X008986Y007480D03*
X008986Y007490D03*
X008986Y007500D03*
X008986Y007510D03*
X008986Y007520D03*
X008986Y007530D03*
X008986Y007540D03*
X008986Y007550D03*
X008986Y007560D03*
X008986Y007570D03*
X008986Y007580D03*
X008976Y007600D03*
X008976Y007610D03*
X008976Y007620D03*
X008976Y007630D03*
X008976Y007640D03*
X008966Y007670D03*
X008966Y007680D03*
X008966Y007690D03*
X008956Y007710D03*
X009316Y007690D03*
X009316Y007680D03*
X009316Y007670D03*
X009316Y007660D03*
X009316Y007650D03*
X009316Y007640D03*
X009316Y007630D03*
X009326Y007600D03*
X009326Y007590D03*
X009326Y007580D03*
X009326Y007570D03*
X009326Y007560D03*
X009326Y007550D03*
X009326Y007540D03*
X009326Y007530D03*
X009326Y007520D03*
X009326Y007510D03*
X009326Y007500D03*
X009326Y007490D03*
X009326Y007480D03*
X009326Y007470D03*
X009326Y007460D03*
X009326Y007450D03*
X009326Y007440D03*
X009326Y007430D03*
X009326Y007420D03*
X009326Y007410D03*
X009326Y007400D03*
X009326Y007390D03*
X009316Y007330D03*
X009316Y007320D03*
X009316Y007310D03*
X009316Y007300D03*
X008516Y006700D03*
X008446Y006520D03*
X008446Y006510D03*
X008446Y006500D03*
X008446Y006490D03*
X008436Y006470D03*
X008436Y006460D03*
X008436Y006450D03*
X008436Y006440D03*
X008426Y006430D03*
X008426Y006420D03*
X008426Y006390D03*
X008436Y006370D03*
X008436Y006360D03*
X008436Y006350D03*
X008436Y006340D03*
X008446Y006320D03*
X008446Y006310D03*
X008446Y006300D03*
X008516Y006120D03*
X008896Y006280D03*
X009616Y006180D03*
X010366Y006600D03*
X011136Y006660D03*
X011196Y006600D03*
X011496Y006600D03*
X012046Y006700D03*
X012606Y006640D03*
X012916Y006380D03*
X012926Y006370D03*
X012856Y006170D03*
X013456Y006100D03*
X014116Y006190D03*
X013466Y006700D03*
X014126Y006850D03*
X012246Y006080D03*
X012036Y006320D03*
X009356Y005500D03*
X009356Y005490D03*
X009006Y005460D03*
X009006Y005450D03*
X009006Y005440D03*
X009016Y005400D03*
X009016Y005390D03*
X009016Y005380D03*
X008996Y005500D03*
X009016Y005220D03*
X009016Y005210D03*
X009006Y005180D03*
X009006Y005170D03*
X009006Y005160D03*
X009006Y005150D03*
X009006Y005140D03*
X008996Y005110D03*
X008996Y005100D03*
X008656Y005180D03*
X008656Y005190D03*
X008666Y005220D03*
X008666Y005230D03*
X008666Y005240D03*
X008676Y005260D03*
X008676Y005270D03*
X008676Y005280D03*
X008676Y005290D03*
X008676Y005300D03*
X008676Y005310D03*
X008676Y005320D03*
X008676Y005330D03*
X008676Y005340D03*
X008666Y005370D03*
X008666Y005380D03*
X008656Y005410D03*
X008656Y005420D03*
X008216Y005420D03*
X008216Y005180D03*
X009096Y004500D03*
X009356Y005100D03*
X007766Y006140D03*
X007756Y006190D03*
X007756Y006200D03*
X007746Y006220D03*
X007746Y006230D03*
X007746Y006240D03*
X007736Y006300D03*
X007736Y006310D03*
X007736Y006320D03*
X007736Y006330D03*
X007736Y006340D03*
X007736Y006350D03*
X007736Y006360D03*
X007736Y006370D03*
X007736Y006380D03*
X007736Y006390D03*
X007736Y006400D03*
X007736Y006410D03*
X007736Y006420D03*
X007736Y006430D03*
X007736Y006440D03*
X007736Y006450D03*
X007736Y006460D03*
X007736Y006470D03*
X007736Y006480D03*
X007736Y006490D03*
X007736Y006500D03*
X007736Y006510D03*
X007746Y006540D03*
X007746Y006550D03*
X007746Y006560D03*
X007746Y006570D03*
X007746Y006580D03*
X007746Y006590D03*
X007756Y006610D03*
X007756Y006620D03*
X007766Y006670D03*
X008106Y006600D03*
X008106Y006590D03*
X008096Y006550D03*
X008096Y006540D03*
X008086Y006490D03*
X008086Y006480D03*
X008086Y006470D03*
X008086Y006460D03*
X008086Y006450D03*
X008086Y006440D03*
X008086Y006430D03*
X008086Y006420D03*
X008086Y006410D03*
X008086Y006400D03*
X008086Y006390D03*
X008086Y006380D03*
X008086Y006370D03*
X008086Y006360D03*
X008086Y006350D03*
X008086Y006340D03*
X008086Y006330D03*
X008086Y006320D03*
X008096Y006270D03*
X008096Y006260D03*
X008106Y006220D03*
X008106Y006210D03*
X008266Y006950D03*
X008016Y007200D03*
X008176Y007380D03*
X008176Y007620D03*
D25*
X008176Y007610D03*
X008176Y007390D03*
X008016Y007190D03*
X007876Y006950D03*
X007846Y006890D03*
X007836Y006880D03*
X007836Y006870D03*
X007826Y006860D03*
X007826Y006850D03*
X007816Y006830D03*
X007816Y006820D03*
X007806Y006810D03*
X007806Y006800D03*
X007796Y006770D03*
X007776Y006710D03*
X008116Y006630D03*
X008126Y006660D03*
X008136Y006680D03*
X008136Y006690D03*
X008146Y006700D03*
X008146Y006710D03*
X008146Y006720D03*
X008156Y006730D03*
X008166Y006750D03*
X008186Y006790D03*
X008266Y006940D03*
X008516Y006680D03*
X008486Y006610D03*
X008476Y006600D03*
X008476Y006590D03*
X008466Y006570D03*
X008466Y006240D03*
X008476Y006220D03*
X008516Y006130D03*
X008176Y006030D03*
X008166Y006060D03*
X008156Y006080D03*
X008146Y006100D03*
X008146Y006110D03*
X008136Y006120D03*
X008136Y006130D03*
X008126Y006150D03*
X008266Y005880D03*
X008016Y005630D03*
X007876Y005860D03*
X007846Y005920D03*
X007836Y005930D03*
X007836Y005940D03*
X007826Y005950D03*
X007826Y005960D03*
X007816Y005980D03*
X007816Y005990D03*
X007806Y006000D03*
X007806Y006010D03*
X007796Y006030D03*
X007796Y006040D03*
X008586Y005580D03*
X008606Y005530D03*
X008616Y005510D03*
X008626Y005490D03*
X008636Y005470D03*
X008926Y005670D03*
X008926Y005680D03*
X008916Y005690D03*
X008936Y005660D03*
X008936Y005650D03*
X008946Y005640D03*
X008946Y005630D03*
X008956Y005620D03*
X008956Y005610D03*
X008966Y005590D03*
X008976Y005560D03*
X009316Y005650D03*
X009316Y005660D03*
X009306Y005690D03*
X009296Y005710D03*
X009286Y005730D03*
X009286Y005740D03*
X009286Y005750D03*
X009276Y005760D03*
X009266Y005780D03*
X009326Y005620D03*
X009336Y005600D03*
X009336Y005590D03*
X008836Y005830D03*
X008216Y005410D03*
X008216Y005190D03*
X008586Y005020D03*
X008606Y005070D03*
X008626Y005110D03*
X008636Y005130D03*
X008966Y005020D03*
X008966Y005010D03*
X008956Y004990D03*
X008956Y004980D03*
X008946Y004970D03*
X008946Y004960D03*
X008936Y004950D03*
X008926Y004930D03*
X008916Y004910D03*
X008836Y004770D03*
X009096Y004510D03*
X009286Y004860D03*
X009306Y004910D03*
X009316Y004930D03*
X009316Y004940D03*
X009316Y004950D03*
X009326Y004970D03*
X009326Y004980D03*
X009326Y004990D03*
X009336Y005000D03*
X009336Y005010D03*
X009346Y005040D03*
X009346Y005050D03*
X009366Y005140D03*
X009366Y005150D03*
X009366Y005160D03*
X009366Y005170D03*
X008896Y006290D03*
X008806Y006970D03*
X008886Y007120D03*
X008896Y007140D03*
X008906Y007150D03*
X008906Y007160D03*
X008916Y007170D03*
X008916Y007180D03*
X008926Y007200D03*
X008936Y007220D03*
X009246Y007080D03*
X009246Y007070D03*
X009246Y007060D03*
X009236Y007050D03*
X009236Y007040D03*
X009226Y007020D03*
X009256Y007090D03*
X009256Y007100D03*
X009266Y007110D03*
X009266Y007120D03*
X009266Y007130D03*
X009276Y007140D03*
X009276Y007150D03*
X009276Y007160D03*
X009286Y007190D03*
X009306Y007260D03*
X009306Y007270D03*
X008606Y007340D03*
X008596Y007320D03*
X008586Y007300D03*
X008606Y007660D03*
X008596Y007680D03*
X008586Y007700D03*
X008576Y007720D03*
X008886Y007880D03*
X008896Y007860D03*
X008906Y007850D03*
X008906Y007840D03*
X008916Y007830D03*
X008916Y007820D03*
X008926Y007800D03*
X008926Y007790D03*
X008806Y008030D03*
X009236Y007950D03*
X009246Y007930D03*
X009256Y007900D03*
X009256Y007890D03*
X009266Y007870D03*
X009266Y007860D03*
X009276Y007850D03*
X009276Y007840D03*
X009276Y007830D03*
X009286Y007820D03*
X009286Y007810D03*
X009286Y007800D03*
X009296Y007770D03*
X009306Y007740D03*
X009306Y007730D03*
X009306Y007720D03*
X010306Y006680D03*
X010746Y006650D03*
X010746Y006640D03*
X010746Y006630D03*
X010746Y006620D03*
X010746Y006610D03*
X011126Y006650D03*
X011436Y006680D03*
X012226Y006090D03*
X012906Y006400D03*
D26*
X012901Y006410D03*
X012631Y006610D03*
X012791Y006930D03*
X014151Y006860D03*
X012021Y005840D03*
X009991Y006910D03*
X009991Y006920D03*
X009991Y006930D03*
X009991Y006940D03*
X009991Y006950D03*
X009231Y007030D03*
X009221Y007010D03*
X009211Y007000D03*
X009211Y006990D03*
X009201Y006980D03*
X009201Y006970D03*
X009191Y006960D03*
X009191Y006950D03*
X009181Y006940D03*
X009051Y006720D03*
X008891Y006510D03*
X008501Y006640D03*
X008491Y006620D03*
X008181Y006780D03*
X008171Y006770D03*
X008171Y006760D03*
X008161Y006740D03*
X008191Y006800D03*
X008201Y006820D03*
X007891Y006980D03*
X007881Y006960D03*
X007871Y006940D03*
X007861Y006930D03*
X007861Y006920D03*
X007851Y006910D03*
X007851Y006900D03*
X008021Y007180D03*
X008551Y007230D03*
X008551Y007240D03*
X008571Y007270D03*
X008581Y007280D03*
X008581Y007290D03*
X008871Y007100D03*
X008871Y007090D03*
X008861Y007080D03*
X008861Y007070D03*
X008851Y007060D03*
X008881Y007110D03*
X008891Y007130D03*
X008801Y006980D03*
X008581Y007710D03*
X008571Y007730D03*
X008551Y007760D03*
X008551Y007770D03*
X008861Y007920D03*
X008861Y007930D03*
X008871Y007910D03*
X008871Y007900D03*
X008881Y007890D03*
X008891Y007870D03*
X008801Y008020D03*
X009051Y008280D03*
X009191Y008040D03*
X009201Y008020D03*
X009211Y008000D03*
X009221Y007980D03*
X009231Y007970D03*
X009231Y007960D03*
X009241Y007940D03*
X009251Y007920D03*
X009251Y007910D03*
X008481Y006210D03*
X008491Y006200D03*
X008491Y006190D03*
X008501Y006170D03*
X008521Y006140D03*
X008201Y005990D03*
X008191Y006010D03*
X008181Y006020D03*
X008171Y006040D03*
X008171Y006050D03*
X008161Y006070D03*
X008151Y006090D03*
X007851Y005910D03*
X007851Y005900D03*
X007861Y005890D03*
X007861Y005880D03*
X007871Y005870D03*
X007881Y005850D03*
X007891Y005840D03*
X008601Y005540D03*
X008611Y005520D03*
X008621Y005500D03*
X008911Y005700D03*
X008901Y005720D03*
X009231Y005840D03*
X009231Y005850D03*
X009241Y005830D03*
X009251Y005820D03*
X009251Y005810D03*
X009261Y005800D03*
X009261Y005790D03*
X009271Y005770D03*
X009291Y005720D03*
X009301Y005700D03*
X009091Y006080D03*
X009681Y006110D03*
X008621Y005100D03*
X008611Y005090D03*
X008611Y005080D03*
X008601Y005060D03*
X008591Y005050D03*
X008591Y005040D03*
X008591Y005030D03*
X008891Y004870D03*
X008901Y004880D03*
X008901Y004890D03*
X008911Y004900D03*
X008921Y004920D03*
X008931Y004940D03*
X009261Y004810D03*
X009261Y004800D03*
X009271Y004820D03*
X009271Y004830D03*
X009281Y004840D03*
X009281Y004850D03*
X009291Y004870D03*
X009291Y004880D03*
X009301Y004890D03*
X009301Y004900D03*
X009311Y004920D03*
X009231Y004750D03*
X009091Y004520D03*
D27*
X009091Y004530D03*
X009171Y004650D03*
X009181Y004670D03*
X009191Y004680D03*
X009201Y004690D03*
X009201Y004700D03*
X009211Y004710D03*
X008871Y004840D03*
X008861Y004830D03*
X008851Y004810D03*
X008841Y004800D03*
X008841Y004790D03*
X008211Y005210D03*
X008221Y005390D03*
X008011Y005650D03*
X007981Y005700D03*
X007971Y005710D03*
X007961Y005730D03*
X007951Y005740D03*
X007941Y005750D03*
X007911Y005800D03*
X008221Y005960D03*
X008231Y005950D03*
X008241Y005940D03*
X008261Y005910D03*
X008261Y005900D03*
X008841Y005810D03*
X008841Y005800D03*
X008851Y005790D03*
X008861Y005770D03*
X008871Y005760D03*
X008881Y005750D03*
X009171Y005940D03*
X009171Y005950D03*
X009161Y005960D03*
X009151Y005970D03*
X009131Y006000D03*
X009091Y006060D03*
X009181Y005930D03*
X009191Y005920D03*
X009201Y005900D03*
X008891Y006310D03*
X008891Y006500D03*
X009051Y006740D03*
X009081Y006790D03*
X009091Y006800D03*
X009111Y006830D03*
X009121Y006840D03*
X009141Y006870D03*
X009151Y006890D03*
X008831Y007030D03*
X008821Y007020D03*
X008811Y007010D03*
X008811Y007000D03*
X008261Y006910D03*
X008241Y006870D03*
X008231Y006860D03*
X008221Y006850D03*
X007951Y007070D03*
X007941Y007060D03*
X007961Y007080D03*
X007971Y007100D03*
X007981Y007110D03*
X008011Y007160D03*
X007921Y007030D03*
X008181Y007590D03*
X008811Y007990D03*
X008811Y008000D03*
X008821Y007980D03*
X008831Y007970D03*
X009131Y008140D03*
X009141Y008130D03*
X009141Y008120D03*
X009151Y008110D03*
X009161Y008090D03*
X009051Y008260D03*
X010301Y006670D03*
X011431Y006670D03*
X012051Y006690D03*
X012641Y006600D03*
X012701Y006100D03*
X014311Y006930D03*
D28*
X013466Y006690D03*
X012876Y006430D03*
X012656Y006590D03*
X012036Y006330D03*
X013456Y006110D03*
X014306Y006100D03*
X009146Y005980D03*
X009136Y005990D03*
X009126Y006010D03*
X009116Y006020D03*
X009106Y006030D03*
X009096Y006050D03*
X008896Y006320D03*
X008256Y005920D03*
X008246Y005930D03*
X007966Y005720D03*
X007986Y005690D03*
X007996Y005680D03*
X008006Y005670D03*
X008006Y005660D03*
X008216Y005380D03*
X008216Y005220D03*
X008856Y004820D03*
X009126Y004590D03*
X009136Y004600D03*
X009146Y004620D03*
X009156Y004630D03*
X009166Y004640D03*
X009176Y004660D03*
X009096Y004540D03*
X008856Y005780D03*
X009056Y006750D03*
X009066Y006770D03*
X009076Y006780D03*
X009096Y006810D03*
X009106Y006820D03*
X008256Y006890D03*
X008256Y006900D03*
X008246Y006880D03*
X007966Y007090D03*
X007986Y007120D03*
X007996Y007130D03*
X008006Y007140D03*
X008006Y007150D03*
X008176Y007410D03*
X008176Y007420D03*
X008176Y007580D03*
X009106Y008170D03*
X009116Y008160D03*
X009126Y008150D03*
X009096Y008190D03*
X009086Y008200D03*
X009056Y008250D03*
D29*
X009061Y008240D03*
X009061Y008230D03*
X009071Y008220D03*
X009081Y008210D03*
X009101Y008180D03*
X009061Y006760D03*
X008891Y006490D03*
X008891Y006480D03*
X009101Y006040D03*
X009141Y004610D03*
X009121Y004580D03*
X009111Y004570D03*
X009101Y004560D03*
X009101Y004550D03*
X012021Y006200D03*
X012201Y006100D03*
X012861Y006440D03*
X012671Y006580D03*
X012261Y006610D03*
D30*
X012201Y006590D03*
X012211Y006560D03*
X012201Y006430D03*
X012191Y006410D03*
X012541Y006180D03*
X012271Y006000D03*
X012271Y005990D03*
X012271Y005980D03*
X012261Y005970D03*
X012261Y005960D03*
X012251Y005950D03*
X012241Y005940D03*
X012221Y005920D03*
X012211Y005910D03*
X012021Y005830D03*
X011851Y006040D03*
X011861Y006070D03*
X011871Y006080D03*
X011881Y006090D03*
X010791Y006680D03*
X010791Y006840D03*
X010791Y006950D03*
X009591Y006710D03*
X009591Y006700D03*
X009051Y006670D03*
X008811Y006920D03*
X008511Y006740D03*
X008261Y006990D03*
X008561Y007170D03*
X008181Y007360D03*
X008181Y007640D03*
X008561Y007830D03*
X008811Y008080D03*
X009051Y008330D03*
X008901Y006260D03*
X009091Y006130D03*
X008841Y005880D03*
X008591Y005630D03*
X008261Y005830D03*
X008011Y005580D03*
X008591Y004970D03*
X008841Y004720D03*
X012781Y006940D03*
X012941Y006850D03*
X014481Y006850D03*
D31*
X014156Y006170D03*
X012886Y006420D03*
X009226Y005860D03*
X009216Y005870D03*
X009216Y005880D03*
X009206Y005890D03*
X009196Y005910D03*
X009086Y006070D03*
X008896Y006300D03*
X008516Y006150D03*
X008506Y006160D03*
X008496Y006180D03*
X008196Y006000D03*
X008206Y005980D03*
X008216Y005970D03*
X008266Y005890D03*
X007936Y005760D03*
X007926Y005770D03*
X007926Y005780D03*
X007916Y005790D03*
X007906Y005810D03*
X007896Y005820D03*
X007896Y005830D03*
X008016Y005640D03*
X008216Y005400D03*
X008216Y005200D03*
X008586Y005560D03*
X008586Y005570D03*
X008596Y005550D03*
X008886Y005740D03*
X008896Y005730D03*
X008906Y005710D03*
X008836Y005820D03*
X008496Y006630D03*
X008506Y006650D03*
X008516Y006660D03*
X008516Y006670D03*
X008196Y006810D03*
X008206Y006830D03*
X008216Y006840D03*
X008266Y006920D03*
X008266Y006930D03*
X007936Y007050D03*
X007926Y007040D03*
X007916Y007020D03*
X007906Y007010D03*
X007906Y007000D03*
X007896Y006990D03*
X007886Y006970D03*
X008016Y007170D03*
X008176Y007400D03*
X008176Y007600D03*
X008556Y007750D03*
X008566Y007740D03*
X008846Y007940D03*
X008846Y007950D03*
X008836Y007960D03*
X008806Y008010D03*
X009046Y008270D03*
X009156Y008100D03*
X009166Y008080D03*
X009176Y008070D03*
X009176Y008060D03*
X009186Y008050D03*
X009196Y008030D03*
X009206Y008010D03*
X009216Y007990D03*
X008566Y007260D03*
X008556Y007250D03*
X008836Y007040D03*
X008846Y007050D03*
X008806Y006990D03*
X009126Y006850D03*
X009136Y006860D03*
X009146Y006880D03*
X009156Y006900D03*
X009166Y006910D03*
X009166Y006920D03*
X009176Y006930D03*
X009046Y006730D03*
X008886Y004860D03*
X008876Y004850D03*
X008836Y004780D03*
X009216Y004730D03*
X009216Y004720D03*
X009226Y004740D03*
X009236Y004760D03*
X009246Y004770D03*
X009246Y004780D03*
X009256Y004790D03*
D32*
X008841Y004730D03*
X008591Y004980D03*
X008591Y005620D03*
X008841Y005870D03*
X009091Y006120D03*
X008891Y006540D03*
X009051Y006680D03*
X008811Y006930D03*
X008561Y007180D03*
X008261Y006980D03*
X008511Y006730D03*
X009581Y006690D03*
X009591Y006230D03*
X009591Y006220D03*
X010401Y006530D03*
X010401Y006540D03*
X010401Y006550D03*
X010391Y006570D03*
X010791Y006850D03*
X010791Y006860D03*
X010791Y006930D03*
X010791Y006940D03*
X011161Y006680D03*
X011531Y006550D03*
X011531Y006540D03*
X011531Y006530D03*
X011871Y006530D03*
X011871Y006540D03*
X011871Y006520D03*
X011871Y006510D03*
X011871Y006500D03*
X011871Y006490D03*
X011871Y006480D03*
X011871Y006470D03*
X011881Y006450D03*
X011881Y006440D03*
X011881Y006430D03*
X011891Y006420D03*
X011891Y006410D03*
X011901Y006400D03*
X011911Y006390D03*
X012021Y006310D03*
X012151Y006370D03*
X011881Y006570D03*
X011891Y006600D03*
X011911Y006630D03*
X011921Y006640D03*
X012571Y006710D03*
X012571Y006720D03*
X012571Y006730D03*
X012571Y006740D03*
X012581Y006780D03*
X012601Y006820D03*
X012611Y006830D03*
X012621Y006840D03*
X013261Y006550D03*
X013261Y006540D03*
X013251Y006520D03*
X013251Y006510D03*
X013241Y006470D03*
X013271Y006560D03*
X013271Y006570D03*
X013281Y006580D03*
X013291Y006600D03*
X013301Y006610D03*
X013311Y006620D03*
X013321Y006630D03*
X013611Y006620D03*
X013621Y006610D03*
X013631Y006600D03*
X013641Y006590D03*
X013641Y006580D03*
X013651Y006570D03*
X013651Y006560D03*
X013661Y006550D03*
X013661Y006540D03*
X013671Y006520D03*
X013671Y006510D03*
X013681Y006470D03*
X013681Y006330D03*
X013671Y006290D03*
X013671Y006280D03*
X013661Y006260D03*
X013661Y006250D03*
X013651Y006240D03*
X013651Y006230D03*
X013641Y006220D03*
X013641Y006210D03*
X013631Y006200D03*
X013621Y006190D03*
X013611Y006180D03*
X013601Y006170D03*
X013311Y006180D03*
X013301Y006190D03*
X013291Y006200D03*
X013281Y006210D03*
X013281Y006220D03*
X013271Y006230D03*
X013261Y006250D03*
X013261Y006260D03*
X013251Y006280D03*
X013251Y006290D03*
X013241Y006330D03*
X012941Y006280D03*
X012941Y006270D03*
X012941Y006260D03*
X012931Y006250D03*
X012931Y006240D03*
X012921Y006220D03*
X012911Y006210D03*
X012271Y006050D03*
X012271Y006040D03*
X012191Y005900D03*
X011861Y005950D03*
X011851Y005960D03*
X011851Y005970D03*
X011851Y005980D03*
X010031Y006980D03*
X008561Y007820D03*
X008811Y008070D03*
X009051Y008320D03*
X008261Y005840D03*
X008011Y005590D03*
X014471Y006170D03*
D33*
X014051Y006240D03*
X014041Y006260D03*
X014031Y006270D03*
X014021Y006280D03*
X014021Y006290D03*
X014011Y006300D03*
X014001Y006320D03*
X013991Y006340D03*
X013991Y006350D03*
X013981Y006370D03*
X013981Y006380D03*
X013971Y006400D03*
X013971Y006410D03*
X013971Y006420D03*
X013971Y006430D03*
X013961Y006450D03*
X013961Y006460D03*
X013961Y006470D03*
X013961Y006480D03*
X013961Y006490D03*
X013961Y006500D03*
X013961Y006510D03*
X013961Y006520D03*
X013961Y006530D03*
X013961Y006540D03*
X013961Y006550D03*
X013961Y006560D03*
X013961Y006570D03*
X013961Y006580D03*
X013971Y006600D03*
X013971Y006610D03*
X013971Y006620D03*
X013971Y006630D03*
X013981Y006650D03*
X013981Y006660D03*
X013991Y006680D03*
X013991Y006690D03*
X014001Y006710D03*
X014011Y006730D03*
X014021Y006750D03*
X014031Y006760D03*
X014031Y006770D03*
X014041Y006780D03*
X014051Y006790D03*
X014061Y006800D03*
X014071Y006810D03*
X014461Y006860D03*
X013601Y006630D03*
X013581Y006640D03*
X013341Y006640D03*
X012941Y006340D03*
X012941Y006330D03*
X012941Y006320D03*
X012881Y006180D03*
X012561Y006170D03*
X011931Y006370D03*
X012581Y006680D03*
X013341Y006160D03*
X013581Y006160D03*
X011891Y005910D03*
X011881Y005920D03*
X011871Y005930D03*
X010791Y006870D03*
X010791Y006880D03*
X010791Y006890D03*
X010791Y006900D03*
X010791Y006910D03*
X010791Y006920D03*
X009571Y006680D03*
X009051Y006690D03*
X008511Y006720D03*
X008561Y007190D03*
X008181Y007370D03*
X008561Y007810D03*
X008811Y008060D03*
X009051Y008310D03*
X009601Y006190D03*
X009091Y006110D03*
X008841Y005860D03*
X008591Y005610D03*
X008261Y005850D03*
X008011Y005600D03*
X008511Y006100D03*
X008591Y004990D03*
X008841Y004740D03*
D34*
X008841Y004750D03*
X008591Y005000D03*
X008661Y005200D03*
X008661Y005210D03*
X008661Y005390D03*
X008661Y005400D03*
X008591Y005600D03*
X008841Y005850D03*
X009091Y006100D03*
X008891Y006530D03*
X009051Y006700D03*
X008441Y006480D03*
X008431Y006410D03*
X008431Y006400D03*
X008431Y006380D03*
X008441Y006330D03*
X008511Y006110D03*
X008261Y005860D03*
X008011Y005610D03*
X007751Y006210D03*
X007751Y006600D03*
X008561Y007200D03*
X008561Y007800D03*
X009051Y008300D03*
X010311Y006690D03*
X010761Y006660D03*
X011441Y006690D03*
X011901Y005900D03*
X012931Y006360D03*
X012651Y006860D03*
X014111Y006840D03*
X014101Y006200D03*
X009021Y005370D03*
X009021Y005360D03*
X009021Y005350D03*
X009021Y005340D03*
X009021Y005330D03*
X009021Y005320D03*
X009021Y005310D03*
X009021Y005300D03*
X009021Y005290D03*
X009021Y005280D03*
X009021Y005270D03*
X009021Y005260D03*
X009021Y005250D03*
X009021Y005240D03*
X009021Y005230D03*
D35*
X009011Y005200D03*
X009011Y005190D03*
X009001Y005130D03*
X009001Y005120D03*
X008991Y005090D03*
X008991Y005080D03*
X008991Y005070D03*
X008981Y005060D03*
X008981Y005050D03*
X008971Y005040D03*
X008971Y005030D03*
X008961Y005000D03*
X009321Y004960D03*
X009341Y005020D03*
X009341Y005030D03*
X009351Y005060D03*
X009351Y005070D03*
X009351Y005080D03*
X009351Y005090D03*
X009361Y005110D03*
X009361Y005120D03*
X009361Y005130D03*
X009371Y005180D03*
X009371Y005190D03*
X009371Y005200D03*
X009371Y005210D03*
X009371Y005220D03*
X009371Y005230D03*
X009371Y005240D03*
X009371Y005250D03*
X009371Y005260D03*
X009371Y005270D03*
X009371Y005280D03*
X009371Y005290D03*
X009371Y005300D03*
X009371Y005310D03*
X009371Y005320D03*
X009371Y005330D03*
X009371Y005340D03*
X009371Y005350D03*
X009371Y005360D03*
X009371Y005370D03*
X009371Y005380D03*
X009371Y005390D03*
X009371Y005400D03*
X009371Y005410D03*
X009371Y005420D03*
X009361Y005430D03*
X009361Y005440D03*
X009361Y005450D03*
X009361Y005460D03*
X009361Y005470D03*
X009361Y005480D03*
X009351Y005510D03*
X009351Y005520D03*
X009351Y005530D03*
X009351Y005540D03*
X009351Y005550D03*
X009341Y005560D03*
X009341Y005570D03*
X009341Y005580D03*
X009331Y005610D03*
X009321Y005630D03*
X009321Y005640D03*
X009311Y005670D03*
X009311Y005680D03*
X008991Y005530D03*
X008991Y005520D03*
X008991Y005510D03*
X009001Y005490D03*
X009001Y005480D03*
X009001Y005470D03*
X009011Y005430D03*
X009011Y005420D03*
X009011Y005410D03*
X008981Y005540D03*
X008981Y005550D03*
X008971Y005570D03*
X008971Y005580D03*
X008961Y005600D03*
X008841Y005840D03*
X008591Y005590D03*
X008631Y005480D03*
X008641Y005460D03*
X008641Y005450D03*
X008651Y005440D03*
X008651Y005430D03*
X008671Y005360D03*
X008671Y005350D03*
X008671Y005250D03*
X008651Y005170D03*
X008651Y005160D03*
X008641Y005150D03*
X008641Y005140D03*
X008631Y005120D03*
X008591Y005010D03*
X008841Y004760D03*
X008011Y005620D03*
X008261Y005870D03*
X008131Y006140D03*
X008121Y006160D03*
X008121Y006170D03*
X008121Y006180D03*
X008111Y006190D03*
X008111Y006200D03*
X008101Y006230D03*
X008101Y006240D03*
X008101Y006250D03*
X008091Y006280D03*
X008091Y006290D03*
X008091Y006300D03*
X008091Y006310D03*
X007741Y006290D03*
X007741Y006280D03*
X007741Y006270D03*
X007741Y006260D03*
X007741Y006250D03*
X007761Y006180D03*
X007761Y006170D03*
X007761Y006160D03*
X007761Y006150D03*
X007771Y006130D03*
X007771Y006120D03*
X007771Y006110D03*
X007781Y006100D03*
X007781Y006090D03*
X007781Y006080D03*
X007791Y006070D03*
X007791Y006060D03*
X007791Y006050D03*
X007801Y006020D03*
X007821Y005970D03*
X008451Y006270D03*
X008451Y006280D03*
X008451Y006290D03*
X008461Y006260D03*
X008461Y006250D03*
X008471Y006230D03*
X008451Y006530D03*
X008451Y006540D03*
X008461Y006550D03*
X008461Y006560D03*
X008471Y006580D03*
X008521Y006690D03*
X008131Y006670D03*
X008121Y006650D03*
X008121Y006640D03*
X008111Y006620D03*
X008111Y006610D03*
X008101Y006580D03*
X008101Y006570D03*
X008101Y006560D03*
X008091Y006530D03*
X008091Y006520D03*
X008091Y006510D03*
X008091Y006500D03*
X007741Y006520D03*
X007741Y006530D03*
X007761Y006630D03*
X007761Y006640D03*
X007761Y006650D03*
X007761Y006660D03*
X007771Y006680D03*
X007771Y006690D03*
X007771Y006700D03*
X007781Y006720D03*
X007781Y006730D03*
X007791Y006740D03*
X007791Y006750D03*
X007791Y006760D03*
X007801Y006780D03*
X007801Y006790D03*
X007821Y006840D03*
X008551Y007220D03*
X008591Y007310D03*
X008601Y007330D03*
X008611Y007350D03*
X008611Y007360D03*
X008621Y007370D03*
X008621Y007380D03*
X008631Y007440D03*
X008631Y007560D03*
X008621Y007620D03*
X008621Y007630D03*
X008611Y007640D03*
X008611Y007650D03*
X008601Y007670D03*
X008591Y007690D03*
X008551Y007780D03*
X008921Y007810D03*
X008931Y007780D03*
X008941Y007770D03*
X008941Y007760D03*
X008941Y007750D03*
X008951Y007740D03*
X008951Y007730D03*
X008951Y007720D03*
X008961Y007700D03*
X008971Y007660D03*
X008971Y007650D03*
X008981Y007590D03*
X009321Y007610D03*
X009321Y007620D03*
X009311Y007700D03*
X009311Y007710D03*
X009301Y007750D03*
X009301Y007760D03*
X009291Y007780D03*
X009291Y007790D03*
X009261Y007880D03*
X009051Y008290D03*
X008981Y007410D03*
X008971Y007350D03*
X008961Y007300D03*
X008951Y007280D03*
X008951Y007270D03*
X008951Y007260D03*
X008941Y007250D03*
X008941Y007240D03*
X008941Y007230D03*
X008931Y007210D03*
X008921Y007190D03*
X009281Y007180D03*
X009281Y007170D03*
X009291Y007200D03*
X009291Y007210D03*
X009291Y007220D03*
X009301Y007230D03*
X009301Y007240D03*
X009301Y007250D03*
X009311Y007280D03*
X009311Y007290D03*
X009321Y007340D03*
X009321Y007350D03*
X009321Y007360D03*
X009321Y007370D03*
X009321Y007380D03*
X010001Y006960D03*
X010071Y006600D03*
X009051Y006710D03*
X008891Y006520D03*
X009091Y006090D03*
X011991Y006210D03*
X012611Y006630D03*
X012621Y006620D03*
X012911Y006390D03*
X014131Y006180D03*
D36*
X009831Y006180D03*
X008841Y005940D03*
X008601Y004910D03*
D37*
X008216Y005230D03*
X008216Y005240D03*
X008216Y005250D03*
X008216Y005350D03*
X008216Y005360D03*
X008216Y005370D03*
X009686Y006120D03*
X010416Y006150D03*
X010296Y006660D03*
X011426Y006660D03*
X011546Y006150D03*
X012256Y006620D03*
X012846Y006450D03*
X008896Y006330D03*
X008176Y007430D03*
X008176Y007440D03*
X008176Y007570D03*
D38*
X008181Y007560D03*
X008181Y007550D03*
X008181Y007450D03*
X008891Y006470D03*
X008891Y006460D03*
X008891Y006450D03*
X008891Y006440D03*
X008891Y006370D03*
X008891Y006360D03*
X008891Y006350D03*
X008891Y006340D03*
X010031Y006150D03*
X010031Y006140D03*
X010031Y006130D03*
X010031Y006120D03*
X010031Y006110D03*
X010031Y006100D03*
X010411Y006100D03*
X010411Y006110D03*
X010411Y006120D03*
X010411Y006130D03*
X010411Y006140D03*
X011161Y006140D03*
X011161Y006150D03*
X011161Y006130D03*
X011161Y006120D03*
X011161Y006110D03*
X011161Y006100D03*
X011541Y006100D03*
X011541Y006110D03*
X011541Y006120D03*
X011541Y006130D03*
X011541Y006140D03*
X012021Y005850D03*
X012681Y006570D03*
X012251Y006630D03*
X008211Y005340D03*
X008211Y005270D03*
X008211Y005260D03*
D39*
X008216Y005280D03*
X008216Y005320D03*
X008216Y005330D03*
X009686Y006130D03*
X009686Y006140D03*
X010786Y006150D03*
X012036Y006340D03*
X012056Y006680D03*
X012246Y006640D03*
X012696Y006560D03*
X012836Y006460D03*
X012796Y006920D03*
X013466Y006680D03*
X013456Y006120D03*
X008176Y007460D03*
X008176Y007470D03*
X008176Y007480D03*
X008176Y007530D03*
X008176Y007540D03*
D40*
X008181Y007520D03*
X008181Y007510D03*
X008891Y006430D03*
X008891Y006420D03*
X008891Y006390D03*
X008891Y006380D03*
X009681Y006160D03*
X009681Y006150D03*
X010291Y006650D03*
X010791Y006140D03*
X010791Y006130D03*
X010791Y006120D03*
X010791Y006110D03*
X010791Y006100D03*
X011421Y006650D03*
X012041Y006190D03*
X012711Y006550D03*
X012821Y006470D03*
X008221Y005310D03*
X008211Y005290D03*
D41*
X008216Y005300D03*
X009676Y006170D03*
X008896Y006400D03*
X008896Y006410D03*
X008176Y007490D03*
X008176Y007500D03*
X012036Y006350D03*
X012166Y006110D03*
X012726Y006540D03*
X012796Y006490D03*
X012806Y006480D03*
X012236Y006650D03*
D42*
X009091Y006180D03*
X008501Y006020D03*
X008011Y005530D03*
X009051Y006620D03*
X008811Y006870D03*
X008261Y007040D03*
X008811Y008130D03*
X009051Y008380D03*
D43*
X009051Y008370D03*
X008811Y008120D03*
X008261Y007030D03*
X008811Y006880D03*
X009051Y006630D03*
X009091Y006170D03*
X008501Y006030D03*
X008601Y005680D03*
X008011Y005540D03*
X010791Y006810D03*
X010791Y006980D03*
D44*
X010821Y006700D03*
X011951Y006270D03*
X011961Y006290D03*
X012961Y006700D03*
X009621Y006820D03*
X009621Y006830D03*
X009051Y006640D03*
X008891Y006560D03*
X008811Y006890D03*
X008261Y007020D03*
X009091Y006160D03*
X008501Y006040D03*
X008601Y005670D03*
X008011Y005550D03*
X008811Y008110D03*
X009051Y008360D03*
D45*
X009051Y008350D03*
X008811Y008100D03*
X008181Y007350D03*
X008261Y007010D03*
X008811Y006900D03*
X009051Y006650D03*
X009611Y006780D03*
X009611Y006790D03*
X010061Y007000D03*
X010791Y006970D03*
X010791Y006820D03*
X011191Y006700D03*
X011941Y006250D03*
X012521Y006290D03*
X012521Y006300D03*
X012521Y006310D03*
X012521Y006320D03*
X012521Y006330D03*
X012521Y006340D03*
X012961Y006710D03*
X012961Y006720D03*
X012961Y006730D03*
X012961Y006740D03*
X012961Y006750D03*
X012961Y006760D03*
X014501Y006760D03*
X014501Y006770D03*
X014501Y006780D03*
X014501Y006790D03*
X014501Y006750D03*
X014501Y006740D03*
X014501Y006290D03*
X014501Y006280D03*
X014501Y006270D03*
X014501Y006260D03*
X014501Y006250D03*
X009091Y006150D03*
X008501Y006050D03*
X008601Y005660D03*
X008011Y005560D03*
D46*
X008011Y005570D03*
X009091Y006140D03*
X008891Y006550D03*
X009051Y006660D03*
X008811Y006910D03*
X008511Y006750D03*
X008261Y007000D03*
X008561Y007160D03*
X009601Y006750D03*
X009601Y006740D03*
X010791Y006830D03*
X010791Y006960D03*
X012051Y006710D03*
X011941Y006230D03*
X012531Y006200D03*
X012531Y006190D03*
X012951Y006830D03*
X014491Y006840D03*
X014491Y006190D03*
X009051Y008340D03*
X008811Y008090D03*
X008561Y007840D03*
D47*
X008566Y007890D03*
X008016Y007290D03*
X008566Y007110D03*
X008256Y005770D03*
X008596Y005690D03*
D48*
X012026Y005860D03*
X012056Y006180D03*
X013466Y006670D03*
X014316Y006920D03*
X014316Y006110D03*
D49*
X013461Y006140D03*
X013461Y006660D03*
X012071Y006170D03*
X012031Y005870D03*
D50*
X012031Y005880D03*
X012101Y006140D03*
X012801Y006890D03*
D51*
X012786Y006870D03*
X012696Y006140D03*
X012036Y005890D03*
D52*
X012691Y006110D03*
X012781Y006500D03*
X012771Y006510D03*
X012751Y006520D03*
X012741Y006530D03*
X013461Y006130D03*
D53*
X012711Y006160D03*
X012091Y006120D03*
X014311Y006140D03*
D54*
X012686Y006120D03*
X009646Y006660D03*
D55*
X009636Y006650D03*
X009636Y006640D03*
X009636Y006630D03*
X009636Y006620D03*
X009636Y006610D03*
X012086Y006150D03*
X014316Y006120D03*
D56*
X012796Y006880D03*
X012686Y006130D03*
X012106Y006130D03*
D57*
X014321Y006130D03*
X014321Y006900D03*
D58*
X014316Y006890D03*
X012706Y006150D03*
D59*
X012081Y006160D03*
X012801Y006900D03*
X013461Y006650D03*
X013461Y006150D03*
X014321Y006910D03*
D60*
X014306Y006880D03*
X014306Y006150D03*
X010206Y006640D03*
D61*
X010216Y006610D03*
X014296Y006870D03*
X014296Y006160D03*
D62*
X012036Y006360D03*
X009656Y006670D03*
D63*
X011306Y006610D03*
D64*
X010211Y006620D03*
X010211Y006630D03*
D65*
X011301Y006630D03*
X011301Y006620D03*
D66*
X011296Y006640D03*
D67*
X012136Y006660D03*
D68*
X012141Y006670D03*
D69*
X012801Y006910D03*
D70*
X008806Y008140D03*
M02*
