G75*
%MOIN*%
%OFA0B0*%
%FSLAX24Y24*%
%IPPOS*%
%LPD*%
%AMOC8*
5,1,8,0,0,1.08239X$1,22.5*
%
%ADD10C,0.0050*%
%ADD11C,0.0000*%
D10*
X002236Y001700D02*
X002274Y001698D01*
X002311Y001692D01*
X002348Y001682D01*
X002383Y001669D01*
X002417Y001652D01*
X002448Y001631D01*
X002478Y001607D01*
X002504Y001581D01*
X002528Y001551D01*
X002549Y001520D01*
X002566Y001486D01*
X002579Y001451D01*
X002589Y001414D01*
X002595Y001377D01*
X002597Y001339D01*
X002596Y001339D02*
X002596Y000200D01*
X019396Y000200D01*
X019446Y000202D01*
X019496Y000207D01*
X019545Y000216D01*
X019593Y000228D01*
X019641Y000244D01*
X019687Y000263D01*
X019731Y000286D01*
X019774Y000311D01*
X019815Y000340D01*
X019854Y000371D01*
X019891Y000405D01*
X019925Y000442D01*
X019956Y000481D01*
X019985Y000522D01*
X020010Y000565D01*
X020033Y000609D01*
X020052Y000655D01*
X020068Y000703D01*
X020080Y000751D01*
X020089Y000800D01*
X020094Y000850D01*
X020096Y000900D01*
X020096Y011500D01*
X020094Y011550D01*
X020089Y011600D01*
X020080Y011649D01*
X020068Y011697D01*
X020052Y011745D01*
X020033Y011791D01*
X020010Y011835D01*
X019985Y011878D01*
X019956Y011919D01*
X019925Y011958D01*
X019891Y011995D01*
X019854Y012029D01*
X019815Y012060D01*
X019774Y012089D01*
X019731Y012114D01*
X019687Y012137D01*
X019641Y012156D01*
X019593Y012172D01*
X019545Y012184D01*
X019496Y012193D01*
X019446Y012198D01*
X019396Y012200D01*
X003296Y012200D01*
X003246Y012198D01*
X003196Y012193D01*
X003147Y012184D01*
X003099Y012172D01*
X003051Y012156D01*
X003005Y012137D01*
X002961Y012114D01*
X002918Y012089D01*
X002877Y012060D01*
X002838Y012029D01*
X002801Y011995D01*
X002767Y011958D01*
X002736Y011919D01*
X002707Y011878D01*
X002682Y011835D01*
X002659Y011791D01*
X002640Y011745D01*
X002624Y011697D01*
X002612Y011649D01*
X002603Y011600D01*
X002598Y011550D01*
X002596Y011500D01*
X002596Y011124D01*
X002594Y011085D01*
X002589Y011046D01*
X002580Y011008D01*
X002567Y010971D01*
X002552Y010935D01*
X002532Y010901D01*
X002510Y010868D01*
X002485Y010838D01*
X002458Y010811D01*
X002428Y010786D01*
X002395Y010764D01*
X002361Y010744D01*
X002325Y010729D01*
X002288Y010716D01*
X002250Y010707D01*
X002211Y010702D01*
X002172Y010700D01*
X000596Y010700D01*
X000596Y001700D01*
X002236Y001700D01*
D11*
X002952Y000950D02*
X002954Y000989D01*
X002960Y001028D01*
X002970Y001066D01*
X002983Y001103D01*
X003000Y001138D01*
X003020Y001172D01*
X003044Y001203D01*
X003071Y001232D01*
X003100Y001258D01*
X003132Y001281D01*
X003166Y001301D01*
X003202Y001317D01*
X003239Y001329D01*
X003278Y001338D01*
X003317Y001343D01*
X003356Y001344D01*
X003395Y001341D01*
X003434Y001334D01*
X003471Y001323D01*
X003508Y001309D01*
X003543Y001291D01*
X003576Y001270D01*
X003607Y001245D01*
X003635Y001218D01*
X003660Y001188D01*
X003682Y001155D01*
X003701Y001121D01*
X003716Y001085D01*
X003728Y001047D01*
X003736Y001009D01*
X003740Y000970D01*
X003740Y000930D01*
X003736Y000891D01*
X003728Y000853D01*
X003716Y000815D01*
X003701Y000779D01*
X003682Y000745D01*
X003660Y000712D01*
X003635Y000682D01*
X003607Y000655D01*
X003576Y000630D01*
X003543Y000609D01*
X003508Y000591D01*
X003471Y000577D01*
X003434Y000566D01*
X003395Y000559D01*
X003356Y000556D01*
X003317Y000557D01*
X003278Y000562D01*
X003239Y000571D01*
X003202Y000583D01*
X003166Y000599D01*
X003132Y000619D01*
X003100Y000642D01*
X003071Y000668D01*
X003044Y000697D01*
X003020Y000728D01*
X003000Y000762D01*
X002983Y000797D01*
X002970Y000834D01*
X002960Y000872D01*
X002954Y000911D01*
X002952Y000950D01*
X018952Y000950D02*
X018954Y000989D01*
X018960Y001028D01*
X018970Y001066D01*
X018983Y001103D01*
X019000Y001138D01*
X019020Y001172D01*
X019044Y001203D01*
X019071Y001232D01*
X019100Y001258D01*
X019132Y001281D01*
X019166Y001301D01*
X019202Y001317D01*
X019239Y001329D01*
X019278Y001338D01*
X019317Y001343D01*
X019356Y001344D01*
X019395Y001341D01*
X019434Y001334D01*
X019471Y001323D01*
X019508Y001309D01*
X019543Y001291D01*
X019576Y001270D01*
X019607Y001245D01*
X019635Y001218D01*
X019660Y001188D01*
X019682Y001155D01*
X019701Y001121D01*
X019716Y001085D01*
X019728Y001047D01*
X019736Y001009D01*
X019740Y000970D01*
X019740Y000930D01*
X019736Y000891D01*
X019728Y000853D01*
X019716Y000815D01*
X019701Y000779D01*
X019682Y000745D01*
X019660Y000712D01*
X019635Y000682D01*
X019607Y000655D01*
X019576Y000630D01*
X019543Y000609D01*
X019508Y000591D01*
X019471Y000577D01*
X019434Y000566D01*
X019395Y000559D01*
X019356Y000556D01*
X019317Y000557D01*
X019278Y000562D01*
X019239Y000571D01*
X019202Y000583D01*
X019166Y000599D01*
X019132Y000619D01*
X019100Y000642D01*
X019071Y000668D01*
X019044Y000697D01*
X019020Y000728D01*
X019000Y000762D01*
X018983Y000797D01*
X018970Y000834D01*
X018960Y000872D01*
X018954Y000911D01*
X018952Y000950D01*
X018952Y011450D02*
X018954Y011489D01*
X018960Y011528D01*
X018970Y011566D01*
X018983Y011603D01*
X019000Y011638D01*
X019020Y011672D01*
X019044Y011703D01*
X019071Y011732D01*
X019100Y011758D01*
X019132Y011781D01*
X019166Y011801D01*
X019202Y011817D01*
X019239Y011829D01*
X019278Y011838D01*
X019317Y011843D01*
X019356Y011844D01*
X019395Y011841D01*
X019434Y011834D01*
X019471Y011823D01*
X019508Y011809D01*
X019543Y011791D01*
X019576Y011770D01*
X019607Y011745D01*
X019635Y011718D01*
X019660Y011688D01*
X019682Y011655D01*
X019701Y011621D01*
X019716Y011585D01*
X019728Y011547D01*
X019736Y011509D01*
X019740Y011470D01*
X019740Y011430D01*
X019736Y011391D01*
X019728Y011353D01*
X019716Y011315D01*
X019701Y011279D01*
X019682Y011245D01*
X019660Y011212D01*
X019635Y011182D01*
X019607Y011155D01*
X019576Y011130D01*
X019543Y011109D01*
X019508Y011091D01*
X019471Y011077D01*
X019434Y011066D01*
X019395Y011059D01*
X019356Y011056D01*
X019317Y011057D01*
X019278Y011062D01*
X019239Y011071D01*
X019202Y011083D01*
X019166Y011099D01*
X019132Y011119D01*
X019100Y011142D01*
X019071Y011168D01*
X019044Y011197D01*
X019020Y011228D01*
X019000Y011262D01*
X018983Y011297D01*
X018970Y011334D01*
X018960Y011372D01*
X018954Y011411D01*
X018952Y011450D01*
X002952Y011450D02*
X002954Y011489D01*
X002960Y011528D01*
X002970Y011566D01*
X002983Y011603D01*
X003000Y011638D01*
X003020Y011672D01*
X003044Y011703D01*
X003071Y011732D01*
X003100Y011758D01*
X003132Y011781D01*
X003166Y011801D01*
X003202Y011817D01*
X003239Y011829D01*
X003278Y011838D01*
X003317Y011843D01*
X003356Y011844D01*
X003395Y011841D01*
X003434Y011834D01*
X003471Y011823D01*
X003508Y011809D01*
X003543Y011791D01*
X003576Y011770D01*
X003607Y011745D01*
X003635Y011718D01*
X003660Y011688D01*
X003682Y011655D01*
X003701Y011621D01*
X003716Y011585D01*
X003728Y011547D01*
X003736Y011509D01*
X003740Y011470D01*
X003740Y011430D01*
X003736Y011391D01*
X003728Y011353D01*
X003716Y011315D01*
X003701Y011279D01*
X003682Y011245D01*
X003660Y011212D01*
X003635Y011182D01*
X003607Y011155D01*
X003576Y011130D01*
X003543Y011109D01*
X003508Y011091D01*
X003471Y011077D01*
X003434Y011066D01*
X003395Y011059D01*
X003356Y011056D01*
X003317Y011057D01*
X003278Y011062D01*
X003239Y011071D01*
X003202Y011083D01*
X003166Y011099D01*
X003132Y011119D01*
X003100Y011142D01*
X003071Y011168D01*
X003044Y011197D01*
X003020Y011228D01*
X003000Y011262D01*
X002983Y011297D01*
X002970Y011334D01*
X002960Y011372D01*
X002954Y011411D01*
X002952Y011450D01*
M02*
