%
M48
M72
T01C0.0140
T02C0.0315
T03C0.0380
T04C0.0400
T05C0.0787
%
T01
X4896Y900
X7696Y3900
X8696Y4300
X9196Y4700
X10196Y5100
X9196Y5700
X9696Y6200
X8196Y6700
X7596Y7300
X6996Y7700
X4896Y7200
X5396Y6200
X5396Y4800
X9696Y7700
X10696Y7700
X13696Y6700
X14296Y6200
X13596Y5100
X12196Y4300
X11696Y4700
X11196Y3900
X14696Y7700
X17896Y11900
X5396Y11900
X4896Y11400
X5396Y9800
X18096Y900
T02
X16796Y4919
X16796Y5706
X16796Y6494
X16796Y7281
X3496Y7519
X3496Y8306
X3496Y9094
X3496Y9881
X3496Y4881
X3496Y4094
X3496Y3306
X3496Y2519
T03
X6196Y3200
X7196Y3200
X8196Y3200
X9196Y3200
X10196Y3200
X11196Y3200
X12196Y3200
X13196Y3200
X14196Y3200
X15196Y3200
X16196Y3200
X17196Y3200
X18196Y3200
X19196Y3200
X19196Y9200
X18196Y9200
X17196Y9200
X16196Y9200
X15196Y9200
X14196Y9200
X13196Y9200
X12196Y9200
X11196Y9200
X10196Y9200
X9196Y9200
X8196Y9200
X7196Y9200
X6196Y9200
X6196Y8200
X6196Y7200
X6196Y6200
X6196Y5200
X6196Y4200
T04
X6196Y1700
X7196Y1700
X8196Y1700
X9196Y1700
X10196Y1700
X11196Y1700
X12196Y1700
X13196Y1700
X14196Y1700
X15196Y1700
X16196Y1700
X17196Y1700
X17196Y10700
X16196Y10700
X15196Y10700
X14196Y10700
X13196Y10700
X12196Y10700
X11196Y10700
X10196Y10700
X9196Y10700
X8196Y10700
X7196Y10700
X6196Y10700
T05
X3346Y950
X19346Y950
X19346Y11450
X3346Y11450
M30
