G75*
%MOIN*%
%OFA0B0*%
%FSLAX24Y24*%
%IPPOS*%
%LPD*%
%AMOC8*
5,1,8,0,0,1.08239X$1,22.5*
%
%ADD10C,0.0050*%
%ADD11C,0.0060*%
%ADD12R,0.6500X0.1000*%
%ADD13C,0.0080*%
%ADD14C,0.0000*%
%ADD15R,0.0050X0.0010*%
%ADD16R,0.0070X0.0010*%
%ADD17R,0.0090X0.0010*%
%ADD18R,0.0110X0.0010*%
%ADD19R,0.0130X0.0010*%
%ADD20R,0.0150X0.0010*%
%ADD21R,0.0170X0.0010*%
%ADD22R,0.0190X0.0010*%
%ADD23R,0.0210X0.0010*%
%ADD24R,0.0230X0.0010*%
%ADD25R,0.0240X0.0010*%
%ADD26R,0.0260X0.0010*%
%ADD27R,0.0270X0.0010*%
%ADD28R,0.0280X0.0010*%
%ADD29R,0.0140X0.0010*%
%ADD30R,0.0250X0.0010*%
%ADD31R,0.0160X0.0010*%
%ADD32R,0.0180X0.0010*%
%ADD33R,0.0200X0.0010*%
%ADD34R,0.0220X0.0010*%
%ADD35R,0.0020X0.0010*%
%ADD36R,0.0290X0.0010*%
%ADD37R,0.0300X0.0010*%
%ADD38R,0.0310X0.0010*%
%ADD39R,0.0320X0.0010*%
%ADD40R,0.0330X0.0010*%
%ADD41R,0.0040X0.0010*%
%ADD42R,0.0060X0.0010*%
%ADD43R,0.0080X0.0010*%
%ADD44R,0.0100X0.0010*%
%ADD45R,0.0120X0.0010*%
%ADD46R,0.0030X0.0010*%
%ADD47R,0.0350X0.0010*%
%ADD48R,0.0380X0.0010*%
%ADD49R,0.0420X0.0010*%
%ADD50R,0.0450X0.0010*%
%ADD51R,0.0340X0.0010*%
%ADD52R,0.0480X0.0010*%
%ADD53R,0.0390X0.0010*%
%ADD54R,0.0410X0.0010*%
%ADD55R,0.0430X0.0010*%
%ADD56R,0.0460X0.0010*%
%ADD57R,0.0470X0.0010*%
%ADD58R,0.0400X0.0010*%
%ADD59R,0.0490X0.0010*%
%ADD60R,0.0510X0.0010*%
%ADD61R,0.0370X0.0010*%
%ADD62R,0.0590X0.0010*%
%ADD63R,0.0500X0.0010*%
%ADD64R,0.0580X0.0010*%
%ADD65R,0.0570X0.0010*%
%ADD66R,0.0530X0.0010*%
%ADD67R,0.0520X0.0010*%
%ADD68R,0.0360X0.0010*%
%ADD69R,0.0010X0.0010*%
D10*
X002236Y001700D02*
X002274Y001698D01*
X002311Y001692D01*
X002348Y001682D01*
X002383Y001669D01*
X002417Y001652D01*
X002448Y001631D01*
X002478Y001607D01*
X002504Y001581D01*
X002528Y001551D01*
X002549Y001520D01*
X002566Y001486D01*
X002579Y001451D01*
X002589Y001414D01*
X002595Y001377D01*
X002597Y001339D01*
X002596Y001339D02*
X002596Y000200D01*
X019396Y000200D01*
X019446Y000202D01*
X019496Y000207D01*
X019545Y000216D01*
X019593Y000228D01*
X019641Y000244D01*
X019687Y000263D01*
X019731Y000286D01*
X019774Y000311D01*
X019815Y000340D01*
X019854Y000371D01*
X019891Y000405D01*
X019925Y000442D01*
X019956Y000481D01*
X019985Y000522D01*
X020010Y000565D01*
X020033Y000609D01*
X020052Y000655D01*
X020068Y000703D01*
X020080Y000751D01*
X020089Y000800D01*
X020094Y000850D01*
X020096Y000900D01*
X020096Y011500D01*
X020094Y011550D01*
X020089Y011600D01*
X020080Y011649D01*
X020068Y011697D01*
X020052Y011745D01*
X020033Y011791D01*
X020010Y011835D01*
X019985Y011878D01*
X019956Y011919D01*
X019925Y011958D01*
X019891Y011995D01*
X019854Y012029D01*
X019815Y012060D01*
X019774Y012089D01*
X019731Y012114D01*
X019687Y012137D01*
X019641Y012156D01*
X019593Y012172D01*
X019545Y012184D01*
X019496Y012193D01*
X019446Y012198D01*
X019396Y012200D01*
X003296Y012200D01*
X003246Y012198D01*
X003196Y012193D01*
X003147Y012184D01*
X003099Y012172D01*
X003051Y012156D01*
X003005Y012137D01*
X002961Y012114D01*
X002918Y012089D01*
X002877Y012060D01*
X002838Y012029D01*
X002801Y011995D01*
X002767Y011958D01*
X002736Y011919D01*
X002707Y011878D01*
X002682Y011835D01*
X002659Y011791D01*
X002640Y011745D01*
X002624Y011697D01*
X002612Y011649D01*
X002603Y011600D01*
X002598Y011550D01*
X002596Y011500D01*
X002596Y011124D01*
X002594Y011085D01*
X002589Y011046D01*
X002580Y011008D01*
X002567Y010971D01*
X002552Y010935D01*
X002532Y010901D01*
X002510Y010868D01*
X002485Y010838D01*
X002458Y010811D01*
X002428Y010786D01*
X002395Y010764D01*
X002361Y010744D01*
X002325Y010729D01*
X002288Y010716D01*
X002250Y010707D01*
X002211Y010702D01*
X002172Y010700D01*
X000596Y010700D01*
X000596Y001700D01*
X002236Y001700D01*
X003907Y002775D02*
X004088Y002505D01*
X004202Y002505D02*
X004382Y002505D01*
X004382Y002775D01*
X004497Y002730D02*
X004542Y002775D01*
X004632Y002775D01*
X004677Y002730D01*
X004677Y002550D01*
X004632Y002505D01*
X004542Y002505D01*
X004497Y002550D01*
X004791Y002550D02*
X004836Y002505D01*
X004926Y002505D01*
X004971Y002550D01*
X004926Y002640D02*
X004836Y002640D01*
X004791Y002595D01*
X004791Y002550D01*
X004926Y002640D02*
X004971Y002685D01*
X004971Y002730D01*
X004926Y002775D01*
X004836Y002775D01*
X004791Y002730D01*
X004836Y002925D02*
X004791Y002970D01*
X004791Y003150D01*
X004836Y003195D01*
X004971Y003195D01*
X004971Y002925D01*
X004836Y002925D01*
X004677Y002925D02*
X004497Y002925D01*
X004587Y002925D02*
X004587Y003195D01*
X004677Y003105D01*
X004382Y003105D02*
X004337Y003060D01*
X004247Y003060D01*
X004202Y003015D01*
X004202Y002970D01*
X004247Y002925D01*
X004337Y002925D01*
X004382Y002970D01*
X004382Y003015D01*
X004337Y003060D01*
X004382Y003105D02*
X004382Y003150D01*
X004337Y003195D01*
X004247Y003195D01*
X004202Y003150D01*
X004202Y003105D01*
X004247Y003060D01*
X004202Y003405D02*
X004202Y003585D01*
X004292Y003675D01*
X004382Y003585D01*
X004382Y003405D01*
X004497Y003450D02*
X004497Y003630D01*
X004542Y003675D01*
X004677Y003675D01*
X004677Y003405D01*
X004542Y003405D01*
X004497Y003450D01*
X004382Y003540D02*
X004202Y003540D01*
X004088Y003405D02*
X003907Y003675D01*
X004247Y004025D02*
X004337Y004025D01*
X004382Y004070D01*
X004497Y004115D02*
X004497Y004295D01*
X004382Y004250D02*
X004337Y004295D01*
X004247Y004295D01*
X004202Y004250D01*
X004202Y004205D01*
X004247Y004160D01*
X004202Y004115D01*
X004202Y004070D01*
X004247Y004025D01*
X004247Y004160D02*
X004292Y004160D01*
X004497Y004115D02*
X004587Y004025D01*
X004677Y004115D01*
X004677Y004295D01*
X004791Y004250D02*
X004791Y004205D01*
X004836Y004160D01*
X004791Y004115D01*
X004791Y004070D01*
X004836Y004025D01*
X004926Y004025D01*
X004971Y004070D01*
X004881Y004160D02*
X004836Y004160D01*
X004791Y004250D02*
X004836Y004295D01*
X004926Y004295D01*
X004971Y004250D01*
X004926Y004725D02*
X004836Y004725D01*
X004791Y004770D01*
X004791Y004860D01*
X004881Y004860D01*
X004791Y004950D02*
X004836Y004995D01*
X004926Y004995D01*
X004971Y004950D01*
X004971Y004770D01*
X004926Y004725D01*
X004677Y004725D02*
X004677Y004995D01*
X004497Y004725D01*
X004497Y004995D01*
X004382Y004995D02*
X004247Y004995D01*
X004202Y004950D01*
X004202Y004770D01*
X004247Y004725D01*
X004382Y004725D01*
X004382Y004995D01*
X004836Y003675D02*
X004926Y003675D01*
X004971Y003630D01*
X004971Y003585D01*
X004926Y003540D01*
X004836Y003540D01*
X004791Y003495D01*
X004791Y003450D01*
X004836Y003405D01*
X004926Y003405D01*
X004971Y003450D01*
X004791Y003630D02*
X004836Y003675D01*
X004836Y002295D02*
X004971Y002295D01*
X004971Y002025D01*
X004836Y002025D01*
X004791Y002070D01*
X004791Y002250D01*
X004836Y002295D01*
X004677Y002205D02*
X004587Y002295D01*
X004587Y002025D01*
X004677Y002025D02*
X004497Y002025D01*
X004382Y002070D02*
X004337Y002025D01*
X004247Y002025D01*
X004202Y002070D01*
X004202Y002250D01*
X004247Y002295D01*
X004337Y002295D01*
X004382Y002250D01*
X004382Y002205D01*
X004337Y002160D01*
X004202Y002160D01*
X006021Y001149D02*
X006021Y001014D01*
X006292Y001014D01*
X006292Y001149D01*
X006247Y001194D01*
X006066Y001194D01*
X006021Y001149D01*
X006021Y000900D02*
X006292Y000900D01*
X006292Y000720D02*
X006021Y000720D01*
X006066Y000605D02*
X006157Y000605D01*
X006157Y000515D01*
X006247Y000425D02*
X006066Y000425D01*
X006021Y000470D01*
X006021Y000560D01*
X006066Y000605D01*
X006247Y000605D02*
X006292Y000560D01*
X006292Y000470D01*
X006247Y000425D01*
X006292Y000720D02*
X006021Y000900D01*
X007121Y000810D02*
X007212Y000720D01*
X007392Y000720D01*
X007392Y000605D02*
X007392Y000425D01*
X007257Y000425D01*
X007302Y000515D01*
X007302Y000560D01*
X007257Y000605D01*
X007166Y000605D01*
X007121Y000560D01*
X007121Y000470D01*
X007166Y000425D01*
X007121Y000810D02*
X007212Y000900D01*
X007392Y000900D01*
X007347Y001014D02*
X007166Y001014D01*
X007347Y001194D01*
X007166Y001194D01*
X007121Y001149D01*
X007121Y001059D01*
X007166Y001014D01*
X007347Y001014D02*
X007392Y001059D01*
X007392Y001149D01*
X007347Y001194D01*
X008121Y001149D02*
X008121Y001059D01*
X008166Y001014D01*
X008212Y001014D01*
X008257Y001059D01*
X008257Y001149D01*
X008212Y001194D01*
X008166Y001194D01*
X008121Y001149D01*
X008257Y001149D02*
X008302Y001194D01*
X008347Y001194D01*
X008392Y001149D01*
X008392Y001059D01*
X008347Y001014D01*
X008302Y001014D01*
X008257Y001059D01*
X008121Y000900D02*
X008121Y000720D01*
X008121Y000810D02*
X008392Y000810D01*
X008302Y000720D01*
X008347Y000605D02*
X008166Y000605D01*
X008121Y000560D01*
X008121Y000425D01*
X008392Y000425D01*
X008392Y000560D01*
X008347Y000605D01*
X009121Y000560D02*
X009121Y000425D01*
X009392Y000425D01*
X009392Y000560D01*
X009347Y000605D01*
X009166Y000605D01*
X009121Y000560D01*
X009121Y000720D02*
X009121Y000900D01*
X009121Y000810D02*
X009392Y000810D01*
X009302Y000720D01*
X009302Y001014D02*
X009257Y001059D01*
X009257Y001194D01*
X009347Y001194D02*
X009166Y001194D01*
X009121Y001149D01*
X009121Y001059D01*
X009166Y001014D01*
X009302Y001014D02*
X009347Y001014D01*
X009392Y001059D01*
X009392Y001149D01*
X009347Y001194D01*
X010021Y000900D02*
X010021Y000720D01*
X010021Y000810D02*
X010292Y000810D01*
X010202Y000720D01*
X010247Y000605D02*
X010066Y000605D01*
X010021Y000560D01*
X010021Y000425D01*
X010292Y000425D01*
X010292Y000560D01*
X010247Y000605D01*
X011021Y000560D02*
X011021Y000425D01*
X011292Y000425D01*
X011292Y000560D01*
X011247Y000605D01*
X011066Y000605D01*
X011021Y000560D01*
X011066Y000720D02*
X011247Y000900D01*
X011066Y000900D01*
X011021Y000855D01*
X011021Y000765D01*
X011066Y000720D01*
X011247Y000720D01*
X011292Y000765D01*
X011292Y000855D01*
X011247Y000900D01*
X012121Y000900D02*
X012121Y000720D01*
X012121Y000810D02*
X012392Y000810D01*
X012302Y000720D01*
X012347Y000605D02*
X012166Y000605D01*
X012121Y000560D01*
X012121Y000425D01*
X012392Y000425D01*
X012392Y000560D01*
X012347Y000605D01*
X012257Y001014D02*
X012166Y001014D01*
X012121Y001059D01*
X012121Y001149D01*
X012166Y001194D01*
X012212Y001194D01*
X012257Y001149D01*
X012257Y001014D01*
X012347Y001104D01*
X012392Y001194D01*
X013121Y001149D02*
X013121Y001059D01*
X013166Y001014D01*
X013347Y001194D01*
X013166Y001194D01*
X013121Y001149D01*
X013166Y001014D02*
X013347Y001014D01*
X013392Y001059D01*
X013392Y001149D01*
X013347Y001194D01*
X013347Y000900D02*
X013392Y000855D01*
X013392Y000765D01*
X013347Y000720D01*
X013347Y000605D02*
X013166Y000605D01*
X013121Y000560D01*
X013121Y000425D01*
X013392Y000425D01*
X013392Y000560D01*
X013347Y000605D01*
X013121Y000720D02*
X013302Y000900D01*
X013347Y000900D01*
X013121Y000900D02*
X013121Y000720D01*
X014021Y000720D02*
X014021Y000900D01*
X014021Y000810D02*
X014292Y000810D01*
X014202Y000720D01*
X014247Y000605D02*
X014066Y000605D01*
X014021Y000560D01*
X014021Y000425D01*
X014292Y000425D01*
X014292Y000560D01*
X014247Y000605D01*
X014292Y001014D02*
X014292Y001194D01*
X014247Y001194D01*
X014066Y001014D01*
X014021Y001014D01*
X015121Y001014D02*
X015121Y001194D01*
X015121Y001104D02*
X015392Y001104D01*
X015302Y001014D01*
X015302Y000900D02*
X015347Y000900D01*
X015392Y000855D01*
X015392Y000765D01*
X015347Y000720D01*
X015347Y000605D02*
X015166Y000605D01*
X015121Y000560D01*
X015121Y000425D01*
X015392Y000425D01*
X015392Y000560D01*
X015347Y000605D01*
X015121Y000720D02*
X015302Y000900D01*
X015121Y000900D02*
X015121Y000720D01*
X016121Y000720D02*
X016302Y000900D01*
X016347Y000900D01*
X016392Y000855D01*
X016392Y000765D01*
X016347Y000720D01*
X016347Y000605D02*
X016166Y000605D01*
X016121Y000560D01*
X016121Y000425D01*
X016392Y000425D01*
X016392Y000560D01*
X016347Y000605D01*
X016121Y000720D02*
X016121Y000900D01*
X016121Y001014D02*
X016302Y001194D01*
X016347Y001194D01*
X016392Y001149D01*
X016392Y001059D01*
X016347Y001014D01*
X016121Y001014D02*
X016121Y001194D01*
X017121Y001149D02*
X017121Y001059D01*
X017166Y001014D01*
X017121Y000900D02*
X017121Y000720D01*
X017302Y000900D01*
X017347Y000900D01*
X017392Y000855D01*
X017392Y000765D01*
X017347Y000720D01*
X017347Y000605D02*
X017166Y000605D01*
X017121Y000560D01*
X017121Y000425D01*
X017392Y000425D01*
X017392Y000560D01*
X017347Y000605D01*
X017347Y001014D02*
X017392Y001059D01*
X017392Y001149D01*
X017347Y001194D01*
X017302Y001194D01*
X017257Y001149D01*
X017212Y001194D01*
X017166Y001194D01*
X017121Y001149D01*
X017257Y001149D02*
X017257Y001104D01*
X017347Y004825D02*
X017302Y004870D01*
X017302Y005050D01*
X017347Y005095D01*
X017482Y005095D01*
X017482Y004825D01*
X017347Y004825D01*
X017597Y004825D02*
X017597Y005095D01*
X017777Y005095D02*
X017597Y004825D01*
X017777Y004825D02*
X017777Y005095D01*
X017891Y005050D02*
X017936Y005095D01*
X018026Y005095D01*
X018071Y005050D01*
X018071Y004870D01*
X018026Y004825D01*
X017936Y004825D01*
X017891Y004870D01*
X017891Y004960D01*
X017981Y004960D01*
X017936Y005525D02*
X018026Y005525D01*
X018071Y005570D01*
X017981Y005660D02*
X017936Y005660D01*
X017891Y005615D01*
X017891Y005570D01*
X017936Y005525D01*
X017936Y005660D02*
X017891Y005705D01*
X017891Y005750D01*
X017936Y005795D01*
X018026Y005795D01*
X018071Y005750D01*
X017777Y005795D02*
X017777Y005615D01*
X017687Y005525D01*
X017597Y005615D01*
X017597Y005795D01*
X017482Y005750D02*
X017437Y005795D01*
X017347Y005795D01*
X017302Y005750D01*
X017302Y005705D01*
X017347Y005660D01*
X017302Y005615D01*
X017302Y005570D01*
X017347Y005525D01*
X017437Y005525D01*
X017482Y005570D01*
X017392Y005660D02*
X017347Y005660D01*
X017442Y006325D02*
X017397Y006370D01*
X017397Y006550D01*
X017442Y006595D01*
X017532Y006595D01*
X017577Y006550D01*
X017577Y006505D01*
X017532Y006460D01*
X017397Y006460D01*
X017532Y006325D02*
X017577Y006370D01*
X017532Y006325D02*
X017442Y006325D01*
X017691Y006370D02*
X017691Y006550D01*
X017736Y006595D01*
X017871Y006595D01*
X017871Y006325D01*
X017736Y006325D01*
X017691Y006370D01*
X017691Y007125D02*
X017691Y007305D01*
X017781Y007395D01*
X017871Y007305D01*
X017871Y007125D01*
X017871Y007260D02*
X017691Y007260D01*
X017577Y007170D02*
X017397Y007350D01*
X017397Y007170D01*
X017442Y007125D01*
X017532Y007125D01*
X017577Y007170D01*
X017577Y007350D01*
X017532Y007395D01*
X017442Y007395D01*
X017397Y007350D01*
X016271Y007305D02*
X016271Y007125D01*
X016271Y007260D02*
X016091Y007260D01*
X016091Y007305D02*
X016091Y007125D01*
X015977Y007170D02*
X015797Y007350D01*
X015797Y007170D01*
X015842Y007125D01*
X015932Y007125D01*
X015977Y007170D01*
X015977Y007350D01*
X015932Y007395D01*
X015842Y007395D01*
X015797Y007350D01*
X016091Y007305D02*
X016181Y007395D01*
X016271Y007305D01*
X016271Y006595D02*
X016136Y006595D01*
X016091Y006550D01*
X016091Y006370D01*
X016136Y006325D01*
X016271Y006325D01*
X016271Y006595D01*
X015977Y006550D02*
X015977Y006505D01*
X015932Y006460D01*
X015797Y006460D01*
X015797Y006370D02*
X015797Y006550D01*
X015842Y006595D01*
X015932Y006595D01*
X015977Y006550D01*
X015977Y006370D02*
X015932Y006325D01*
X015842Y006325D01*
X015797Y006370D01*
X015797Y005795D02*
X015797Y005615D01*
X015887Y005525D01*
X015977Y005615D01*
X015977Y005795D01*
X016091Y005750D02*
X016091Y005705D01*
X016136Y005660D01*
X016091Y005615D01*
X016091Y005570D01*
X016136Y005525D01*
X016226Y005525D01*
X016271Y005570D01*
X016181Y005660D02*
X016136Y005660D01*
X016091Y005750D02*
X016136Y005795D01*
X016226Y005795D01*
X016271Y005750D01*
X015682Y005750D02*
X015637Y005795D01*
X015547Y005795D01*
X015502Y005750D01*
X015502Y005705D01*
X015547Y005660D01*
X015502Y005615D01*
X015502Y005570D01*
X015547Y005525D01*
X015637Y005525D01*
X015682Y005570D01*
X015592Y005660D02*
X015547Y005660D01*
X015547Y004995D02*
X015682Y004995D01*
X015682Y004725D01*
X015547Y004725D01*
X015502Y004770D01*
X015502Y004950D01*
X015547Y004995D01*
X015797Y004995D02*
X015797Y004725D01*
X015977Y004995D01*
X015977Y004725D01*
X016091Y004770D02*
X016091Y004860D01*
X016181Y004860D01*
X016091Y004770D02*
X016136Y004725D01*
X016226Y004725D01*
X016271Y004770D01*
X016271Y004950D01*
X016226Y004995D01*
X016136Y004995D01*
X016091Y004950D01*
X013071Y005170D02*
X013026Y005125D01*
X012936Y005125D01*
X012891Y005170D01*
X012891Y005215D01*
X012936Y005260D01*
X013026Y005260D01*
X013071Y005305D01*
X013071Y005350D01*
X013026Y005395D01*
X012936Y005395D01*
X012891Y005350D01*
X012777Y005260D02*
X012732Y005305D01*
X012642Y005305D01*
X012597Y005260D01*
X012597Y005215D01*
X012777Y005215D01*
X012777Y005170D02*
X012777Y005260D01*
X012777Y005170D02*
X012732Y005125D01*
X012642Y005125D01*
X012482Y005125D02*
X012482Y005305D01*
X012392Y005305D02*
X012347Y005305D01*
X012392Y005305D02*
X012482Y005215D01*
X012237Y005125D02*
X012147Y005125D01*
X012192Y005125D02*
X012192Y005305D01*
X012237Y005305D01*
X012192Y005395D02*
X012192Y005440D01*
X011995Y005305D02*
X011905Y005305D01*
X011860Y005260D01*
X011860Y005125D01*
X011995Y005125D01*
X012040Y005170D01*
X011995Y005215D01*
X011860Y005215D01*
X011746Y005125D02*
X011655Y005125D01*
X011700Y005125D02*
X011700Y005395D01*
X011746Y005395D01*
X011254Y005395D02*
X011254Y005125D01*
X011074Y005125D02*
X011074Y005395D01*
X010960Y005305D02*
X010960Y005170D01*
X010915Y005125D01*
X010780Y005125D01*
X010780Y005305D01*
X010665Y005305D02*
X010665Y005125D01*
X010575Y005125D02*
X010575Y005260D01*
X010530Y005305D01*
X010485Y005260D01*
X010485Y005125D01*
X010370Y005125D02*
X010235Y005125D01*
X010190Y005170D01*
X010190Y005260D01*
X010235Y005305D01*
X010370Y005305D01*
X010370Y005395D02*
X010370Y005125D01*
X010575Y005260D02*
X010620Y005305D01*
X010665Y005305D01*
X011074Y005125D02*
X011254Y005395D01*
X010076Y005260D02*
X010076Y005170D01*
X010031Y005125D01*
X009941Y005125D01*
X009896Y005215D02*
X010076Y005215D01*
X010076Y005260D02*
X010031Y005305D01*
X009941Y005305D01*
X009896Y005260D01*
X009896Y005215D01*
X009781Y005215D02*
X009691Y005305D01*
X009646Y005305D01*
X009536Y005305D02*
X009536Y005260D01*
X009491Y005260D01*
X009491Y005305D01*
X009536Y005305D01*
X009536Y005170D02*
X009536Y005125D01*
X009491Y005125D01*
X009491Y005170D01*
X009536Y005170D01*
X009781Y005125D02*
X009781Y005305D01*
X008871Y005215D02*
X008736Y005215D01*
X008691Y005260D01*
X008691Y005350D01*
X008736Y005395D01*
X008871Y005395D01*
X008871Y005125D01*
X008781Y005215D02*
X008691Y005125D01*
X008577Y005170D02*
X008577Y005260D01*
X008532Y005305D01*
X008442Y005305D01*
X008397Y005260D01*
X008397Y005215D01*
X008577Y005215D01*
X008577Y005170D02*
X008532Y005125D01*
X008442Y005125D01*
X008282Y005305D02*
X008192Y005125D01*
X008102Y005305D01*
X007988Y005170D02*
X007942Y005170D01*
X007942Y005125D01*
X007988Y005125D01*
X007988Y005170D01*
X007546Y005125D02*
X007365Y005125D01*
X007455Y005125D02*
X007455Y005395D01*
X007546Y005305D01*
X007251Y005170D02*
X007206Y005170D01*
X007206Y005125D01*
X007251Y005125D01*
X007251Y005170D01*
X007104Y005125D02*
X006923Y005305D01*
X006923Y005350D01*
X006968Y005395D01*
X007059Y005395D01*
X007104Y005350D01*
X007104Y005125D02*
X006923Y005125D01*
X004971Y007025D02*
X004836Y007025D01*
X004791Y007070D01*
X004791Y007250D01*
X004836Y007295D01*
X004971Y007295D01*
X004971Y007025D01*
X004677Y007025D02*
X004677Y007070D01*
X004497Y007250D01*
X004497Y007295D01*
X004677Y007295D01*
X004677Y007505D02*
X004497Y007775D01*
X004382Y007730D02*
X004337Y007775D01*
X004247Y007775D01*
X004202Y007730D01*
X004202Y007685D01*
X004247Y007640D01*
X004202Y007595D01*
X004202Y007550D01*
X004247Y007505D01*
X004337Y007505D01*
X004382Y007550D01*
X004497Y007505D02*
X004677Y007775D01*
X004791Y007730D02*
X004791Y007640D01*
X004836Y007595D01*
X004971Y007595D01*
X004881Y007595D02*
X004791Y007505D01*
X004971Y007505D02*
X004971Y007775D01*
X004836Y007775D01*
X004791Y007730D01*
X004836Y008025D02*
X004791Y008070D01*
X004791Y008250D01*
X004836Y008295D01*
X004971Y008295D01*
X004971Y008025D01*
X004836Y008025D01*
X004677Y008070D02*
X004677Y008115D01*
X004632Y008160D01*
X004542Y008160D01*
X004497Y008115D01*
X004497Y008070D01*
X004542Y008025D01*
X004632Y008025D01*
X004677Y008070D01*
X004632Y008160D02*
X004677Y008205D01*
X004677Y008250D01*
X004632Y008295D01*
X004542Y008295D01*
X004497Y008250D01*
X004497Y008205D01*
X004542Y008160D01*
X004497Y008505D02*
X004677Y008775D01*
X004791Y008775D02*
X004971Y008775D01*
X004881Y008775D02*
X004881Y008505D01*
X004677Y008505D02*
X004497Y008775D01*
X004382Y008730D02*
X004337Y008775D01*
X004247Y008775D01*
X004202Y008730D01*
X004202Y008685D01*
X004247Y008640D01*
X004202Y008595D01*
X004202Y008550D01*
X004247Y008505D01*
X004337Y008505D01*
X004382Y008550D01*
X004292Y008640D02*
X004247Y008640D01*
X004088Y008505D02*
X003907Y008775D01*
X004202Y009070D02*
X004247Y009025D01*
X004337Y009025D01*
X004382Y009070D01*
X004497Y009115D02*
X004587Y009025D01*
X004677Y009115D01*
X004677Y009295D01*
X004791Y009250D02*
X004791Y009205D01*
X004836Y009160D01*
X004791Y009115D01*
X004791Y009070D01*
X004836Y009025D01*
X004926Y009025D01*
X004971Y009070D01*
X004881Y009160D02*
X004836Y009160D01*
X004791Y009250D02*
X004836Y009295D01*
X004926Y009295D01*
X004971Y009250D01*
X004497Y009295D02*
X004497Y009115D01*
X004382Y009250D02*
X004337Y009295D01*
X004247Y009295D01*
X004202Y009250D01*
X004202Y009205D01*
X004247Y009160D01*
X004202Y009115D01*
X004202Y009070D01*
X004247Y009160D02*
X004292Y009160D01*
X004247Y009725D02*
X004202Y009770D01*
X004202Y009950D01*
X004247Y009995D01*
X004382Y009995D01*
X004382Y009725D01*
X004247Y009725D01*
X004497Y009725D02*
X004497Y009995D01*
X004677Y009995D02*
X004497Y009725D01*
X004677Y009725D02*
X004677Y009995D01*
X004791Y009950D02*
X004836Y009995D01*
X004926Y009995D01*
X004971Y009950D01*
X004971Y009770D01*
X004926Y009725D01*
X004836Y009725D01*
X004791Y009770D01*
X004791Y009860D01*
X004881Y009860D01*
X006046Y011241D02*
X006001Y011286D01*
X006001Y011376D01*
X006046Y011421D01*
X006137Y011421D01*
X006137Y011331D01*
X006227Y011241D02*
X006046Y011241D01*
X006227Y011241D02*
X006272Y011286D01*
X006272Y011376D01*
X006227Y011421D01*
X006272Y011536D02*
X006001Y011716D01*
X006272Y011716D01*
X006272Y011830D02*
X006001Y011830D01*
X006001Y011965D01*
X006046Y012011D01*
X006227Y012011D01*
X006272Y011965D01*
X006272Y011830D01*
X006272Y011536D02*
X006001Y011536D01*
X007001Y011626D02*
X007092Y011536D01*
X007272Y011536D01*
X007227Y011421D02*
X007182Y011421D01*
X007137Y011376D01*
X007092Y011421D01*
X007046Y011421D01*
X007001Y011376D01*
X007001Y011286D01*
X007046Y011241D01*
X007137Y011331D02*
X007137Y011376D01*
X007227Y011421D02*
X007272Y011376D01*
X007272Y011286D01*
X007227Y011241D01*
X007001Y011626D02*
X007092Y011716D01*
X007272Y011716D01*
X007227Y011830D02*
X007272Y011875D01*
X007272Y011965D01*
X007227Y012011D01*
X007182Y012011D01*
X007137Y011965D01*
X007092Y012011D01*
X007046Y012011D01*
X007001Y011965D01*
X007001Y011875D01*
X007046Y011830D01*
X007137Y011920D02*
X007137Y011965D01*
X008001Y012011D02*
X008001Y011830D01*
X008182Y012011D01*
X008227Y012011D01*
X008272Y011965D01*
X008272Y011875D01*
X008227Y011830D01*
X008001Y011716D02*
X008001Y011536D01*
X008001Y011626D02*
X008272Y011626D01*
X008182Y011536D01*
X008227Y011421D02*
X008272Y011376D01*
X008272Y011241D01*
X008001Y011241D01*
X008001Y011376D01*
X008046Y011421D01*
X008227Y011421D01*
X009001Y011376D02*
X009001Y011241D01*
X009272Y011241D01*
X009272Y011376D01*
X009227Y011421D01*
X009046Y011421D01*
X009001Y011376D01*
X009001Y011536D02*
X009001Y011716D01*
X009001Y011626D02*
X009272Y011626D01*
X009182Y011536D01*
X009182Y011830D02*
X009272Y011920D01*
X009001Y011920D01*
X009001Y011830D02*
X009001Y012011D01*
X010001Y011965D02*
X010001Y011875D01*
X010046Y011830D01*
X010001Y011716D02*
X010001Y011536D01*
X010001Y011626D02*
X010272Y011626D01*
X010182Y011536D01*
X010227Y011421D02*
X010272Y011376D01*
X010272Y011241D01*
X010001Y011241D01*
X010001Y011376D01*
X010046Y011421D01*
X010227Y011421D01*
X010227Y011830D02*
X010272Y011875D01*
X010272Y011965D01*
X010227Y012011D01*
X010182Y012011D01*
X010137Y011965D01*
X010092Y012011D01*
X010046Y012011D01*
X010001Y011965D01*
X010137Y011965D02*
X010137Y011920D01*
X011001Y011875D02*
X011046Y011830D01*
X011227Y012011D01*
X011046Y012011D01*
X011001Y011965D01*
X011001Y011875D01*
X011046Y011830D02*
X011227Y011830D01*
X011272Y011875D01*
X011272Y011965D01*
X011227Y012011D01*
X011001Y011716D02*
X011001Y011536D01*
X011001Y011626D02*
X011272Y011626D01*
X011182Y011536D01*
X011227Y011421D02*
X011272Y011376D01*
X011272Y011241D01*
X011001Y011241D01*
X011001Y011376D01*
X011046Y011421D01*
X011227Y011421D01*
X012001Y011536D02*
X012001Y011671D01*
X012046Y011716D01*
X012227Y011716D01*
X012272Y011671D01*
X012272Y011536D01*
X012001Y011536D01*
X012046Y011830D02*
X012001Y011875D01*
X012001Y011965D01*
X012046Y012011D01*
X012092Y012011D01*
X012137Y011965D01*
X012137Y011830D01*
X012046Y011830D01*
X012137Y011830D02*
X012227Y011920D01*
X012272Y012011D01*
X013001Y011965D02*
X013001Y011875D01*
X013046Y011830D01*
X013137Y011830D02*
X013182Y011920D01*
X013182Y011965D01*
X013137Y012011D01*
X013046Y012011D01*
X013001Y011965D01*
X013137Y011830D02*
X013272Y011830D01*
X013272Y012011D01*
X013001Y011716D02*
X013001Y011536D01*
X013001Y011626D02*
X013272Y011626D01*
X013182Y011536D01*
X013227Y011421D02*
X013046Y011421D01*
X013001Y011376D01*
X013001Y011241D01*
X013272Y011241D01*
X013272Y011376D01*
X013227Y011421D01*
X014001Y011536D02*
X014001Y011671D01*
X014046Y011716D01*
X014227Y011716D01*
X014272Y011671D01*
X014272Y011536D01*
X014001Y011536D01*
X014046Y011830D02*
X014001Y011875D01*
X014001Y011965D01*
X014046Y012011D01*
X014137Y012011D01*
X014182Y011965D01*
X014182Y011920D01*
X014137Y011830D01*
X014272Y011830D01*
X014272Y012011D01*
X015001Y011965D02*
X015272Y011965D01*
X015137Y011830D01*
X015137Y012011D01*
X015046Y011716D02*
X015227Y011716D01*
X015272Y011671D01*
X015272Y011536D01*
X015001Y011536D01*
X015001Y011671D01*
X015046Y011716D01*
X016001Y011671D02*
X016001Y011536D01*
X016272Y011536D01*
X016272Y011671D01*
X016227Y011716D01*
X016046Y011716D01*
X016001Y011671D01*
X016046Y011830D02*
X016001Y011875D01*
X016001Y011965D01*
X016046Y012011D01*
X016092Y012011D01*
X016137Y011965D01*
X016137Y011920D01*
X016137Y011965D02*
X016182Y012011D01*
X016227Y012011D01*
X016272Y011965D01*
X016272Y011875D01*
X016227Y011830D01*
X017001Y011830D02*
X017182Y012011D01*
X017227Y012011D01*
X017272Y011965D01*
X017272Y011875D01*
X017227Y011830D01*
X017227Y011716D02*
X017272Y011671D01*
X017272Y011536D01*
X017001Y011536D01*
X017001Y011671D01*
X017046Y011716D01*
X017227Y011716D01*
X017001Y011830D02*
X017001Y012011D01*
X004292Y007640D02*
X004247Y007640D01*
X004088Y007505D02*
X003907Y007775D01*
D11*
X003796Y005620D02*
X003853Y005564D01*
X003853Y005337D01*
X003796Y005280D01*
X003682Y005280D01*
X003626Y005337D01*
X003626Y005564D02*
X003682Y005620D01*
X003796Y005620D01*
X003994Y005564D02*
X004051Y005620D01*
X004164Y005620D01*
X004221Y005564D01*
X004353Y005620D02*
X004466Y005620D01*
X004410Y005620D02*
X004410Y005280D01*
X004466Y005280D02*
X004353Y005280D01*
X004221Y005280D02*
X003994Y005507D01*
X003994Y005564D01*
X003994Y005280D02*
X004221Y005280D01*
X008420Y007030D02*
X008647Y007257D01*
X008788Y007257D02*
X008845Y007200D01*
X008788Y007143D01*
X008788Y007087D01*
X008845Y007030D01*
X008958Y007030D01*
X009015Y007087D01*
X008902Y007200D02*
X008845Y007200D01*
X008788Y007257D02*
X008788Y007314D01*
X008845Y007370D01*
X008958Y007370D01*
X009015Y007314D01*
X009156Y007314D02*
X009156Y007370D01*
X009156Y007314D02*
X009270Y007200D01*
X009270Y007030D01*
X009525Y007087D02*
X009581Y007030D01*
X009695Y007030D01*
X009752Y007087D01*
X009695Y007200D02*
X009581Y007200D01*
X009525Y007143D01*
X009525Y007087D01*
X009695Y007200D02*
X009752Y007257D01*
X009752Y007314D01*
X009695Y007370D01*
X009581Y007370D01*
X009525Y007314D01*
X009383Y007314D02*
X009270Y007200D01*
X009383Y007314D02*
X009383Y007370D01*
X009893Y007370D02*
X009893Y007030D01*
X010120Y007370D01*
X010120Y007030D01*
X010261Y007030D02*
X010488Y007030D01*
X010488Y007370D01*
X010261Y007370D01*
X010375Y007200D02*
X010488Y007200D01*
X010630Y007370D02*
X010857Y007370D01*
X010857Y007030D01*
X010630Y007030D01*
X010743Y007200D02*
X010857Y007200D01*
X010998Y007370D02*
X011225Y007370D01*
X011111Y007370D02*
X011111Y007030D01*
X011366Y006973D02*
X011593Y006973D01*
X011735Y007087D02*
X011791Y007030D01*
X011905Y007030D01*
X011962Y007087D01*
X011962Y007314D01*
X011905Y007370D01*
X011791Y007370D01*
X011735Y007314D01*
X012103Y007314D02*
X012103Y007087D01*
X012160Y007030D01*
X012273Y007030D01*
X012330Y007087D01*
X012330Y007314D01*
X012273Y007370D01*
X012160Y007370D01*
X012103Y007314D01*
X012471Y007314D02*
X012528Y007370D01*
X012641Y007370D01*
X012698Y007314D01*
X012698Y007257D01*
X012641Y007200D01*
X012528Y007200D01*
X012471Y007143D01*
X012471Y007087D01*
X012528Y007030D01*
X012641Y007030D01*
X012698Y007087D01*
X012953Y007030D02*
X012953Y007370D01*
X013066Y007370D02*
X012840Y007370D01*
X008647Y007030D02*
X008420Y007257D01*
X004566Y010337D02*
X004510Y010280D01*
X004396Y010280D01*
X004340Y010337D01*
X004340Y010620D01*
X004198Y010507D02*
X004085Y010620D01*
X003971Y010507D01*
X003971Y010280D01*
X003830Y010280D02*
X003830Y010620D01*
X003660Y010620D01*
X003603Y010564D01*
X003603Y010450D01*
X003660Y010393D01*
X003830Y010393D01*
X003716Y010393D02*
X003603Y010280D01*
X003348Y010280D02*
X003348Y010620D01*
X003235Y010620D02*
X003462Y010620D01*
X003971Y010450D02*
X004198Y010450D01*
X004198Y010507D02*
X004198Y010280D01*
X004566Y010337D02*
X004566Y010620D01*
D12*
X010146Y004500D03*
D13*
X009201Y007580D02*
X009121Y007580D01*
X009041Y007660D01*
X009041Y008060D01*
X009281Y008060D01*
X009361Y007980D01*
X009361Y007820D01*
X009281Y007740D01*
X009041Y007740D01*
X008845Y007820D02*
X008845Y007980D01*
X008765Y008060D01*
X008605Y008060D01*
X008525Y007980D01*
X008525Y007900D01*
X008845Y007900D01*
X008845Y007820D02*
X008765Y007740D01*
X008605Y007740D01*
X008330Y007740D02*
X008330Y008060D01*
X008090Y008060D01*
X008009Y007980D01*
X008009Y007740D01*
X007734Y007820D02*
X007654Y007740D01*
X007734Y007820D02*
X007734Y008140D01*
X007814Y008060D02*
X007654Y008060D01*
X007470Y007980D02*
X007390Y007900D01*
X007230Y007900D01*
X007150Y007820D01*
X007230Y007740D01*
X007470Y007740D01*
X007470Y007980D02*
X007390Y008060D01*
X007150Y008060D01*
X009556Y008060D02*
X009556Y007740D01*
X009877Y007740D02*
X009877Y008060D01*
X009717Y008220D01*
X009556Y008060D01*
X009556Y007980D02*
X009877Y007980D01*
X010072Y007980D02*
X010072Y007740D01*
X010072Y007980D02*
X010152Y008060D01*
X010392Y008060D01*
X010392Y007740D01*
X010582Y008060D02*
X010662Y008060D01*
X010822Y007900D01*
X010822Y007740D02*
X010822Y008060D01*
X011017Y007980D02*
X011017Y007900D01*
X011338Y007900D01*
X011338Y007820D02*
X011338Y007980D01*
X011258Y008060D01*
X011097Y008060D01*
X011017Y007980D01*
X011258Y007740D02*
X011338Y007820D01*
X011258Y007740D02*
X011097Y007740D01*
X011521Y007740D02*
X011601Y007820D01*
X011601Y008140D01*
X011681Y008060D02*
X011521Y008060D01*
X011865Y008060D02*
X012025Y008060D01*
X011945Y008140D02*
X011945Y007820D01*
X011865Y007740D01*
X012221Y007740D02*
X012221Y007980D01*
X012301Y008060D01*
X012461Y008060D01*
X012461Y007900D02*
X012221Y007900D01*
X012221Y007740D02*
X012461Y007740D01*
X012541Y007820D01*
X012461Y007900D01*
X012736Y007980D02*
X012816Y007900D01*
X013056Y007900D01*
X013056Y007740D02*
X013056Y008220D01*
X012816Y008220D01*
X012736Y008140D01*
X012736Y007980D01*
D14*
X018952Y011450D02*
X018954Y011489D01*
X018960Y011528D01*
X018970Y011566D01*
X018983Y011603D01*
X019000Y011638D01*
X019020Y011672D01*
X019044Y011703D01*
X019071Y011732D01*
X019100Y011758D01*
X019132Y011781D01*
X019166Y011801D01*
X019202Y011817D01*
X019239Y011829D01*
X019278Y011838D01*
X019317Y011843D01*
X019356Y011844D01*
X019395Y011841D01*
X019434Y011834D01*
X019471Y011823D01*
X019508Y011809D01*
X019543Y011791D01*
X019576Y011770D01*
X019607Y011745D01*
X019635Y011718D01*
X019660Y011688D01*
X019682Y011655D01*
X019701Y011621D01*
X019716Y011585D01*
X019728Y011547D01*
X019736Y011509D01*
X019740Y011470D01*
X019740Y011430D01*
X019736Y011391D01*
X019728Y011353D01*
X019716Y011315D01*
X019701Y011279D01*
X019682Y011245D01*
X019660Y011212D01*
X019635Y011182D01*
X019607Y011155D01*
X019576Y011130D01*
X019543Y011109D01*
X019508Y011091D01*
X019471Y011077D01*
X019434Y011066D01*
X019395Y011059D01*
X019356Y011056D01*
X019317Y011057D01*
X019278Y011062D01*
X019239Y011071D01*
X019202Y011083D01*
X019166Y011099D01*
X019132Y011119D01*
X019100Y011142D01*
X019071Y011168D01*
X019044Y011197D01*
X019020Y011228D01*
X019000Y011262D01*
X018983Y011297D01*
X018970Y011334D01*
X018960Y011372D01*
X018954Y011411D01*
X018952Y011450D01*
X002952Y011450D02*
X002954Y011489D01*
X002960Y011528D01*
X002970Y011566D01*
X002983Y011603D01*
X003000Y011638D01*
X003020Y011672D01*
X003044Y011703D01*
X003071Y011732D01*
X003100Y011758D01*
X003132Y011781D01*
X003166Y011801D01*
X003202Y011817D01*
X003239Y011829D01*
X003278Y011838D01*
X003317Y011843D01*
X003356Y011844D01*
X003395Y011841D01*
X003434Y011834D01*
X003471Y011823D01*
X003508Y011809D01*
X003543Y011791D01*
X003576Y011770D01*
X003607Y011745D01*
X003635Y011718D01*
X003660Y011688D01*
X003682Y011655D01*
X003701Y011621D01*
X003716Y011585D01*
X003728Y011547D01*
X003736Y011509D01*
X003740Y011470D01*
X003740Y011430D01*
X003736Y011391D01*
X003728Y011353D01*
X003716Y011315D01*
X003701Y011279D01*
X003682Y011245D01*
X003660Y011212D01*
X003635Y011182D01*
X003607Y011155D01*
X003576Y011130D01*
X003543Y011109D01*
X003508Y011091D01*
X003471Y011077D01*
X003434Y011066D01*
X003395Y011059D01*
X003356Y011056D01*
X003317Y011057D01*
X003278Y011062D01*
X003239Y011071D01*
X003202Y011083D01*
X003166Y011099D01*
X003132Y011119D01*
X003100Y011142D01*
X003071Y011168D01*
X003044Y011197D01*
X003020Y011228D01*
X003000Y011262D01*
X002983Y011297D01*
X002970Y011334D01*
X002960Y011372D01*
X002954Y011411D01*
X002952Y011450D01*
X002952Y000950D02*
X002954Y000989D01*
X002960Y001028D01*
X002970Y001066D01*
X002983Y001103D01*
X003000Y001138D01*
X003020Y001172D01*
X003044Y001203D01*
X003071Y001232D01*
X003100Y001258D01*
X003132Y001281D01*
X003166Y001301D01*
X003202Y001317D01*
X003239Y001329D01*
X003278Y001338D01*
X003317Y001343D01*
X003356Y001344D01*
X003395Y001341D01*
X003434Y001334D01*
X003471Y001323D01*
X003508Y001309D01*
X003543Y001291D01*
X003576Y001270D01*
X003607Y001245D01*
X003635Y001218D01*
X003660Y001188D01*
X003682Y001155D01*
X003701Y001121D01*
X003716Y001085D01*
X003728Y001047D01*
X003736Y001009D01*
X003740Y000970D01*
X003740Y000930D01*
X003736Y000891D01*
X003728Y000853D01*
X003716Y000815D01*
X003701Y000779D01*
X003682Y000745D01*
X003660Y000712D01*
X003635Y000682D01*
X003607Y000655D01*
X003576Y000630D01*
X003543Y000609D01*
X003508Y000591D01*
X003471Y000577D01*
X003434Y000566D01*
X003395Y000559D01*
X003356Y000556D01*
X003317Y000557D01*
X003278Y000562D01*
X003239Y000571D01*
X003202Y000583D01*
X003166Y000599D01*
X003132Y000619D01*
X003100Y000642D01*
X003071Y000668D01*
X003044Y000697D01*
X003020Y000728D01*
X003000Y000762D01*
X002983Y000797D01*
X002970Y000834D01*
X002960Y000872D01*
X002954Y000911D01*
X002952Y000950D01*
X018952Y000950D02*
X018954Y000989D01*
X018960Y001028D01*
X018970Y001066D01*
X018983Y001103D01*
X019000Y001138D01*
X019020Y001172D01*
X019044Y001203D01*
X019071Y001232D01*
X019100Y001258D01*
X019132Y001281D01*
X019166Y001301D01*
X019202Y001317D01*
X019239Y001329D01*
X019278Y001338D01*
X019317Y001343D01*
X019356Y001344D01*
X019395Y001341D01*
X019434Y001334D01*
X019471Y001323D01*
X019508Y001309D01*
X019543Y001291D01*
X019576Y001270D01*
X019607Y001245D01*
X019635Y001218D01*
X019660Y001188D01*
X019682Y001155D01*
X019701Y001121D01*
X019716Y001085D01*
X019728Y001047D01*
X019736Y001009D01*
X019740Y000970D01*
X019740Y000930D01*
X019736Y000891D01*
X019728Y000853D01*
X019716Y000815D01*
X019701Y000779D01*
X019682Y000745D01*
X019660Y000712D01*
X019635Y000682D01*
X019607Y000655D01*
X019576Y000630D01*
X019543Y000609D01*
X019508Y000591D01*
X019471Y000577D01*
X019434Y000566D01*
X019395Y000559D01*
X019356Y000556D01*
X019317Y000557D01*
X019278Y000562D01*
X019239Y000571D01*
X019202Y000583D01*
X019166Y000599D01*
X019132Y000619D01*
X019100Y000642D01*
X019071Y000668D01*
X019044Y000697D01*
X019020Y000728D01*
X019000Y000762D01*
X018983Y000797D01*
X018970Y000834D01*
X018960Y000872D01*
X018954Y000911D01*
X018952Y000950D01*
D15*
X013996Y004220D03*
X014246Y004470D03*
X014496Y004720D03*
X014836Y005580D03*
X014246Y005730D03*
X014586Y006590D03*
X014526Y006920D03*
X015076Y007080D03*
X014526Y007680D03*
D16*
X014526Y007670D03*
X015076Y007070D03*
X014526Y006930D03*
X014586Y006580D03*
X014246Y005720D03*
X014836Y005590D03*
X014496Y004730D03*
X014246Y004480D03*
X013996Y004230D03*
X011126Y006100D03*
X011886Y006510D03*
X013016Y006810D03*
D17*
X012776Y006510D03*
X013476Y006600D03*
X013476Y006610D03*
X014196Y006050D03*
X014246Y005710D03*
X014836Y005600D03*
X014876Y005250D03*
X014876Y004950D03*
X014496Y004740D03*
X014246Y004490D03*
X013996Y004240D03*
X011146Y006060D03*
X011136Y006080D03*
X011646Y006510D03*
X014526Y006940D03*
X014586Y006570D03*
X015076Y007060D03*
X014916Y007450D03*
X014526Y007660D03*
X008586Y006530D03*
X008586Y006520D03*
X008586Y006510D03*
X008586Y006500D03*
X008586Y006140D03*
X008586Y006130D03*
X008586Y006120D03*
X008586Y006110D03*
X008586Y006100D03*
D18*
X008596Y006040D03*
X008596Y006030D03*
X008596Y006020D03*
X008596Y006010D03*
X008596Y006000D03*
X008596Y006600D03*
X008596Y006610D03*
X008596Y006620D03*
X008596Y006630D03*
X010136Y006620D03*
X010136Y006610D03*
X010136Y006600D03*
X010136Y006590D03*
X010136Y006580D03*
X010136Y006570D03*
X010566Y006080D03*
X010566Y006070D03*
X010566Y006060D03*
X010566Y006050D03*
X010566Y006040D03*
X010566Y006030D03*
X010566Y006020D03*
X010566Y006010D03*
X011146Y006040D03*
X012286Y006490D03*
X013486Y006560D03*
X013486Y006570D03*
X013436Y005890D03*
X014246Y005700D03*
X014496Y005450D03*
X014836Y005610D03*
X014586Y005860D03*
X014586Y006560D03*
X014526Y006950D03*
X015076Y007050D03*
X014526Y007650D03*
X014496Y004750D03*
X014246Y004500D03*
X013996Y004250D03*
D19*
X013996Y004260D03*
X014246Y004510D03*
X014496Y004760D03*
X014876Y004960D03*
X014876Y005240D03*
X014496Y005440D03*
X014246Y005690D03*
X014586Y005870D03*
X014836Y005620D03*
X013496Y006520D03*
X013496Y006530D03*
X013046Y006790D03*
X011916Y006490D03*
X011206Y005900D03*
X011196Y005910D03*
X010856Y005730D03*
X009636Y005890D03*
X009626Y006510D03*
X010146Y006640D03*
X008606Y005980D03*
X015076Y007040D03*
D20*
X015076Y007030D03*
X013506Y006400D03*
X013506Y006390D03*
X013506Y006380D03*
X013506Y006370D03*
X013506Y006360D03*
X013506Y006350D03*
X013506Y006340D03*
X013506Y006330D03*
X013506Y006320D03*
X013506Y006310D03*
X013506Y006300D03*
X013506Y006290D03*
X013506Y006280D03*
X013506Y006270D03*
X013506Y006260D03*
X013506Y006250D03*
X013506Y006240D03*
X013506Y006230D03*
X013506Y006220D03*
X013506Y006210D03*
X013506Y006200D03*
X013506Y006190D03*
X013506Y006180D03*
X013506Y006170D03*
X013506Y006160D03*
X013506Y006150D03*
X013506Y006140D03*
X013506Y006130D03*
X013506Y006120D03*
X013506Y006110D03*
X013506Y006100D03*
X013506Y006090D03*
X013506Y006080D03*
X013506Y006070D03*
X013506Y006060D03*
X013506Y006050D03*
X013506Y006040D03*
X013056Y006040D03*
X013056Y006050D03*
X013056Y006060D03*
X013056Y006070D03*
X013056Y006080D03*
X013056Y006090D03*
X013056Y006100D03*
X013056Y006110D03*
X013056Y006120D03*
X013056Y006130D03*
X013056Y006140D03*
X013056Y006150D03*
X013056Y006160D03*
X013056Y006170D03*
X013056Y006180D03*
X013056Y006190D03*
X013056Y006200D03*
X013056Y006210D03*
X013056Y006220D03*
X013056Y006230D03*
X013056Y006240D03*
X013056Y006250D03*
X013056Y006260D03*
X013056Y006270D03*
X013056Y006280D03*
X013056Y006290D03*
X013056Y006300D03*
X013056Y006310D03*
X013056Y006320D03*
X013056Y006330D03*
X013056Y006340D03*
X013056Y006350D03*
X013056Y006360D03*
X013056Y006370D03*
X013056Y006380D03*
X013056Y006450D03*
X013056Y006460D03*
X013056Y006470D03*
X013056Y006480D03*
X013056Y006490D03*
X013056Y006500D03*
X013056Y006510D03*
X013056Y006520D03*
X013056Y006530D03*
X013056Y006540D03*
X013056Y006550D03*
X013056Y006560D03*
X013056Y006570D03*
X013056Y006580D03*
X013056Y006590D03*
X013056Y006600D03*
X013056Y006610D03*
X013056Y006620D03*
X013056Y006630D03*
X013056Y006640D03*
X013056Y006650D03*
X013056Y006660D03*
X013056Y006670D03*
X013056Y006680D03*
X013056Y006690D03*
X013056Y006700D03*
X012776Y006500D03*
X012686Y006320D03*
X012686Y006310D03*
X012686Y006300D03*
X012686Y006290D03*
X012686Y006280D03*
X012686Y006270D03*
X012686Y006260D03*
X012686Y006250D03*
X012686Y006240D03*
X012686Y006230D03*
X012686Y006220D03*
X012686Y006210D03*
X012686Y006200D03*
X012686Y006190D03*
X012686Y006180D03*
X012686Y006170D03*
X012686Y006160D03*
X012686Y006150D03*
X012686Y006140D03*
X012686Y006130D03*
X012686Y006120D03*
X012686Y006110D03*
X012686Y006100D03*
X012686Y006090D03*
X012686Y006080D03*
X012686Y006070D03*
X012686Y006060D03*
X012686Y006050D03*
X012686Y006040D03*
X012686Y006030D03*
X012686Y006020D03*
X012686Y006010D03*
X012686Y006000D03*
X012686Y005990D03*
X012686Y005980D03*
X012686Y005970D03*
X013056Y005970D03*
X013056Y005980D03*
X013056Y005990D03*
X013056Y006000D03*
X013056Y006010D03*
X013056Y006020D03*
X013056Y006030D03*
X012306Y006030D03*
X012306Y006040D03*
X012306Y006050D03*
X012306Y006060D03*
X012306Y006070D03*
X012306Y006080D03*
X012306Y006090D03*
X012306Y006100D03*
X012306Y006110D03*
X012306Y006120D03*
X012306Y006130D03*
X012306Y006140D03*
X012306Y006150D03*
X012306Y006160D03*
X012306Y006170D03*
X012306Y006180D03*
X012306Y006190D03*
X012306Y006200D03*
X012306Y006210D03*
X012306Y006220D03*
X012306Y006230D03*
X012306Y006240D03*
X012306Y006250D03*
X012306Y006260D03*
X012306Y006270D03*
X012306Y006280D03*
X012306Y006290D03*
X012306Y006300D03*
X012306Y006310D03*
X012306Y006320D03*
X012306Y006330D03*
X012306Y006340D03*
X012306Y006350D03*
X012306Y006360D03*
X012306Y006370D03*
X012306Y006380D03*
X012306Y006390D03*
X012306Y006400D03*
X011926Y006380D03*
X011926Y006370D03*
X011926Y006360D03*
X011926Y006350D03*
X011926Y006340D03*
X011926Y006330D03*
X011926Y006320D03*
X011926Y006310D03*
X011926Y006300D03*
X011926Y006290D03*
X011926Y006280D03*
X011926Y006270D03*
X011926Y006260D03*
X011926Y006250D03*
X011926Y006240D03*
X011926Y006230D03*
X011926Y006220D03*
X011926Y006210D03*
X011926Y006200D03*
X011926Y006190D03*
X011926Y006180D03*
X011926Y006170D03*
X011926Y006160D03*
X011926Y006150D03*
X011926Y006140D03*
X011926Y006130D03*
X011926Y006120D03*
X011926Y006110D03*
X011926Y006100D03*
X011926Y006090D03*
X011926Y006080D03*
X011926Y006070D03*
X011926Y006060D03*
X011926Y006050D03*
X011926Y006040D03*
X011926Y006030D03*
X011926Y006020D03*
X011926Y006010D03*
X011926Y006000D03*
X011926Y005990D03*
X011926Y005980D03*
X011926Y005970D03*
X011556Y005970D03*
X011556Y005980D03*
X011556Y005990D03*
X011556Y006000D03*
X011556Y006010D03*
X011556Y006020D03*
X011556Y006030D03*
X011556Y006040D03*
X011556Y006050D03*
X011556Y006060D03*
X011556Y006070D03*
X011556Y006080D03*
X011556Y006090D03*
X011556Y006100D03*
X011556Y006110D03*
X011556Y006120D03*
X011556Y006130D03*
X011556Y006140D03*
X011556Y006150D03*
X011556Y006160D03*
X011556Y006170D03*
X011556Y006180D03*
X011556Y006190D03*
X011556Y006200D03*
X011556Y006210D03*
X011556Y006220D03*
X011556Y006230D03*
X011556Y006240D03*
X011556Y006250D03*
X011556Y006260D03*
X011556Y006270D03*
X011556Y006280D03*
X011556Y006290D03*
X011556Y006300D03*
X011556Y006310D03*
X011556Y006320D03*
X011216Y006350D03*
X011216Y006360D03*
X011206Y006380D03*
X011206Y006390D03*
X011196Y006410D03*
X011186Y006420D03*
X010896Y006400D03*
X010886Y006380D03*
X010886Y006370D03*
X010876Y006350D03*
X010876Y006340D03*
X010876Y006330D03*
X010876Y006320D03*
X010876Y006310D03*
X010876Y006300D03*
X010876Y006290D03*
X010876Y006280D03*
X010876Y006270D03*
X010886Y006260D03*
X010886Y006250D03*
X010886Y006240D03*
X010896Y006220D03*
X010906Y006200D03*
X010916Y006190D03*
X010926Y006180D03*
X011136Y006020D03*
X011236Y005860D03*
X011236Y005850D03*
X011246Y005830D03*
X011246Y005820D03*
X011246Y005810D03*
X011246Y005800D03*
X011246Y005790D03*
X010816Y005810D03*
X010816Y005820D03*
X010816Y005830D03*
X010386Y005890D03*
X010166Y006030D03*
X009806Y006390D03*
X010496Y006610D03*
X010506Y006600D03*
X010506Y006590D03*
X010516Y006570D03*
X010516Y006560D03*
X010516Y006550D03*
X011646Y006500D03*
X012306Y006020D03*
X012306Y006010D03*
X012306Y006000D03*
X012306Y005990D03*
X012306Y005980D03*
X012306Y005970D03*
X014586Y005880D03*
X013996Y004270D03*
X008786Y005890D03*
X008786Y006740D03*
D21*
X009076Y006540D03*
X009086Y006520D03*
X009096Y006500D03*
X009106Y006470D03*
X009116Y006440D03*
X009126Y006390D03*
X009126Y006240D03*
X009116Y006190D03*
X009106Y006160D03*
X009096Y006130D03*
X009086Y006110D03*
X009406Y006140D03*
X009406Y006150D03*
X009406Y006160D03*
X009406Y006170D03*
X009406Y006180D03*
X009406Y006190D03*
X009406Y006200D03*
X009406Y006210D03*
X009406Y006220D03*
X009406Y006230D03*
X009406Y006240D03*
X009406Y006250D03*
X009406Y006260D03*
X009416Y006280D03*
X009416Y006290D03*
X009416Y006300D03*
X009426Y006330D03*
X009416Y006120D03*
X009416Y006110D03*
X009416Y006100D03*
X009426Y006070D03*
X009776Y005970D03*
X009826Y006040D03*
X009836Y006070D03*
X009846Y006100D03*
X009846Y006110D03*
X009846Y006120D03*
X009856Y006140D03*
X009856Y006150D03*
X009856Y006160D03*
X009856Y006170D03*
X009856Y006180D03*
X009856Y006190D03*
X009856Y006200D03*
X009856Y006210D03*
X009856Y006220D03*
X009856Y006230D03*
X009856Y006240D03*
X009856Y006250D03*
X009856Y006260D03*
X009846Y006280D03*
X009846Y006290D03*
X009846Y006300D03*
X009836Y006330D03*
X010146Y006110D03*
X010146Y006100D03*
X010146Y006090D03*
X010186Y006000D03*
X010196Y005990D03*
X010826Y005860D03*
X011226Y005740D03*
X011556Y005960D03*
X011176Y006180D03*
X011216Y006260D03*
X011156Y006450D03*
X011566Y006370D03*
X011566Y006360D03*
X011576Y006380D03*
X011916Y006390D03*
X012316Y006470D03*
X012696Y006360D03*
X012706Y006380D03*
X013046Y006390D03*
X013056Y005960D03*
X012686Y005960D03*
X012306Y005960D03*
X011926Y005960D03*
X010516Y006490D03*
X010516Y006500D03*
X010456Y006650D03*
X010166Y006660D03*
X013496Y006010D03*
X013496Y006000D03*
X014196Y006070D03*
X014586Y005890D03*
X014876Y005230D03*
X014876Y004970D03*
X013996Y004280D03*
X014286Y006740D03*
X014826Y006770D03*
X015076Y007020D03*
X014916Y007430D03*
D22*
X015076Y007010D03*
X014826Y006760D03*
X014576Y006510D03*
X014286Y006750D03*
X013076Y006770D03*
X012716Y006390D03*
X011946Y006470D03*
X011586Y006390D03*
X010836Y005870D03*
X010156Y006150D03*
X010496Y006450D03*
X010506Y006460D03*
X010506Y006470D03*
X009006Y006620D03*
X008996Y006630D03*
X009046Y006050D03*
X009026Y006030D03*
X009016Y006020D03*
X009006Y006010D03*
X013426Y005900D03*
X013996Y004290D03*
X014286Y007850D03*
D23*
X014286Y007840D03*
X014536Y007590D03*
X014466Y007410D03*
X014466Y007400D03*
X014466Y007390D03*
X014466Y007380D03*
X014466Y007370D03*
X014456Y007350D03*
X014456Y007340D03*
X014456Y007330D03*
X014456Y007320D03*
X014456Y007310D03*
X014456Y007300D03*
X014456Y007290D03*
X014456Y007280D03*
X014456Y007270D03*
X014456Y007260D03*
X014456Y007250D03*
X014466Y007230D03*
X014466Y007220D03*
X014466Y007210D03*
X014466Y007200D03*
X014466Y007190D03*
X014536Y007010D03*
X014286Y006760D03*
X014576Y006500D03*
X014646Y006320D03*
X014646Y006310D03*
X014646Y006300D03*
X014646Y006290D03*
X014656Y006270D03*
X014656Y006260D03*
X014656Y006250D03*
X014656Y006240D03*
X014666Y006230D03*
X014666Y006220D03*
X014666Y006190D03*
X014656Y006170D03*
X014656Y006160D03*
X014656Y006150D03*
X014656Y006140D03*
X014646Y006120D03*
X014646Y006110D03*
X014646Y006100D03*
X014986Y006020D03*
X014986Y006010D03*
X014996Y006060D03*
X014996Y006070D03*
X015006Y006120D03*
X015006Y006130D03*
X015006Y006140D03*
X015006Y006150D03*
X015006Y006160D03*
X015006Y006170D03*
X015006Y006180D03*
X015006Y006190D03*
X015006Y006200D03*
X015006Y006210D03*
X015006Y006220D03*
X015006Y006230D03*
X015006Y006240D03*
X015006Y006250D03*
X015006Y006260D03*
X015006Y006270D03*
X015006Y006280D03*
X015006Y006290D03*
X014996Y006340D03*
X014996Y006350D03*
X014986Y006390D03*
X014986Y006400D03*
X015326Y006470D03*
X015336Y006420D03*
X015336Y006410D03*
X015346Y006390D03*
X015346Y006380D03*
X015346Y006370D03*
X015346Y006360D03*
X015346Y006350D03*
X015346Y006340D03*
X015356Y006310D03*
X015356Y006300D03*
X015356Y006290D03*
X015356Y006280D03*
X015356Y006270D03*
X015356Y006260D03*
X015356Y006250D03*
X015356Y006240D03*
X015356Y006230D03*
X015356Y006220D03*
X015356Y006210D03*
X015356Y006200D03*
X015356Y006190D03*
X015356Y006180D03*
X015356Y006170D03*
X015356Y006160D03*
X015356Y006150D03*
X015356Y006140D03*
X015356Y006130D03*
X015356Y006120D03*
X015356Y006110D03*
X015356Y006100D03*
X015346Y006040D03*
X015346Y006030D03*
X015346Y006020D03*
X015336Y006000D03*
X015336Y005990D03*
X015326Y005940D03*
X014576Y005920D03*
X014196Y006080D03*
X013476Y005980D03*
X012726Y006400D03*
X011956Y006460D03*
X011896Y006400D03*
X011596Y006400D03*
X011046Y006500D03*
X011056Y006120D03*
X010846Y005880D03*
X010236Y005970D03*
X010166Y006170D03*
X010176Y006180D03*
X010486Y006440D03*
X009626Y006500D03*
X008966Y006650D03*
X008976Y005990D03*
X009636Y005900D03*
X013736Y005300D03*
X013736Y005290D03*
X014086Y005260D03*
X014086Y005250D03*
X014086Y005240D03*
X014076Y005200D03*
X014076Y005190D03*
X014076Y005180D03*
X014096Y005300D03*
X014076Y005020D03*
X014076Y005010D03*
X014086Y004980D03*
X014086Y004970D03*
X014086Y004960D03*
X014086Y004950D03*
X014086Y004940D03*
X014096Y004910D03*
X014096Y004900D03*
X014436Y004980D03*
X014436Y004990D03*
X014426Y005020D03*
X014426Y005030D03*
X014426Y005040D03*
X014416Y005060D03*
X014416Y005070D03*
X014416Y005080D03*
X014416Y005090D03*
X014416Y005100D03*
X014416Y005110D03*
X014416Y005120D03*
X014416Y005130D03*
X014416Y005140D03*
X014426Y005170D03*
X014426Y005180D03*
X014436Y005210D03*
X014436Y005220D03*
X014876Y005220D03*
X014876Y004980D03*
X013996Y004300D03*
X013736Y004900D03*
X014826Y006750D03*
X015076Y007000D03*
X014916Y007180D03*
X014916Y007420D03*
X014136Y007510D03*
X014126Y007490D03*
X014126Y007480D03*
X014126Y007470D03*
X014116Y007440D03*
X014116Y007430D03*
X014116Y007420D03*
X014116Y007410D03*
X014116Y007400D03*
X014106Y007380D03*
X014106Y007370D03*
X014106Y007360D03*
X014106Y007350D03*
X014106Y007340D03*
X014106Y007330D03*
X014106Y007320D03*
X014106Y007310D03*
X014106Y007300D03*
X014106Y007290D03*
X014106Y007280D03*
X014106Y007270D03*
X014106Y007260D03*
X014106Y007250D03*
X014106Y007240D03*
X014106Y007230D03*
X014106Y007220D03*
X014116Y007200D03*
X014116Y007190D03*
X014116Y007180D03*
X014116Y007170D03*
X014116Y007160D03*
X014126Y007140D03*
X014126Y007130D03*
X014126Y007120D03*
X014126Y007110D03*
X014136Y007090D03*
X013776Y007100D03*
X013776Y007110D03*
X013776Y007120D03*
X013776Y007130D03*
X013766Y007190D03*
X013766Y007200D03*
X013766Y007210D03*
X013766Y007220D03*
X013766Y007230D03*
X013766Y007240D03*
X013766Y007250D03*
X013766Y007260D03*
X013766Y007270D03*
X013766Y007280D03*
X013766Y007290D03*
X013766Y007300D03*
X013766Y007310D03*
X013766Y007320D03*
X013766Y007330D03*
X013766Y007340D03*
X013766Y007350D03*
X013766Y007360D03*
X013766Y007370D03*
X013766Y007380D03*
X013766Y007390D03*
X013766Y007400D03*
X013776Y007430D03*
X013776Y007440D03*
X013776Y007450D03*
X013776Y007460D03*
X013776Y007470D03*
X013776Y007480D03*
X013776Y007490D03*
D24*
X013786Y007520D03*
X013786Y007530D03*
X013786Y007540D03*
X013796Y007570D03*
X013806Y007600D03*
X013806Y007610D03*
X013806Y007620D03*
X013816Y007630D03*
X013816Y007640D03*
X013816Y007650D03*
X013826Y007660D03*
X013826Y007670D03*
X013836Y007690D03*
X013836Y007700D03*
X013846Y007730D03*
X013856Y007750D03*
X014176Y007630D03*
X014176Y007620D03*
X014166Y007600D03*
X014166Y007590D03*
X014186Y007640D03*
X014186Y007650D03*
X014196Y007660D03*
X014206Y007680D03*
X014516Y007520D03*
X014506Y007500D03*
X014496Y007480D03*
X014486Y007460D03*
X014916Y007410D03*
X014916Y007190D03*
X015076Y006990D03*
X015216Y006750D03*
X015246Y006690D03*
X015256Y006680D03*
X015256Y006670D03*
X015266Y006660D03*
X015266Y006650D03*
X015276Y006630D03*
X015276Y006620D03*
X015286Y006610D03*
X015286Y006600D03*
X015296Y006570D03*
X015316Y006510D03*
X014976Y006430D03*
X014966Y006460D03*
X014956Y006480D03*
X014956Y006490D03*
X014946Y006500D03*
X014946Y006510D03*
X014946Y006520D03*
X014936Y006530D03*
X014926Y006550D03*
X014906Y006590D03*
X014826Y006740D03*
X014576Y006480D03*
X014606Y006410D03*
X014616Y006400D03*
X014616Y006390D03*
X014626Y006370D03*
X014626Y006040D03*
X014616Y006020D03*
X014576Y005930D03*
X014826Y005680D03*
X014916Y005830D03*
X014926Y005860D03*
X014936Y005880D03*
X014946Y005900D03*
X014946Y005910D03*
X014956Y005920D03*
X014956Y005930D03*
X014966Y005950D03*
X015296Y005840D03*
X015296Y005830D03*
X015286Y005810D03*
X015286Y005800D03*
X015276Y005790D03*
X015276Y005780D03*
X015266Y005760D03*
X015266Y005750D03*
X015256Y005740D03*
X015256Y005730D03*
X015246Y005720D03*
X015216Y005660D03*
X015076Y005430D03*
X014876Y005210D03*
X014876Y004990D03*
X014506Y004820D03*
X014486Y004870D03*
X014466Y004910D03*
X014456Y004930D03*
X014126Y004820D03*
X014126Y004810D03*
X014136Y004790D03*
X014136Y004780D03*
X014146Y004770D03*
X014146Y004760D03*
X014156Y004750D03*
X014166Y004730D03*
X014176Y004710D03*
X014256Y004570D03*
X013996Y004310D03*
X013806Y004660D03*
X013786Y004710D03*
X013776Y004730D03*
X013776Y004740D03*
X013776Y004750D03*
X013766Y004770D03*
X013766Y004780D03*
X013766Y004790D03*
X013756Y004800D03*
X013756Y004810D03*
X013746Y004840D03*
X013746Y004850D03*
X013726Y004940D03*
X013726Y004950D03*
X013726Y004960D03*
X013726Y004970D03*
X013756Y005390D03*
X013756Y005400D03*
X013766Y005420D03*
X013776Y005450D03*
X013776Y005460D03*
X013786Y005490D03*
X013796Y005510D03*
X013806Y005530D03*
X013806Y005540D03*
X013806Y005550D03*
X013816Y005560D03*
X013826Y005580D03*
X014136Y005420D03*
X014136Y005410D03*
X014126Y005390D03*
X014116Y005360D03*
X014146Y005430D03*
X014146Y005440D03*
X014156Y005450D03*
X014156Y005460D03*
X014166Y005470D03*
X014166Y005480D03*
X014176Y005490D03*
X014256Y005630D03*
X014506Y005380D03*
X014486Y005330D03*
X014476Y005310D03*
X014466Y005290D03*
X014456Y005270D03*
X014196Y006090D03*
X014286Y006770D03*
X014206Y006920D03*
X014196Y006940D03*
X014186Y006950D03*
X014186Y006960D03*
X014176Y006970D03*
X014176Y006980D03*
X014166Y007000D03*
X014156Y007020D03*
X013846Y006880D03*
X013846Y006870D03*
X013846Y006860D03*
X013856Y006850D03*
X013856Y006840D03*
X013866Y006820D03*
X013836Y006890D03*
X013836Y006900D03*
X013826Y006910D03*
X013826Y006920D03*
X013826Y006930D03*
X013816Y006940D03*
X013816Y006950D03*
X013816Y006960D03*
X013806Y006990D03*
X013786Y007060D03*
X013786Y007070D03*
X014486Y007140D03*
X014496Y007120D03*
X014506Y007100D03*
X014286Y007830D03*
X012786Y006480D03*
X012346Y006450D03*
X012346Y006440D03*
X012346Y006430D03*
X012346Y006420D03*
X012346Y006410D03*
X011966Y006450D03*
X011656Y006480D03*
X010866Y005890D03*
X010186Y006200D03*
D25*
X010191Y006210D03*
X010461Y006410D03*
X010301Y006730D03*
X008941Y006660D03*
X011071Y005640D03*
X013101Y006710D03*
X013101Y006720D03*
X013101Y006730D03*
X013101Y006740D03*
X013101Y006750D03*
X013861Y006830D03*
X013871Y006810D03*
X013881Y006800D03*
X013881Y006790D03*
X013891Y006780D03*
X013891Y006770D03*
X013901Y006760D03*
X013901Y006750D03*
X013911Y006740D03*
X014201Y006930D03*
X014211Y006910D03*
X014221Y006900D03*
X014221Y006890D03*
X014231Y006880D03*
X014231Y006870D03*
X014241Y006860D03*
X014291Y006780D03*
X014541Y007030D03*
X014541Y007040D03*
X014521Y007070D03*
X014511Y007080D03*
X014511Y007090D03*
X014511Y007510D03*
X014521Y007530D03*
X014541Y007560D03*
X014541Y007570D03*
X014231Y007720D03*
X014231Y007730D03*
X014221Y007710D03*
X014221Y007700D03*
X014211Y007690D03*
X014201Y007670D03*
X013881Y007800D03*
X013871Y007780D03*
X013861Y007770D03*
X013861Y007760D03*
X013851Y007740D03*
X013841Y007720D03*
X013841Y007710D03*
X013891Y007820D03*
X013901Y007840D03*
X014041Y008080D03*
X014291Y007820D03*
X015071Y006980D03*
X015201Y006780D03*
X015211Y006760D03*
X015221Y006740D03*
X015231Y006730D03*
X015231Y006720D03*
X015241Y006710D03*
X015241Y006700D03*
X014921Y006570D03*
X014921Y006560D03*
X014911Y006580D03*
X014901Y006600D03*
X014891Y006620D03*
X014931Y006540D03*
X014601Y006420D03*
X014591Y006440D03*
X014201Y006310D03*
X014041Y006520D03*
X014601Y006000D03*
X014601Y005990D03*
X014591Y005970D03*
X014571Y005940D03*
X014611Y006010D03*
X014921Y005850D03*
X014921Y005840D03*
X014911Y005820D03*
X014901Y005810D03*
X014891Y005790D03*
X014931Y005870D03*
X014941Y005890D03*
X015241Y005710D03*
X015241Y005700D03*
X015231Y005690D03*
X015231Y005680D03*
X015221Y005670D03*
X015211Y005650D03*
X015201Y005640D03*
X014491Y005340D03*
X014481Y005320D03*
X014471Y005300D03*
X014181Y005500D03*
X014191Y005520D03*
X013861Y005640D03*
X013861Y005650D03*
X013851Y005630D03*
X013841Y005620D03*
X013841Y005610D03*
X013831Y005600D03*
X013831Y005590D03*
X013821Y005570D03*
X013801Y005520D03*
X013791Y005500D03*
X014001Y005880D03*
X013411Y005910D03*
X014471Y004900D03*
X014481Y004890D03*
X014481Y004880D03*
X014491Y004860D03*
X014501Y004850D03*
X014501Y004840D03*
X014501Y004830D03*
X014201Y004670D03*
X014191Y004680D03*
X014191Y004690D03*
X014181Y004700D03*
X014171Y004720D03*
X014161Y004740D03*
X013831Y004610D03*
X013831Y004600D03*
X013821Y004620D03*
X013821Y004630D03*
X013811Y004640D03*
X013811Y004650D03*
X013801Y004670D03*
X013801Y004680D03*
X013791Y004690D03*
X013791Y004700D03*
X013781Y004720D03*
X013861Y004550D03*
X014001Y004320D03*
D26*
X014001Y004330D03*
X013921Y004450D03*
X013911Y004470D03*
X013901Y004480D03*
X013891Y004490D03*
X013891Y004500D03*
X013881Y004510D03*
X014221Y004640D03*
X014231Y004630D03*
X014241Y004610D03*
X014251Y004600D03*
X014251Y004590D03*
X014881Y005010D03*
X014871Y005190D03*
X015081Y005450D03*
X015111Y005500D03*
X015121Y005510D03*
X015131Y005530D03*
X015141Y005540D03*
X015151Y005550D03*
X015181Y005600D03*
X014871Y005760D03*
X014861Y005750D03*
X014851Y005740D03*
X014831Y005710D03*
X014831Y005700D03*
X014251Y005610D03*
X014251Y005600D03*
X014241Y005590D03*
X014231Y005570D03*
X014221Y005560D03*
X014211Y005550D03*
X013921Y005740D03*
X013921Y005750D03*
X013931Y005760D03*
X013941Y005770D03*
X013961Y005800D03*
X014001Y005860D03*
X013911Y005730D03*
X013901Y005720D03*
X013891Y005700D03*
X014201Y006110D03*
X014201Y006300D03*
X014041Y006540D03*
X014011Y006590D03*
X014001Y006600D03*
X013981Y006630D03*
X013971Y006640D03*
X013951Y006670D03*
X013941Y006690D03*
X014261Y006830D03*
X014271Y006820D03*
X014281Y006810D03*
X014281Y006800D03*
X014831Y006710D03*
X014851Y006670D03*
X014861Y006660D03*
X014871Y006650D03*
X015131Y006880D03*
X015141Y006870D03*
X015151Y006860D03*
X015171Y006830D03*
X015121Y006900D03*
X015111Y006910D03*
X015081Y006960D03*
X014911Y007390D03*
X014281Y007790D03*
X014281Y007800D03*
X014271Y007780D03*
X014261Y007770D03*
X013951Y007920D03*
X013951Y007930D03*
X013961Y007940D03*
X013941Y007910D03*
X013931Y007890D03*
X014041Y008060D03*
X012791Y006470D03*
X011661Y006470D03*
X011041Y006490D03*
X010451Y006400D03*
X010391Y005900D03*
X008781Y006730D03*
D27*
X009626Y006490D03*
X010216Y006230D03*
X010436Y006390D03*
X011056Y006130D03*
X009636Y005910D03*
X008786Y005900D03*
X013946Y005780D03*
X013956Y005790D03*
X013966Y005810D03*
X013976Y005820D03*
X013986Y005830D03*
X013996Y005850D03*
X014196Y006120D03*
X014036Y006550D03*
X014026Y006570D03*
X014016Y006580D03*
X013996Y006610D03*
X013986Y006620D03*
X014836Y006690D03*
X014836Y006700D03*
X014846Y006680D03*
X015126Y006890D03*
X015106Y006920D03*
X015096Y006930D03*
X015086Y006940D03*
X015086Y006950D03*
X014916Y007210D03*
X014916Y007220D03*
X014916Y007380D03*
X014006Y008000D03*
X013996Y007990D03*
X013986Y007970D03*
X013976Y007960D03*
X013966Y007950D03*
X014036Y008050D03*
X014846Y005730D03*
X014836Y005720D03*
X015126Y005520D03*
X015106Y005490D03*
X015096Y005480D03*
X015086Y005470D03*
X015086Y005460D03*
X014876Y005180D03*
X014876Y005020D03*
X014236Y004620D03*
X013946Y004420D03*
X013936Y004430D03*
X013926Y004440D03*
X013916Y004460D03*
X013956Y004400D03*
X013966Y004390D03*
X013996Y004340D03*
X014236Y005580D03*
D28*
X013991Y005840D03*
X014201Y006280D03*
X014201Y006290D03*
X014031Y006560D03*
X013991Y007980D03*
X014011Y008010D03*
X014021Y008020D03*
X014031Y008030D03*
X014031Y008040D03*
X010831Y006410D03*
X010421Y006380D03*
X010231Y006240D03*
X010891Y005900D03*
X011071Y006000D03*
X013951Y004410D03*
X013971Y004380D03*
X013981Y004370D03*
X013991Y004360D03*
X013991Y004350D03*
D29*
X014251Y004520D03*
X014501Y004770D03*
X014501Y005430D03*
X014251Y005680D03*
X014001Y005930D03*
X014191Y006060D03*
X014041Y006470D03*
X014281Y006720D03*
X014581Y006540D03*
X014831Y006790D03*
X014531Y006970D03*
X014911Y007160D03*
X014911Y007440D03*
X014531Y007630D03*
X014281Y007880D03*
X014041Y008130D03*
X012301Y006750D03*
X012301Y006640D03*
X012301Y006480D03*
X011231Y005870D03*
X011221Y005880D03*
X011211Y005890D03*
X011241Y005840D03*
X011071Y005630D03*
X010881Y005710D03*
X010871Y005720D03*
X010851Y005740D03*
X010841Y005750D03*
X010831Y005760D03*
X010831Y005770D03*
X010821Y005780D03*
X010821Y005790D03*
X010821Y005800D03*
X010551Y005980D03*
X010901Y006210D03*
X010891Y006230D03*
X010881Y006360D03*
X010891Y006390D03*
X010311Y006740D03*
X010151Y006650D03*
X008611Y006650D03*
X013501Y006510D03*
X013501Y006500D03*
X014831Y005630D03*
X015081Y005380D03*
D30*
X015076Y005440D03*
X015156Y005560D03*
X015166Y005570D03*
X015166Y005580D03*
X015176Y005590D03*
X015186Y005610D03*
X015196Y005620D03*
X015196Y005630D03*
X014886Y005780D03*
X014876Y005770D03*
X014896Y005800D03*
X014826Y005690D03*
X014576Y005950D03*
X014586Y005960D03*
X014596Y005980D03*
X014196Y006100D03*
X014006Y005870D03*
X013896Y005710D03*
X013886Y005690D03*
X013876Y005680D03*
X013876Y005670D03*
X013866Y005660D03*
X014186Y005510D03*
X014196Y005530D03*
X014206Y005540D03*
X014256Y005620D03*
X014506Y005370D03*
X014506Y005360D03*
X014496Y005350D03*
X014876Y005200D03*
X014876Y005000D03*
X014216Y004650D03*
X014206Y004660D03*
X014256Y004580D03*
X013876Y004530D03*
X013876Y004520D03*
X013866Y004540D03*
X013856Y004560D03*
X013846Y004570D03*
X013846Y004580D03*
X013836Y004590D03*
X014596Y006430D03*
X014586Y006450D03*
X014576Y006460D03*
X014576Y006470D03*
X014876Y006640D03*
X014886Y006630D03*
X014896Y006610D03*
X014826Y006720D03*
X014826Y006730D03*
X015156Y006850D03*
X015166Y006840D03*
X015176Y006820D03*
X015186Y006810D03*
X015186Y006800D03*
X015196Y006790D03*
X015206Y006770D03*
X015076Y006970D03*
X014916Y007200D03*
X014916Y007400D03*
X014536Y007550D03*
X014526Y007540D03*
X014246Y007740D03*
X014246Y007750D03*
X014256Y007760D03*
X014286Y007810D03*
X013936Y007900D03*
X013926Y007880D03*
X013916Y007870D03*
X013916Y007860D03*
X013906Y007850D03*
X013896Y007830D03*
X013886Y007810D03*
X013876Y007790D03*
X014046Y008070D03*
X014526Y007060D03*
X014536Y007050D03*
X014256Y006840D03*
X014246Y006850D03*
X014286Y006790D03*
X013966Y006650D03*
X013956Y006660D03*
X013946Y006680D03*
X013936Y006700D03*
X013926Y006710D03*
X013926Y006720D03*
X013916Y006730D03*
X014046Y006530D03*
X010206Y006220D03*
X008936Y005970D03*
D31*
X008621Y005970D03*
X009411Y006130D03*
X009421Y006090D03*
X009421Y006080D03*
X009431Y006060D03*
X009431Y006050D03*
X009441Y006040D03*
X009441Y006030D03*
X009451Y006020D03*
X009451Y006010D03*
X009461Y006000D03*
X009471Y005990D03*
X009481Y005980D03*
X009491Y005970D03*
X009781Y005980D03*
X009791Y005990D03*
X009801Y006000D03*
X009811Y006010D03*
X009811Y006020D03*
X009821Y006030D03*
X009831Y006050D03*
X009831Y006060D03*
X009841Y006080D03*
X009841Y006090D03*
X009851Y006130D03*
X009851Y006270D03*
X009841Y006310D03*
X009841Y006320D03*
X009831Y006340D03*
X009831Y006350D03*
X009821Y006360D03*
X009821Y006370D03*
X009811Y006380D03*
X009801Y006400D03*
X009791Y006410D03*
X009781Y006420D03*
X009771Y006430D03*
X009481Y006420D03*
X009471Y006410D03*
X009461Y006400D03*
X009451Y006390D03*
X009451Y006380D03*
X009441Y006370D03*
X009441Y006360D03*
X009431Y006350D03*
X009431Y006340D03*
X009421Y006320D03*
X009421Y006310D03*
X009411Y006270D03*
X010151Y006080D03*
X010151Y006070D03*
X010151Y006060D03*
X010161Y006050D03*
X010161Y006040D03*
X010171Y006020D03*
X010181Y006010D03*
X010821Y005850D03*
X010821Y005840D03*
X010901Y005700D03*
X011231Y005750D03*
X011241Y005760D03*
X011241Y005770D03*
X011241Y005780D03*
X011071Y006110D03*
X011181Y006190D03*
X011191Y006200D03*
X011201Y006210D03*
X011201Y006220D03*
X011211Y006230D03*
X011211Y006240D03*
X011211Y006250D03*
X011221Y006270D03*
X011221Y006280D03*
X011221Y006290D03*
X011221Y006300D03*
X011221Y006310D03*
X011221Y006320D03*
X011221Y006330D03*
X011221Y006340D03*
X011211Y006370D03*
X011201Y006400D03*
X011181Y006430D03*
X011171Y006440D03*
X011561Y006350D03*
X011561Y006340D03*
X011561Y006330D03*
X011931Y006480D03*
X012301Y006650D03*
X012301Y006660D03*
X012301Y006730D03*
X012301Y006740D03*
X012701Y006370D03*
X012691Y006350D03*
X012691Y006340D03*
X012691Y006330D03*
X013061Y006780D03*
X013511Y006490D03*
X014041Y006480D03*
X014201Y006340D03*
X014581Y006530D03*
X014831Y006780D03*
X014531Y006980D03*
X014281Y006730D03*
X013501Y006030D03*
X013501Y006020D03*
X014001Y005920D03*
X014251Y005670D03*
X014501Y005420D03*
X014831Y005640D03*
X015081Y005390D03*
X014501Y004780D03*
X014251Y004530D03*
X010941Y006170D03*
X010521Y006510D03*
X010521Y006520D03*
X010521Y006530D03*
X010521Y006540D03*
X010511Y006580D03*
X010491Y006620D03*
X010481Y006630D03*
X010471Y006640D03*
X014041Y008120D03*
X014281Y007870D03*
X014531Y007620D03*
D32*
X014531Y007610D03*
X014281Y007860D03*
X014041Y008110D03*
X014911Y007170D03*
X014531Y006990D03*
X014581Y006520D03*
X014041Y006490D03*
X013521Y006480D03*
X013491Y005990D03*
X014001Y005910D03*
X014251Y005660D03*
X014501Y005410D03*
X014831Y005650D03*
X014581Y005900D03*
X015081Y005400D03*
X014501Y004790D03*
X014251Y004540D03*
X011221Y005730D03*
X011211Y005720D03*
X011201Y005710D03*
X011161Y006170D03*
X010531Y005970D03*
X010211Y005980D03*
X010151Y006120D03*
X010151Y006130D03*
X010151Y006140D03*
X009751Y005960D03*
X009511Y005960D03*
X009101Y006140D03*
X009101Y006150D03*
X009111Y006170D03*
X009111Y006180D03*
X009121Y006200D03*
X009121Y006210D03*
X009121Y006220D03*
X009121Y006230D03*
X009131Y006250D03*
X009131Y006260D03*
X009131Y006270D03*
X009131Y006280D03*
X009131Y006290D03*
X009131Y006300D03*
X009131Y006310D03*
X009131Y006320D03*
X009131Y006330D03*
X009131Y006340D03*
X009131Y006350D03*
X009131Y006360D03*
X009131Y006370D03*
X009131Y006380D03*
X009121Y006400D03*
X009121Y006410D03*
X009121Y006420D03*
X009121Y006430D03*
X009111Y006450D03*
X009111Y006460D03*
X009101Y006480D03*
X009101Y006490D03*
X009091Y006510D03*
X009081Y006530D03*
X009071Y006550D03*
X009061Y006560D03*
X009061Y006570D03*
X009051Y006580D03*
X009041Y006590D03*
X009031Y006600D03*
X009021Y006610D03*
X008631Y006660D03*
X009091Y006120D03*
X009081Y006100D03*
X009071Y006090D03*
X009071Y006080D03*
X009061Y006070D03*
X009051Y006060D03*
X009041Y006040D03*
X009491Y006430D03*
X009511Y006440D03*
X009751Y006440D03*
X010511Y006480D03*
X012301Y006670D03*
X012301Y006680D03*
X012301Y006690D03*
X012301Y006700D03*
X012301Y006710D03*
X012301Y006720D03*
D33*
X012331Y006460D03*
X012781Y006490D03*
X011651Y006490D03*
X010441Y006660D03*
X010161Y006160D03*
X011191Y005700D03*
X008991Y006000D03*
X008981Y006640D03*
X014001Y005900D03*
X014251Y005650D03*
X014501Y005400D03*
X014431Y005200D03*
X014431Y005190D03*
X014431Y005010D03*
X014431Y005000D03*
X014501Y004800D03*
X014251Y004550D03*
X014071Y005030D03*
X014071Y005040D03*
X014071Y005050D03*
X014071Y005060D03*
X014071Y005070D03*
X014071Y005080D03*
X014071Y005090D03*
X014071Y005100D03*
X014071Y005110D03*
X014071Y005120D03*
X014071Y005130D03*
X014071Y005140D03*
X014071Y005150D03*
X014071Y005160D03*
X014071Y005170D03*
X014831Y005660D03*
X014581Y005910D03*
X014651Y006130D03*
X014661Y006180D03*
X014661Y006200D03*
X014661Y006210D03*
X014651Y006280D03*
X014201Y006330D03*
X014041Y006500D03*
X014531Y007000D03*
X014531Y007600D03*
X014041Y008100D03*
X015341Y006400D03*
X015341Y006010D03*
X015081Y005410D03*
D34*
X015081Y005420D03*
X014831Y005670D03*
X014961Y005940D03*
X014971Y005960D03*
X014971Y005970D03*
X014971Y005980D03*
X014981Y005990D03*
X014981Y006000D03*
X014991Y006030D03*
X014991Y006040D03*
X014991Y006050D03*
X015001Y006080D03*
X015001Y006090D03*
X015001Y006100D03*
X015001Y006110D03*
X015001Y006300D03*
X015001Y006310D03*
X015001Y006320D03*
X015001Y006330D03*
X014991Y006360D03*
X014991Y006370D03*
X014991Y006380D03*
X014981Y006410D03*
X014981Y006420D03*
X014971Y006440D03*
X014971Y006450D03*
X014961Y006470D03*
X014641Y006340D03*
X014641Y006330D03*
X014631Y006350D03*
X014631Y006360D03*
X014621Y006380D03*
X014571Y006490D03*
X014201Y006320D03*
X014041Y006510D03*
X014641Y006090D03*
X014641Y006080D03*
X014641Y006070D03*
X014631Y006060D03*
X014631Y006050D03*
X014621Y006030D03*
X014251Y005640D03*
X014131Y005400D03*
X014121Y005380D03*
X014121Y005370D03*
X014111Y005350D03*
X014111Y005340D03*
X014101Y005330D03*
X014101Y005320D03*
X014101Y005310D03*
X014091Y005290D03*
X014091Y005280D03*
X014091Y005270D03*
X014081Y005230D03*
X014081Y005220D03*
X014081Y005210D03*
X014081Y005000D03*
X014081Y004990D03*
X014091Y004930D03*
X014091Y004920D03*
X014101Y004890D03*
X014101Y004880D03*
X014101Y004870D03*
X014111Y004860D03*
X014111Y004850D03*
X014121Y004840D03*
X014121Y004830D03*
X014131Y004800D03*
X014251Y004560D03*
X014501Y004810D03*
X014461Y004920D03*
X014451Y004940D03*
X014451Y004950D03*
X014441Y004960D03*
X014441Y004970D03*
X014421Y005050D03*
X014421Y005150D03*
X014421Y005160D03*
X014441Y005230D03*
X014441Y005240D03*
X014451Y005250D03*
X014451Y005260D03*
X014461Y005280D03*
X014501Y005390D03*
X014001Y005890D03*
X013781Y005480D03*
X013781Y005470D03*
X013771Y005440D03*
X013771Y005430D03*
X013761Y005410D03*
X013751Y005380D03*
X013751Y005370D03*
X013751Y005360D03*
X013741Y005350D03*
X013741Y005340D03*
X013741Y005330D03*
X013741Y005320D03*
X013741Y005310D03*
X013731Y005280D03*
X013731Y005270D03*
X013731Y005260D03*
X013731Y005250D03*
X013731Y005240D03*
X013731Y005230D03*
X013721Y005220D03*
X013721Y005210D03*
X013721Y005200D03*
X013721Y005190D03*
X013721Y005180D03*
X013721Y005170D03*
X013721Y005160D03*
X013721Y005150D03*
X013721Y005140D03*
X013721Y005130D03*
X013721Y005120D03*
X013721Y005110D03*
X013721Y005100D03*
X013721Y005090D03*
X013721Y005080D03*
X013721Y005070D03*
X013721Y005060D03*
X013721Y005050D03*
X013721Y005040D03*
X013721Y005030D03*
X013721Y005020D03*
X013721Y005010D03*
X013721Y005000D03*
X013721Y004990D03*
X013721Y004980D03*
X013731Y004930D03*
X013731Y004920D03*
X013731Y004910D03*
X013741Y004890D03*
X013741Y004880D03*
X013741Y004870D03*
X013741Y004860D03*
X013751Y004830D03*
X013751Y004820D03*
X013771Y004760D03*
X015271Y005770D03*
X015291Y005820D03*
X015301Y005850D03*
X015301Y005860D03*
X015301Y005870D03*
X015311Y005880D03*
X015311Y005890D03*
X015311Y005900D03*
X015321Y005910D03*
X015321Y005920D03*
X015321Y005930D03*
X015331Y005950D03*
X015331Y005960D03*
X015331Y005970D03*
X015331Y005980D03*
X015351Y006050D03*
X015351Y006060D03*
X015351Y006070D03*
X015351Y006080D03*
X015351Y006090D03*
X015351Y006320D03*
X015351Y006330D03*
X015331Y006430D03*
X015331Y006440D03*
X015331Y006450D03*
X015331Y006460D03*
X015321Y006480D03*
X015321Y006490D03*
X015321Y006500D03*
X015311Y006520D03*
X015311Y006530D03*
X015301Y006540D03*
X015301Y006550D03*
X015301Y006560D03*
X015291Y006580D03*
X015291Y006590D03*
X015271Y006640D03*
X014541Y007020D03*
X014501Y007110D03*
X014491Y007130D03*
X014481Y007150D03*
X014481Y007160D03*
X014471Y007170D03*
X014471Y007180D03*
X014461Y007240D03*
X014461Y007360D03*
X014471Y007420D03*
X014471Y007430D03*
X014481Y007440D03*
X014481Y007450D03*
X014491Y007470D03*
X014501Y007490D03*
X014541Y007580D03*
X014171Y007610D03*
X014161Y007580D03*
X014151Y007570D03*
X014151Y007560D03*
X014151Y007550D03*
X014141Y007540D03*
X014141Y007530D03*
X014141Y007520D03*
X014131Y007500D03*
X014121Y007460D03*
X014121Y007450D03*
X014111Y007390D03*
X014111Y007210D03*
X014121Y007150D03*
X014131Y007100D03*
X014141Y007080D03*
X014141Y007070D03*
X014141Y007060D03*
X014151Y007050D03*
X014151Y007040D03*
X014151Y007030D03*
X014161Y007010D03*
X014171Y006990D03*
X013811Y006980D03*
X013811Y006970D03*
X013801Y007000D03*
X013801Y007010D03*
X013801Y007020D03*
X013791Y007030D03*
X013791Y007040D03*
X013791Y007050D03*
X013781Y007080D03*
X013781Y007090D03*
X013771Y007140D03*
X013771Y007150D03*
X013771Y007160D03*
X013771Y007170D03*
X013771Y007180D03*
X013771Y007410D03*
X013771Y007420D03*
X013781Y007500D03*
X013781Y007510D03*
X013791Y007550D03*
X013791Y007560D03*
X013801Y007580D03*
X013801Y007590D03*
X013831Y007680D03*
X014041Y008090D03*
X013091Y006760D03*
X013021Y006400D03*
X011101Y006010D03*
X010481Y006430D03*
X010471Y006420D03*
X010181Y006190D03*
X008961Y005980D03*
D35*
X013261Y005980D03*
X014251Y005740D03*
X014491Y004710D03*
D36*
X014876Y005030D03*
X014876Y005040D03*
X014876Y005050D03*
X014876Y005150D03*
X014876Y005160D03*
X014876Y005170D03*
X013406Y005920D03*
X014196Y006130D03*
X012796Y006460D03*
X012676Y005950D03*
X011666Y006460D03*
X010836Y006420D03*
X010246Y006250D03*
X011546Y005950D03*
X014916Y007230D03*
X014916Y007240D03*
X014916Y007370D03*
D37*
X014911Y007360D03*
X014911Y007350D03*
X014911Y007250D03*
X014201Y006270D03*
X014201Y006260D03*
X014201Y006250D03*
X014201Y006240D03*
X014201Y006170D03*
X014201Y006160D03*
X014201Y006150D03*
X014201Y006140D03*
X013061Y005950D03*
X013061Y005940D03*
X013061Y005930D03*
X013061Y005920D03*
X013061Y005910D03*
X013061Y005900D03*
X012681Y005900D03*
X012681Y005910D03*
X012681Y005920D03*
X012681Y005930D03*
X012681Y005940D03*
X011931Y005940D03*
X011931Y005950D03*
X011931Y005930D03*
X011931Y005920D03*
X011931Y005910D03*
X011931Y005900D03*
X011551Y005900D03*
X011551Y005910D03*
X011551Y005920D03*
X011551Y005930D03*
X011551Y005940D03*
X011071Y005650D03*
X010841Y006430D03*
X010411Y006370D03*
X014881Y005140D03*
X014881Y005070D03*
X014881Y005060D03*
D38*
X014876Y005080D03*
X014876Y005120D03*
X014876Y005130D03*
X013406Y005930D03*
X013406Y005940D03*
X012306Y005950D03*
X011056Y006140D03*
X010846Y006440D03*
X011036Y006480D03*
X010396Y006360D03*
X010256Y006260D03*
X009626Y006480D03*
X010296Y006720D03*
X009636Y005920D03*
X014916Y007260D03*
X014916Y007270D03*
X014916Y007280D03*
X014916Y007330D03*
X014916Y007340D03*
D39*
X014911Y007320D03*
X014911Y007310D03*
X014201Y006230D03*
X014201Y006220D03*
X014201Y006190D03*
X014201Y006180D03*
X013411Y005960D03*
X013411Y005950D03*
X012801Y006450D03*
X012301Y005940D03*
X012301Y005930D03*
X012301Y005920D03*
X012301Y005910D03*
X012301Y005900D03*
X011671Y006450D03*
X011051Y005990D03*
X010381Y006350D03*
X010271Y006270D03*
X014871Y005110D03*
X014881Y005090D03*
D40*
X014876Y005100D03*
X013416Y005970D03*
X014196Y006200D03*
X014196Y006210D03*
X014916Y007290D03*
X014916Y007300D03*
X011056Y006150D03*
X010926Y005910D03*
X010296Y006290D03*
X010286Y006280D03*
X010366Y006340D03*
X010856Y006450D03*
D41*
X014001Y005980D03*
X014041Y006420D03*
X014281Y006670D03*
X014831Y006840D03*
X014281Y007930D03*
X014041Y008180D03*
X014591Y005820D03*
X015081Y005330D03*
D42*
X015081Y005340D03*
X014491Y005480D03*
X014591Y005830D03*
X014001Y005970D03*
X014041Y006430D03*
X014281Y006680D03*
X014831Y006830D03*
X014281Y007920D03*
X014041Y008170D03*
X012301Y006780D03*
X012301Y006610D03*
D43*
X012271Y006500D03*
X013471Y006620D03*
X013471Y006630D03*
X014041Y006440D03*
X014201Y006360D03*
X014281Y006690D03*
X014831Y006820D03*
X014001Y005960D03*
X014591Y005840D03*
X014491Y005470D03*
X015081Y005350D03*
X014281Y007910D03*
X014041Y008160D03*
X011131Y006090D03*
X011141Y006070D03*
X010131Y006500D03*
D44*
X010131Y006510D03*
X010131Y006520D03*
X010131Y006530D03*
X010131Y006540D03*
X010131Y006550D03*
X010131Y006560D03*
X010571Y006140D03*
X010571Y006130D03*
X010571Y006120D03*
X010571Y006110D03*
X010571Y006100D03*
X010571Y006090D03*
X011151Y006050D03*
X011901Y006500D03*
X012301Y006620D03*
X012301Y006770D03*
X013031Y006800D03*
X013481Y006590D03*
X013481Y006580D03*
X014041Y006450D03*
X014281Y006700D03*
X014831Y006810D03*
X014911Y007150D03*
X014281Y007900D03*
X014041Y008150D03*
X014001Y005950D03*
X014591Y005850D03*
X014491Y005460D03*
X015081Y005360D03*
X008591Y006050D03*
X008591Y006060D03*
X008591Y006070D03*
X008591Y006080D03*
X008591Y006090D03*
X008591Y006540D03*
X008591Y006550D03*
X008591Y006560D03*
X008591Y006570D03*
X008591Y006580D03*
X008591Y006590D03*
D45*
X008601Y006640D03*
X008601Y005990D03*
X010141Y006630D03*
X010561Y006000D03*
X010561Y005990D03*
X011151Y006030D03*
X011041Y006510D03*
X012301Y006630D03*
X012301Y006760D03*
X013491Y006550D03*
X013491Y006540D03*
X014041Y006460D03*
X014201Y006350D03*
X014581Y006550D03*
X014281Y006710D03*
X014531Y006960D03*
X014831Y006800D03*
X014531Y007640D03*
X014281Y007890D03*
X014041Y008140D03*
X014001Y005940D03*
X015081Y005370D03*
D46*
X014836Y005570D03*
X014496Y005490D03*
X014526Y006910D03*
X015076Y007090D03*
X014526Y007690D03*
D47*
X011036Y005980D03*
X011066Y005660D03*
X009626Y006470D03*
X008776Y006720D03*
X008776Y005910D03*
D48*
X009631Y005940D03*
X009631Y006460D03*
X011021Y005970D03*
X011061Y005670D03*
D49*
X011061Y005680D03*
X010991Y005940D03*
X010291Y006690D03*
D50*
X010306Y006670D03*
X010396Y005940D03*
X011056Y005690D03*
D51*
X010401Y005910D03*
X010311Y006300D03*
X010321Y006310D03*
X010341Y006320D03*
X010351Y006330D03*
X009631Y005930D03*
D52*
X010381Y005960D03*
X011001Y005920D03*
X008781Y005940D03*
D53*
X010406Y005920D03*
X013446Y006460D03*
D54*
X013456Y006450D03*
X013456Y006440D03*
X013456Y006430D03*
X013456Y006420D03*
X013456Y006410D03*
X011006Y005950D03*
X008776Y005920D03*
D55*
X010296Y006680D03*
X010406Y005930D03*
X010986Y005930D03*
D56*
X008771Y005930D03*
X008771Y006700D03*
D57*
X008776Y006690D03*
X010386Y005950D03*
D58*
X011011Y005960D03*
X010291Y006700D03*
X009631Y006450D03*
X009631Y005950D03*
X008771Y006710D03*
D59*
X008786Y006680D03*
X008786Y005950D03*
X012886Y006440D03*
D60*
X012876Y006410D03*
X008796Y006670D03*
X008796Y005960D03*
D61*
X011056Y006160D03*
X013436Y006470D03*
D62*
X011786Y006410D03*
D63*
X012881Y006420D03*
X012881Y006430D03*
D64*
X011791Y006430D03*
X011791Y006420D03*
D65*
X011796Y006440D03*
D66*
X010956Y006460D03*
D67*
X010951Y006470D03*
D68*
X010291Y006710D03*
D69*
X014286Y007940D03*
M02*
